<svg width="30" height="30" viewBox="0 0 30 30" fill="none" xmlns="http://www.w3.org/2000/svg">
<path d="M18.4273 17.2091C21.5226 17.2091 24.0318 14.6999 24.0318 11.6045C24.0318 8.50924 21.5226 6 18.4273 6C15.332 6 12.8228 8.50924 12.8228 11.6045C12.8228 14.6999 15.332 17.2091 18.4273 17.2091Z" fill="#EAD618"/>
<path d="M12.2636 26.0185C16.8275 26.0185 20.5273 22.3187 20.5273 17.7548C20.5273 13.191 16.8275 9.49121 12.2636 9.49121C7.69976 9.49121 4 13.191 4 17.7548C4 22.3187 7.69976 26.0185 12.2636 26.0185Z" fill="#EAD618"/>
<path d="M22.8224 2.59644L20.5964 2L20 4.22602L22.2259 4.82246L22.8224 2.59644Z" fill="#60BFC1"/>
<path d="M26 8.59898L26.5992 10.8345L28.8347 10.2353L28.2355 7.9998L26 8.59898Z" fill="#60BFC1"/>
<path d="M8.03278 15.8855C2.10375 14.2022 0.842476 8.84775 1.39612 6.65254C1.94977 4.45733 7.20696 4.06463 13.136 5.74794C19.065 7.43126 23.4311 10.5643 22.8775 12.7595C22.3239 14.9547 13.9618 17.5688 8.03278 15.8855Z" fill="#57AEFF" fill-opacity="0.5"/>
<path d="M14.1128 21.9716C15.7958 27.9022 21.154 29.15 23.3458 28.6095C25.5375 28.0691 25.9342 22.7969 24.2512 16.8662C22.5682 10.9356 19.4215 6.56462 17.2401 7.1223C15.0586 7.67999 12.4158 16.0372 14.1128 21.9716Z" fill="#5CADF8" fill-opacity="0.5"/>
</svg>
