<svg width="32" height="32" viewBox="0 0 32 32" fill="none" xmlns="http://www.w3.org/2000/svg">
<rect width="32" height="32" rx="6" fill="#D9D9D9"/>
<path d="M11.326 12.899C11.755 13.484 12.171 14.303 12.327 14.849L13.172 14.498C13.016 13.952 12.587 13.159 12.119 12.587L11.326 12.899ZM19.425 12.535C19.178 13.159 18.697 14.043 18.346 14.589L19.1 14.862C19.477 14.342 19.932 13.562 20.309 12.834L19.425 12.535ZM18.307 10C18.099 10.468 17.709 11.131 17.384 11.599H13.614L14.147 11.365C13.978 10.962 13.601 10.403 13.211 10L12.366 10.338C12.691 10.702 13.016 11.209 13.198 11.599H10.728V12.431H14.043V14.979H10V15.798H21.674V14.979H17.553V12.431H21.037V11.599H18.437C18.71 11.222 19.009 10.754 19.269 10.312L18.307 10ZM14.966 12.431H16.617V14.979H14.966V12.431ZM12.73 19.425H18.957V20.738H12.73V19.425ZM12.73 18.658V17.384H18.957V18.658H12.73ZM11.781 16.604V21.973H12.73V21.518H18.957V21.921H19.958V16.604H11.781Z" fill="black"/>
</svg>
