<svg width="32" height="32" viewBox="0 0 32 32" fill="none" xmlns="http://www.w3.org/2000/svg">
<rect width="32" height="32" rx="6" fill="#E0BDBD"/>
<path d="M13.9 19.49C14.056 20.27 14.16 21.284 14.16 21.895L15.122 21.752C15.109 21.154 14.966 20.166 14.797 19.399L13.9 19.49ZM16.578 19.464C16.916 20.231 17.241 21.245 17.371 21.869L18.333 21.661C18.203 21.05 17.839 20.049 17.488 19.295L16.578 19.464ZM19.269 19.399C19.919 20.205 20.66 21.323 20.972 22.025L21.895 21.596C21.544 20.907 20.777 19.815 20.127 19.035L19.269 19.399ZM11.703 19.113C11.274 20.01 10.585 21.011 10 21.622L10.91 21.999C11.508 21.323 12.171 20.27 12.613 19.36L11.703 19.113ZM12.249 10.026V11.833H10.299V12.743H12.249V14.745L10.039 15.317L10.273 16.253L12.249 15.694V17.67C12.249 17.826 12.184 17.878 12.015 17.878C11.859 17.878 11.313 17.891 10.715 17.878C10.845 18.125 10.962 18.489 11.001 18.749C11.846 18.749 12.379 18.736 12.704 18.58C13.042 18.437 13.159 18.177 13.159 17.67V15.434L14.823 14.966L14.706 14.082L13.159 14.498V12.743H14.68V11.833H13.159V10.026H12.249ZM16.799 10L16.773 11.885H15.005V12.73H16.734C16.695 13.588 16.617 14.342 16.474 14.992L15.395 14.355L14.914 15.031C15.33 15.265 15.772 15.551 16.227 15.837C15.863 16.812 15.252 17.54 14.225 18.086C14.433 18.242 14.719 18.58 14.849 18.788C15.928 18.19 16.604 17.397 17.02 16.357C17.631 16.773 18.19 17.189 18.554 17.501L19.061 16.734C18.645 16.383 17.995 15.941 17.293 15.499C17.501 14.706 17.605 13.796 17.657 12.73H19.412C19.373 16.578 19.36 18.853 20.907 18.84C21.661 18.84 21.96 18.424 22.077 16.929C21.843 16.864 21.505 16.708 21.31 16.552C21.271 17.618 21.167 17.982 20.946 17.982C20.244 17.982 20.244 15.967 20.348 11.885H17.696L17.735 10H16.799Z" fill="#C81212"/>
</svg>
