<svg width="30" height="30" viewBox="0 0 30 30" fill="none" xmlns="http://www.w3.org/2000/svg">
<path d="M18.4273 17.2091C21.5226 17.2091 24.0318 14.6999 24.0318 11.6045C24.0318 8.50924 21.5226 6 18.4273 6C15.332 6 12.8228 8.50924 12.8228 11.6045C12.8228 14.6999 15.332 17.2091 18.4273 17.2091Z" fill="#EAD618" fill-opacity="0.5"/>
<g filter="url(#filter0_f_189_480)">
<path d="M10.5 26C14.0899 26 17 23.0899 17 19.5C17 15.9101 14.0899 13 10.5 13C6.91015 13 4 15.9101 4 19.5C4 23.0899 6.91015 26 10.5 26Z" fill="#C1BB83"/>
</g>
<path d="M22.8224 2.59644L20.5964 2L20 4.22602L22.2259 4.82246L22.8224 2.59644Z" fill="#60BFC1"/>
<path d="M26 8.59898L26.5992 10.8345L28.8347 10.2353L28.2355 7.9998L26 8.59898Z" fill="#60BFC1"/>
<path d="M8.03278 16.8855C2.10375 15.2022 0.842476 9.84775 1.39612 7.65254C1.94976 5.45733 7.20696 5.06463 13.136 6.74794C19.065 8.43126 23.4311 11.5643 22.8775 13.7595C22.3239 15.9547 13.9618 18.5688 8.03278 16.8855Z" fill="#57AEFF" fill-opacity="0.4"/>
<path d="M13.1128 21.9716C14.7958 27.9022 20.154 29.15 22.3458 28.6095C24.5375 28.0691 24.9342 22.7969 23.2512 16.8662C21.5682 10.9356 18.4215 6.56462 16.2401 7.1223C14.0586 7.67999 11.4158 16.0372 13.1128 21.9716Z" fill="#5CADF8" fill-opacity="0.4"/>
<defs>
<filter id="filter0_f_189_480" x="0" y="9" width="21" height="21" filterUnits="userSpaceOnUse" color-interpolation-filters="sRGB">
<feFlood flood-opacity="0" result="BackgroundImageFix"/>
<feBlend mode="normal" in="SourceGraphic" in2="BackgroundImageFix" result="shape"/>
<feGaussianBlur stdDeviation="2" result="effect1_foregroundBlur_189_480"/>
</filter>
</defs>
</svg>
