<svg width="30" height="30" viewBox="0 0 30 30" fill="none" xmlns="http://www.w3.org/2000/svg">
<g clip-path="url(#clip0_193_16)">
<path d="M18.4273 17.2091C21.5226 17.2091 24.0318 14.6999 24.0318 11.6045C24.0318 8.50924 21.5226 6 18.4273 6C15.332 6 12.8228 8.50924 12.8228 11.6045C12.8228 14.6999 15.332 17.2091 18.4273 17.2091Z" fill="#EAD618"/>
<g filter="url(#filter0_f_193_16)">
<path d="M12.5 27C17.7467 27 22 22.7467 22 17.5C22 12.2533 17.7467 8 12.5 8C7.2533 8 3 12.2533 3 17.5C3 22.7467 7.2533 27 12.5 27Z" fill="#EAD618"/>
</g>
<path d="M22.8224 2.59644L20.5964 2L20 4.22602L22.2259 4.82246L22.8224 2.59644Z" fill="#C18960"/>
<path d="M26 8.59898L26.5992 10.8345L28.8347 10.2353L28.2355 7.9998L26 8.59898Z" fill="#C18960"/>
<path d="M7.03278 16.8855C1.10375 15.2022 -0.157524 9.84775 0.39612 7.65254C0.949765 5.45733 6.20696 5.06463 12.136 6.74794C18.065 8.43126 22.4311 11.5643 21.8775 13.7595C21.3239 15.9547 12.9618 18.5688 7.03278 16.8855Z" fill="#CE6152" fill-opacity="0.6"/>
<path d="M13.1128 22.9716C14.7958 28.9022 20.154 30.15 22.3458 29.6095C24.5375 29.0691 24.9342 23.7969 23.2512 17.8662C21.5682 11.9356 18.4215 7.56462 16.2401 8.1223C14.0586 8.67999 11.4158 17.0372 13.1128 22.9716Z" fill="#DB4414" fill-opacity="0.6"/>
</g>
<defs>
<filter id="filter0_f_193_16" x="-3" y="2" width="31" height="31" filterUnits="userSpaceOnUse" color-interpolation-filters="sRGB">
<feFlood flood-opacity="0" result="BackgroundImageFix"/>
<feBlend mode="normal" in="SourceGraphic" in2="BackgroundImageFix" result="shape"/>
<feGaussianBlur stdDeviation="3" result="effect1_foregroundBlur_193_16"/>
</filter>
<clipPath id="clip0_193_16">
<rect width="30" height="30" fill="white"/>
</clipPath>
</defs>
</svg>
