<svg width="30" height="30" viewBox="0 0 30 30" fill="none" xmlns="http://www.w3.org/2000/svg">
<g clip-path="url(#clip0_193_23)">
<path d="M18.4273 17.2091C21.5226 17.2091 24.0318 14.6999 24.0318 11.6045C24.0318 8.50924 21.5226 6 18.4273 6C15.332 6 12.8228 8.50924 12.8228 11.6045C12.8228 14.6999 15.332 17.2091 18.4273 17.2091Z" fill="#EAD618"/>
<path d="M12.2636 26.0185C16.8275 26.0185 20.5273 22.3187 20.5273 17.7548C20.5273 13.191 16.8275 9.49121 12.2636 9.49121C7.69976 9.49121 4 13.191 4 17.7548C4 22.3187 7.69976 26.0185 12.2636 26.0185Z" fill="#EAD618"/>
<path d="M22.8224 2.59644L20.5964 2L20 4.22602L22.2259 4.82246L22.8224 2.59644Z" fill="#C18960"/>
<path d="M0.999971 27.1214L2.41418 28.5356L4.53551 26.4143L3.12129 25.0001L0.999971 27.1214Z" fill="#F4C857"/>
<path d="M9 27H7V30H9V27Z" fill="#F4C857"/>
<path d="M3 21H0L0 23H3V21Z" fill="#F4C857"/>
<path d="M26 8.59898L26.5992 10.8345L28.8347 10.2353L28.2355 7.9998L26 8.59898Z" fill="#C18960"/>
<path d="M7.03278 16.8855C1.10375 15.2022 -0.157524 9.84775 0.39612 7.65254C0.949765 5.45733 6.20696 5.06463 12.136 6.74794C18.065 8.43126 22.4311 11.5643 21.8775 13.7595C21.3239 15.9547 12.9618 18.5688 7.03278 16.8855Z" fill="#CE6152" fill-opacity="0.8"/>
<path d="M13.1128 22.9716C14.7958 28.9022 20.154 30.15 22.3458 29.6095C24.5375 29.0691 24.9342 23.7969 23.2512 17.8662C21.5682 11.9356 18.4215 7.56462 16.2401 8.1223C14.0586 8.67999 11.4158 17.0372 13.1128 22.9716Z" fill="#DB4414" fill-opacity="0.8"/>
</g>
<defs>
<clipPath id="clip0_193_23">
<rect width="30" height="30" fill="white"/>
</clipPath>
</defs>
</svg>
