<svg width="16" height="16" viewBox="0 0 16 16" xmlns="http://www.w3.org/2000/svg">
<path d="M13.3333 2.1665H2.66667C2.03333 2.1665 1.5 2.69984 1.5 3.33317V11.3332C1.5 11.9665 2.03333 12.4998 2.66667 12.4998H5.03333V14.3332C5.03333 14.5332 5.16667 14.7332 5.33333 14.7998C5.4 14.8332 5.46667 14.8332 5.53333 14.8332C5.66667 14.8332 5.8 14.7665 5.9 14.6665L8.03333 12.4998H13.3333C13.9667 12.4998 14.5 11.9665 14.5 11.3332V3.33317C14.5 2.69984 13.9667 2.1665 13.3333 2.1665ZM13.5 11.3332C13.5 11.4332 13.4333 11.4998 13.3333 11.4998H7.83333C7.7 11.4998 7.56667 11.5665 7.46667 11.6665L6.06667 13.1332V11.9998C6.06667 11.7332 5.83333 11.4998 5.56667 11.4998H2.66667C2.56667 11.4998 2.5 11.4332 2.5 11.3332V3.33317C2.5 3.23317 2.56667 3.1665 2.66667 3.1665H13.3333C13.4333 3.1665 13.5 3.23317 13.5 3.33317V11.3332ZM8 7.6665H4.66667C4.4 7.6665 4.16667 7.89984 4.16667 8.1665C4.16667 8.43317 4.4 8.6665 4.66667 8.6665H8C8.26667 8.6665 8.5 8.43317 8.5 8.1665C8.5 7.89984 8.26667 7.6665 8 7.6665ZM10.5 5.33317H4.66667C4.4 5.33317 4.16667 5.5665 4.16667 5.83317C4.16667 6.09984 4.4 6.33317 4.66667 6.33317H10.5C10.7667 6.33317 11 6.09984 11 5.83317C11 5.5665 10.7667 5.33317 10.5 5.33317Z" />
</svg>
