<svg viewBox="0 0 40 40" fill="none" xmlns="http://www.w3.org/2000/svg">
<circle cx="20" cy="20" r="20" fill="#48AFF0"/>
<path d="M28.6552 16.6617H23.1598C25.289 8.79662 21.6923 8.39484 21.6923 8.39484C20.1674 8.39484 20.484 9.60043 20.3688 9.80129C20.3688 13.6477 16.3364 16.6617 16.3364 16.6617V27.5694C16.3364 28.6457 17.8037 29.0333 18.3792 29.0333H26.5837C27.3606 29.0333 27.9935 26.9952 27.9935 26.9952C30.0365 20.0488 30.0365 17.9822 30.0365 17.9822C30.0365 16.547 28.6553 16.6617 28.6552 16.6617ZM13.9716 16.6653H10.7372C10.0573 16.6653 10.0466 17.3327 10.0466 17.3327L10.7265 28.3336C10.7265 29.0333 11.4278 29.0333 11.4278 29.0333H14.2198C14.8132 29.0333 14.8079 28.5704 14.8079 28.5704V17.4995C14.8079 16.6546 13.9716 16.6653 13.9716 16.6653Z" fill="white"/>
</svg>
