<svg width="222" height="221" opacity="0.7" viewBox="0 0 222 221" fill="none" xmlns="http://www.w3.org/2000/svg">
<path d="M109.555 2.49689C111.661 1.00555 114.485 1.02823 116.567 2.55323L190.897 56.9952C193.475 58.8834 194.996 61.8898 194.989 65.0853L194.756 168.118C194.744 173.632 190.27 178.095 184.756 178.095H38.6553C33.1324 178.095 28.6553 173.618 28.6553 168.095V64.9484C28.6553 61.7042 30.229 58.6616 32.8768 56.787L109.555 2.49689Z" fill="#D8D5E1"/>
<path fill-rule="evenodd" clip-rule="evenodd" d="M188.534 60.2222L114.203 5.78023C113.509 5.2719 112.568 5.26434 111.866 5.76146L35.1882 60.0516C33.5995 61.1763 32.6553 63.0019 32.6553 64.9484V168.095C32.6553 171.409 35.3416 174.095 38.6553 174.095H184.756C188.065 174.095 190.749 171.417 190.756 168.109L190.989 65.0762C190.993 63.159 190.081 61.3551 188.534 60.2222ZM116.567 2.55323C114.485 1.02823 111.661 1.00555 109.555 2.49689L32.8768 56.787C30.229 58.6616 28.6553 61.7042 28.6553 64.9484V168.095C28.6553 173.618 33.1324 178.095 38.6553 178.095H184.756C190.27 178.095 194.744 173.632 194.756 168.118L194.989 65.0853C194.996 61.8898 193.475 58.8834 190.897 56.9952L116.567 2.55323Z" fill="#3A78B1"/>
<path d="M27.9805 67.5L172.857 178.403H33.9805C30.6668 178.403 27.9805 175.717 27.9805 172.403V67.5Z" fill="#CEBCCF"/>
<path fill-rule="evenodd" clip-rule="evenodd" d="M27.9805 67.5V172.403C27.9805 175.717 30.6668 178.403 33.9805 178.403H172.857L27.9805 67.5ZM31.9805 75.5995V172.403C31.9805 173.508 32.8759 174.403 33.9805 174.403H161.051L31.9805 75.5995Z" fill="#3A78B1"/>
<path d="M195 65.5L55 178H189C192.314 178 195 175.314 195 172V65.5Z" fill="#CEBCCF"/>
<path fill-rule="evenodd" clip-rule="evenodd" d="M195 65.5V172C195 175.314 192.314 178 189 178H55L195 65.5ZM191 73.8457V172C191 173.105 190.105 174 189 174H66.3636L191 73.8457Z" fill="#3A78B1"/>
<path d="M107.587 109.714C109.719 108.106 112.657 108.101 114.795 109.702L191.574 167.197C196.192 170.655 193.746 178 187.978 178H34.9272C29.1685 178 26.717 170.675 31.3155 167.209L107.587 109.714Z" fill="#ADA3C8"/>
<path fill-rule="evenodd" clip-rule="evenodd" d="M34.9272 174H187.978C189.901 174 190.716 171.552 189.177 170.399L112.397 112.904C111.685 112.37 110.705 112.372 109.994 112.908L33.7233 170.403C32.1905 171.558 33.0076 174 34.9272 174ZM114.795 109.702C112.657 108.101 109.719 108.106 107.587 109.714L31.3155 167.209C26.717 170.675 29.1685 178 34.9272 178H187.978C193.746 178 196.192 170.655 191.574 167.197L114.795 109.702Z" fill="#3A78B1"/>
<path d="M169.468 196.275L141.429 215.07L152.521 189.188L155.602 187.339L169.468 196.275Z" fill="#4C679A"/>
<path fill-rule="evenodd" clip-rule="evenodd" d="M154.574 185.624C155.227 185.232 156.046 185.245 156.686 185.658L170.551 194.593C171.117 194.958 171.462 195.583 171.468 196.257C171.474 196.93 171.141 197.561 170.582 197.936L142.542 216.731C141.806 217.225 140.834 217.175 140.152 216.609C139.47 216.044 139.242 215.097 139.591 214.282L150.683 188.4C150.849 188.014 151.132 187.689 151.492 187.473L154.574 185.624ZM154.105 190.57L145.93 209.645L165.827 196.308L155.565 189.694L154.105 190.57Z" fill="#3A78B1"/>
<path d="M216.685 135.855L119.425 162.173C117.777 162.618 117.409 164.79 118.818 165.754L194.591 217.584C196.308 218.759 198.671 217.87 199.19 215.855L219.145 138.284C219.527 136.799 218.165 135.455 216.685 135.855Z" fill="#B3CFF0"/>
<path fill-rule="evenodd" clip-rule="evenodd" d="M216.163 133.924C219.122 133.124 221.845 135.813 221.081 138.782L201.127 216.353C200.262 219.712 196.324 221.193 193.461 219.234L117.689 167.405C114.871 165.477 115.607 161.134 118.902 160.242L216.163 133.924ZM217.208 137.786L119.947 164.103L195.72 215.933C196.292 216.324 197.08 216.028 197.253 215.357L217.208 137.786Z" fill="#3A78B1"/>
<path d="M142.661 182.409L202.437 148.207L152.829 189.188L141.429 215.07L142.661 182.409Z" fill="#5881A7"/>
<path fill-rule="evenodd" clip-rule="evenodd" d="M204.082 147.07C204.673 147.924 204.512 149.088 203.711 149.749L154.469 190.428L143.259 215.876C142.872 216.755 141.915 217.235 140.98 217.019C140.044 216.804 139.394 215.954 139.43 214.995L140.663 182.334C140.689 181.644 141.069 181.016 141.668 180.673L201.444 146.471C202.345 145.956 203.491 146.216 204.082 147.07ZM144.618 183.594L143.822 204.674L150.999 188.382C151.125 188.096 151.315 187.844 151.556 187.646L183.146 161.549L144.618 183.594Z" fill="#3A78B1"/>
<path d="M55.4622 64.7058C55.4622 80.0213 43.0466 92.4369 27.7311 92.4369C12.4156 92.4369 0 80.0213 0 64.7058C0 49.3904 12.4156 36.9747 27.7311 36.9747C43.0466 36.9747 55.4622 49.3904 55.4622 64.7058Z" fill="#F8DEB2"/>
<path fill-rule="evenodd" clip-rule="evenodd" d="M27.7311 88.4369C40.8374 88.4369 51.4622 77.8121 51.4622 64.7058C51.4622 51.5995 40.8374 40.9747 27.7311 40.9747C14.6248 40.9747 4 51.5995 4 64.7058C4 77.8121 14.6248 88.4369 27.7311 88.4369ZM27.7311 92.4369C43.0466 92.4369 55.4622 80.0213 55.4622 64.7058C55.4622 49.3904 43.0466 36.9747 27.7311 36.9747C12.4156 36.9747 0 49.3904 0 64.7058C0 80.0213 12.4156 92.4369 27.7311 92.4369Z" fill="#3A78B1"/>
<path d="M30.1961 80.112C30.1961 81.4734 29.0925 82.577 27.7311 82.577C26.3697 82.577 25.2661 81.4734 25.2661 80.112C25.2661 78.7506 26.3697 77.647 27.7311 77.647C29.0925 77.647 30.1961 78.7506 30.1961 80.112Z" fill="#3A78B1"/>
<path d="M25.8823 44.9859H29.5798V72.717H25.8823V44.9859Z" fill="#3A78B1"/>
</svg>
