<svg viewBox="0 0 40 40" fill="none" xmlns="http://www.w3.org/2000/svg">
<circle cx="20" cy="20" r="20" fill="#FFB366"/>
<path d="M27.7223 13.9308C27.632 13.8708 27.531 13.8299 27.4253 13.8103C27.3196 13.7908 27.2112 13.7931 27.1064 13.8171C27.0015 13.8411 26.9023 13.8862 26.8144 13.95C26.7265 14.0138 26.6517 14.0949 26.5942 14.1887C26.4759 14.38 26.4346 14.6115 26.4791 14.8339C26.5236 15.0562 26.6504 15.2518 26.8325 15.3788C26.8617 15.3992 27.1111 15.5799 27.43 15.9415C28.0798 16.6788 29.0244 18.1773 29.0244 20.6869C29.0244 23.2932 28.0515 24.813 27.43 25.5184C27.1574 25.8285 26.9508 25.9827 26.9268 26.0004C26.7446 26.1289 26.6186 26.3262 26.576 26.5499C26.5333 26.7735 26.5774 27.0056 26.6988 27.1959C26.8565 27.444 27.1171 27.5787 27.3828 27.5787C27.3983 27.5787 27.4146 27.5725 27.43 27.5716C27.5751 27.5641 27.7157 27.5167 27.8372 27.4343C27.9529 27.3536 30.6668 25.4023 30.6668 20.6861C30.6668 15.9619 27.8432 14.0114 27.7223 13.9308ZM23.8328 16.4608C23.736 16.4136 23.6312 16.3866 23.5243 16.3814C23.4174 16.3762 23.3106 16.3929 23.21 16.4305C23.1093 16.4682 23.0169 16.526 22.938 16.6007C22.8591 16.6754 22.7952 16.7655 22.7501 16.8658C22.6565 17.0702 22.6432 17.3042 22.7131 17.5186C22.7829 17.733 22.9305 17.9109 23.1247 18.0151C23.1761 18.0435 24.4071 18.7134 24.4071 20.624C24.4071 22.664 23.2567 23.3401 23.219 23.3623C23.023 23.4664 22.8745 23.6461 22.8055 23.8625C22.7365 24.0788 22.7526 24.3146 22.8504 24.5188C22.898 24.6192 22.9644 24.709 23.0458 24.7829C23.1271 24.8567 23.2217 24.9132 23.3243 24.9491C23.4268 24.985 23.5352 24.9996 23.6432 24.9921C23.7512 24.9845 23.8567 24.955 23.9536 24.9051C24.0385 24.859 26.0487 23.7682 26.0487 20.624C26.0487 17.5898 23.9228 16.506 23.8328 16.4608ZM19.7812 10.7609C19.6938 10.7231 19.6023 10.6963 19.5086 10.6812C19.236 10.6369 18.8374 10.6741 18.4105 11.0764L17.483 11.9475L17.0484 12.3561L14.3259 14.9144H11.0402C10.5867 14.9161 10.1524 15.1036 9.83241 15.4358C9.51246 15.7681 9.33304 16.218 9.3335 16.6868V22.3778C9.3335 23.3543 10.0998 24.1501 11.0402 24.1501H13.3341L17.0484 27.6407L18.4105 28.9204C18.7551 29.2429 19.0809 29.3333 19.3372 29.3333C19.4015 29.3333 19.4538 29.3218 19.5086 29.3121C19.6029 29.2987 19.6953 29.2737 19.7838 29.2376C19.9929 29.1419 20.4773 28.8282 20.4773 27.9801V12.0149C20.4773 11.991 20.4704 11.9706 20.4695 11.9475C20.4498 11.3954 20.1995 10.9532 19.7812 10.7609Z" fill="white"/>
</svg>
