<svg viewBox="0 0 40 40" fill="none" xmlns="http://www.w3.org/2000/svg">
<circle cx="20" cy="20" r="20" fill="#15B371"/>
<path d="M27.8333 10.5554H12.2778C10.7222 10.5554 9.5 11.7776 9.5 13.3332V25.5554C9.5 27.111 10.7222 28.3332 12.2778 28.3332H17.1111L19.6667 30.9443C19.7778 31.0554 19.8889 31.111 20.0556 31.111C20.2222 31.111 20.3333 31.0554 20.4444 30.9443L23.0556 28.3332H27.8333C29.3333 28.3332 30.6111 27.111 30.6111 25.5554V13.3332C30.6111 11.8332 29.3333 10.5554 27.8333 10.5554V10.5554ZM14.7222 20.5554C13.9444 20.5554 13.3333 19.9443 13.3333 19.1665C13.3333 18.3888 13.9444 17.7776 14.7222 17.7776C15.5 17.7776 16.1111 18.3888 16.1111 19.1665C16.1111 19.9443 15.5 20.5554 14.7222 20.5554ZM20.0556 20.5554C19.2778 20.5554 18.6667 19.9443 18.6667 19.1665C18.6667 18.3888 19.2778 17.7776 20.0556 17.7776C20.8333 17.7776 21.4444 18.3888 21.4444 19.1665C21.4444 19.9443 20.8333 20.5554 20.0556 20.5554ZM25.2778 20.5554C24.5 20.5554 23.8889 19.9443 23.8889 19.1665C23.8889 18.3888 24.5 17.7776 25.2778 17.7776C26.0556 17.7776 26.6667 18.3888 26.6667 19.1665C26.6667 19.9443 26.0556 20.5554 25.2778 20.5554Z" fill="white"/>
</svg>
