<svg viewBox="0 0 24 24" xmlns="http://www.w3.org/2000/svg">
<path d="M20.0925 8.08579H13.8855C14.1802 7.04854 14.3295 6.12679 14.3295 5.31529C14.3295 3.47404 12.6465 1.71079 11.0355 1.94479C9.615 2.15104 8.937 3.34879 8.937 4.88704V6.27679C8.937 8.05954 7.57275 9.57979 5.838 9.74704L3.07875 9.74254C2.66004 9.74254 2.25848 9.90888 1.96241 10.2049C1.66633 10.501 1.5 10.9026 1.5 11.3213V20.4375C1.5 21.3098 2.2065 22.0163 3.07875 22.0163H18.3645C18.9252 22.0163 19.4684 21.8206 19.9002 21.463C20.3321 21.1054 20.6255 20.6082 20.73 20.0573L22.458 10.941C22.5239 10.5931 22.5121 10.235 22.4237 9.89208C22.3353 9.5492 22.1723 9.23005 21.9464 8.95737C21.7205 8.6847 21.4372 8.46521 21.1168 8.31456C20.7963 8.1639 20.4466 8.08579 20.0925 8.08579ZM3 20.4375V11.3213C3 11.2778 3.03525 11.2425 3.07875 11.2425H4.875V20.5163H3.07875C3.05786 20.5163 3.03783 20.508 3.02307 20.4932C3.0083 20.4785 3 20.4584 3 20.4375ZM20.9842 10.662L19.2562 19.7783C19.2168 19.9859 19.1061 20.1732 18.9433 20.3079C18.7805 20.4427 18.5758 20.5163 18.3645 20.5163H6.375V11.1765C7.51591 10.9587 8.54538 10.3505 9.28662 9.45624C10.0279 8.56199 10.4346 7.43755 10.437 6.27604V4.88704C10.437 4.00654 10.7197 3.50629 11.2507 3.42979C11.8845 3.33754 12.8295 4.32829 12.8295 5.31604C12.8295 6.19054 12.6067 7.28479 12.153 8.59054C12.1138 8.70357 12.1021 8.82435 12.1191 8.94279C12.136 9.06123 12.1811 9.1739 12.2504 9.27138C12.3198 9.36887 12.4115 9.44834 12.5178 9.50317C12.6242 9.55799 12.7421 9.58658 12.8617 9.58654H20.0925C20.2259 9.58655 20.3577 9.61597 20.4784 9.67271C20.5991 9.72945 20.7059 9.81211 20.791 9.9148C20.8762 10.0175 20.9376 10.1377 20.971 10.2669C21.0044 10.396 21.0089 10.5309 20.9842 10.662Z" />
</svg>
