<svg viewBox="0 0 60 60" fill="none" xmlns="http://www.w3.org/2000/svg">
<path d="M14 34H46V52H14V34Z" fill="var(--app-panel-icon-color)"/>
<path fill-rule="evenodd" clip-rule="evenodd" d="M10 21C10.5523 21 11 21.4477 11 22V27C11 27.5523 11.4477 28 12 28H29V22C29 21.4477 29.4477 21 30 21C30.5523 21 31 21.4477 31 22V28H48C48.5523 28 49 27.5523 49 27V22C49 21.4477 49.4477 21 50 21C50.5523 21 51 21.4477 51 22V27C51 28.6569 49.6569 30 48 30H31V36.5C31 37.0523 30.5523 37.5 30 37.5C29.4477 37.5 29 37.0523 29 36.5V30H12C10.3431 30 9 28.6569 9 27V22C9 21.4477 9.44772 21 10 21Z" fill="var(--app-panel-icon-primary)"/>
<path d="M27 43C27 43.5523 26.5523 44 26 44C25.4477 44 25 43.5523 25 43C25 42.4477 25.4477 42 26 42C26.5523 42 27 42.4477 27 43Z" fill="var(--app-panel-icon-primary)"/>
<path d="M31 43C31 43.5523 30.5523 44 30 44C29.4477 44 29 43.5523 29 43C29 42.4477 29.4477 42 30 42C30.5523 42 31 42.4477 31 43Z" fill="var(--app-panel-icon-primary)"/>
<path fill-rule="evenodd" clip-rule="evenodd" d="M6 9C4.89543 9 4 9.89543 4 11V17C4 18.1046 4.89543 19 6 19H16C17.1046 19 18 18.1046 18 17V11C18 9.89543 17.1046 9 16 9H6ZM7 15C7.55228 15 8 14.5523 8 14C8 13.4477 7.55228 13 7 13C6.44772 13 6 13.4477 6 14C6 14.5523 6.44772 15 7 15ZM12 14C12 14.5523 11.5523 15 11 15C10.4477 15 10 14.5523 10 14C10 13.4477 10.4477 13 11 13C11.5523 13 12 13.4477 12 14ZM15 15C15.5523 15 16 14.5523 16 14C16 13.4477 15.5523 13 15 13C14.4477 13 14 13.4477 14 14C14 14.5523 14.4477 15 15 15Z" fill="var(--app-panel-icon-secondary)"/>
<path d="M35 43C35 43.5523 34.5523 44 34 44C33.4477 44 33 43.5523 33 43C33 42.4477 33.4477 42 34 42C34.5523 42 35 42.4477 35 43Z" fill="var(--app-panel-icon-primary)"/>
<path fill-rule="evenodd" clip-rule="evenodd" d="M25 9C23.8954 9 23 9.89543 23 11V17C23 18.1046 23.8954 19 25 19H35C36.1046 19 37 18.1046 37 17V11C37 9.89543 36.1046 9 35 9H25ZM26 15C26.5523 15 27 14.5523 27 14C27 13.4477 26.5523 13 26 13C25.4477 13 25 13.4477 25 14C25 14.5523 25.4477 15 26 15ZM31 14C31 14.5523 30.5523 15 30 15C29.4477 15 29 14.5523 29 14C29 13.4477 29.4477 13 30 13C30.5523 13 31 13.4477 31 14ZM34 15C34.5523 15 35 14.5523 35 14C35 13.4477 34.5523 13 34 13C33.4477 13 33 13.4477 33 14C33 14.5523 33.4477 15 34 15Z" fill="var(--app-panel-icon-secondary)"/>
<path fill-rule="evenodd" clip-rule="evenodd" d="M44 9C42.8954 9 42 9.89543 42 11V17C42 18.1046 42.8954 19 44 19H54C55.1046 19 56 18.1046 56 17V11C56 9.89543 55.1046 9 54 9H44ZM45 15C45.5523 15 46 14.5523 46 14C46 13.4477 45.5523 13 45 13C44.4477 13 44 13.4477 44 14C44 14.5523 44.4477 15 45 15ZM50 14C50 14.5523 49.5523 15 49 15C48.4477 15 48 14.5523 48 14C48 13.4477 48.4477 13 49 13C49.5523 13 50 13.4477 50 14ZM53 15C53.5523 15 54 14.5523 54 14C54 13.4477 53.5523 13 53 13C52.4477 13 52 13.4477 52 14C52 14.5523 52.4477 15 53 15Z" fill="var(--app-panel-icon-secondary)"/>
</svg>
