<svg viewBox="0 0 60 60" fill="none" xmlns="http://www.w3.org/2000/svg">
<path d="M19 38.2948V29.4551C19 27.9175 20.6628 26.955 21.9961 27.7208L29.1783 31.846C30.4713 32.5886 30.5262 34.434 29.2797 35.2523L22.0975 39.9668C20.7675 40.8398 19 39.8857 19 38.2948Z" fill="var(--app-panel-icon-color)"/>
<path fill-rule="evenodd" clip-rule="evenodd" d="M21 16C21 14.8954 21.8954 14 23 14H54C55.1046 14 56 14.8954 56 16V29.973C56 31.0775 55.1046 31.973 54 31.973H45V24C45 22.8954 44.1046 22 43 22H42V19C42 18.4477 41.5523 18 41 18C40.4477 18 40 18.4477 40 19V22H36V19C36 18.4477 35.5523 18 35 18C34.4477 18 34 18.4477 34 19V22H21V16Z" fill="var(--app-panel-icon-secondary)"/>
<path fill-rule="evenodd" clip-rule="evenodd" d="M30 6C29.2067 6 28.422 6.03853 27.6479 6.11387C27.0982 6.16736 26.6959 6.65634 26.7494 7.20603C26.8029 7.75572 27.2919 8.15796 27.8416 8.10446C28.5515 8.03538 29.2714 8 30 8C30.7286 8 31.4486 8.03538 32.1584 8.10446C32.7081 8.15796 33.1971 7.75572 33.2506 7.20603C33.3041 6.65634 32.9018 6.16736 32.3521 6.11387C31.578 6.03853 30.7933 6 30 6ZM36.9688 7.02766C36.4402 6.86753 35.8819 7.16619 35.7218 7.69475C35.5616 8.22331 35.8603 8.78161 36.3889 8.94174C37.7797 9.36312 39.1123 9.91859 40.3719 10.5932C40.8587 10.854 41.4648 10.6707 41.7256 10.1839C41.9863 9.69703 41.8031 9.09097 41.3162 8.83021C39.9418 8.09405 38.4872 7.48769 36.9688 7.02766ZM23.6111 8.94174C24.1397 8.78161 24.4384 8.22331 24.2782 7.69475C24.1181 7.16619 23.5598 6.86753 23.0312 7.02766C21.5128 7.48769 20.0582 8.09405 18.6838 8.83021C18.1969 9.09097 18.0137 9.69703 18.2744 10.1839C18.5352 10.6707 19.1413 10.854 19.6281 10.5932C20.8877 9.9186 22.2203 9.36312 23.6111 8.94174ZM13.5758 47.5H16.3689C16.4578 47.8063 16.3991 48.1497 16.1814 48.4147C15.8308 48.8415 15.2006 48.9032 14.7739 48.5526C14.3629 48.2149 13.9633 47.8638 13.5758 47.5ZM43.8972 11.5C44.2576 11.1518 44.8296 11.1217 45.2261 11.4474C45.2474 11.4649 45.2686 11.4824 45.2899 11.5H43.8972ZM10.3986 20H8.17644C8.38126 19.5537 8.59935 19.1148 8.83021 18.6838C9.09097 18.1969 9.69703 18.0137 10.1839 18.2744C10.6707 18.5352 10.854 19.1413 10.5932 19.6281C10.5272 19.7514 10.4623 19.8753 10.3986 20ZM16.0436 12.9927C16.4703 12.6421 16.532 12.012 16.1814 11.5853C15.8308 11.1585 15.2006 11.0968 14.7739 11.4474C13.5596 12.4451 12.4451 13.5596 11.4474 14.7739C11.0968 15.2006 11.1585 15.8308 11.5853 16.1814C12.012 16.532 12.6421 16.4703 12.9927 16.0436C13.9077 14.9299 14.9299 13.9077 16.0436 12.9927ZM52.9723 36.9688C53.1325 36.4402 52.8338 35.8819 52.3053 35.7218C51.7767 35.5616 51.2184 35.8603 51.0583 36.3889C50.6369 37.7797 50.0814 39.1123 49.4068 40.3719C49.146 40.8587 49.3293 41.4648 49.8161 41.7256C50.303 41.9863 50.909 41.8031 51.1698 41.3162C51.906 39.9418 52.5123 38.4872 52.9723 36.9688ZM48.5526 45.2261C48.9032 44.7994 48.8415 44.1692 48.4147 43.8186C47.988 43.468 47.3579 43.5297 47.0073 43.9564C46.0923 45.0701 45.0701 46.0923 43.9564 47.0073C43.5297 47.3579 43.468 47.988 43.8186 48.4147C44.1692 48.8415 44.7994 48.9032 45.2261 48.5526C46.4404 47.5549 47.5549 46.4404 48.5526 45.2261ZM19.6281 49.4068C19.1413 49.146 18.5352 49.3293 18.2744 49.8161C18.0137 50.303 18.1969 50.909 18.6838 51.1698C20.0582 51.906 21.5128 52.5123 23.0312 52.9723C23.5598 53.1325 24.1181 52.8338 24.2782 52.3053C24.4384 51.7767 24.1397 51.2184 23.6112 51.0583C22.2203 50.6369 20.8877 50.0814 19.6281 49.4068ZM41.3162 51.1698C41.8031 50.909 41.9863 50.303 41.7256 49.8161C41.4648 49.3293 40.8587 49.146 40.3719 49.4068C39.1123 50.0814 37.7797 50.6369 36.3889 51.0583C35.8603 51.2184 35.5616 51.7767 35.7218 52.3053C35.8819 52.8338 36.4402 53.1325 36.9688 52.9723C38.4872 52.5123 39.9418 51.906 41.3162 51.1698ZM27.8416 51.8955C27.2919 51.842 26.8029 52.2443 26.7494 52.794C26.6959 53.3437 27.0982 53.8326 27.6479 53.8861C28.422 53.9615 29.2067 54 30 54C30.7933 54 31.578 53.9615 32.3521 53.8861C32.9018 53.8326 33.3041 53.3437 33.2506 52.794C33.1971 52.2443 32.7081 51.842 32.1584 51.8955C31.4486 51.9646 30.7286 52 30 52C29.2714 52 28.5515 51.9646 27.8416 51.8955Z" fill="var(--app-panel-icon-secondary)"/>
<path fill-rule="evenodd" clip-rule="evenodd" d="M12 22H6C4.89543 22 4 22.8954 4 24V43C4 44.1046 4.89543 45 6 45H43C44.1046 45 45 44.1046 45 43V24C45 22.8954 44.1046 22 43 22H16V24H43V43H6L6 24H12V22Z" fill="var(--app-panel-icon-primary)"/>
</svg>
