<svg  viewBox="0 0 60 60" fill="none" xmlns="http://www.w3.org/2000/svg">
<path fill-rule="evenodd" clip-rule="evenodd" d="M40.5 30.5C40.1443 30.5 38.8241 30.4842 36.8879 30.461C27.9368 30.3538 5.82216 30.0889 5 30.5C5 39.5 8.95964 49.6452 25 48C44.5 46 48.5 31 48 31C47.9074 31 48.1065 30.9485 48.4925 30.8487C50.1898 30.4098 55.5 29.0368 55.5 27C55.5 26 50.8333 25.3333 49 25.5C48.1667 23.3333 46.5 19.5 45 20C43 21.5 44 28.5 44.5 29C44.5 29.5 42.5 30.5 40.5 30.5ZM24 38.5C24 39.8807 22.8807 41 21.5 41C20.1193 41 19 39.8807 19 38.5C19 37.1193 20.1193 36 21.5 36C22.8807 36 24 37.1193 24 38.5ZM11.0023 43.8573C12.5114 43.7269 15.4173 43.4758 18 42C19 44 21 46 24 47.5C16.5 47.5 15 47 10 44C10.1066 43.9347 10.4663 43.9036 11.0023 43.8573Z" fill="var(--app-panel-icon-color)"/>
<circle cx="21.5" cy="38.5" r="2.5" fill="white"/>
<path fill-rule="evenodd" clip-rule="evenodd" d="M18.3682 42.0038C18.6423 42.4834 18.4757 43.0942 17.9961 43.3682C16.083 44.4615 14.2798 44.8022 12.9141 44.9038C12.2676 44.9519 11.716 44.9463 11.3207 44.9422C11.3011 44.942 11.282 44.9418 11.2633 44.9417C11.0535 44.9396 10.9208 44.9394 10.8297 44.9444C10.8295 44.9445 10.8293 44.9445 10.8292 44.9445C10.3945 45.0964 9.89788 44.9312 9.64744 44.5226C9.3588 44.0518 9.50651 43.4361 9.97737 43.1474C10.1537 43.0393 10.3271 42.9993 10.4209 42.9815C10.5276 42.9613 10.632 42.9524 10.7182 42.9476C10.8878 42.9381 11.0908 42.9399 11.2829 42.9418C11.2985 42.9419 11.3143 42.9421 11.3302 42.9422C11.7264 42.9462 12.2051 42.951 12.7658 42.9093C13.9235 42.8232 15.417 42.5385 17.0039 41.6317C17.4834 41.3577 18.0942 41.5243 18.3682 42.0038Z" fill="var(--app-panel-icon-primary)"/>
<path fill-rule="evenodd" clip-rule="evenodd" d="M45.2529 20.9551C45.2527 20.9543 45.2575 20.9544 45.2678 20.9575C45.2582 20.9574 45.2531 20.9559 45.2529 20.9551ZM45.3972 21.0303C45.4248 21.0501 45.4567 21.0749 45.4933 21.106C45.7522 21.3259 46.0612 21.7188 46.3952 22.269C47.0546 23.355 47.6535 24.7848 48.0667 25.859L48.3379 26.5643L49.0905 26.4959C49.8795 26.4242 51.4031 26.5334 52.747 26.7942C53.416 26.924 53.9765 27.0795 54.347 27.2389C54.3596 27.2444 54.3718 27.2497 54.3835 27.2549C54.2767 27.4004 54.0762 27.6002 53.7051 27.8463C53.0646 28.2711 52.1706 28.6606 51.2281 28.9951C50.2975 29.3253 49.375 29.5827 48.7053 29.7598C48.5452 29.8021 48.3863 29.8432 48.2474 29.8792C48.1143 29.9137 47.9995 29.9434 47.9193 29.9649C47.8454 29.9847 47.7366 30.0142 47.6527 30.0455C47.6318 30.0533 47.576 30.0743 47.512 30.1086C47.483 30.1241 47.4135 30.1626 47.3369 30.2268L47.3346 30.2288C47.2912 30.265 47.0504 30.466 46.9904 30.8354C46.9637 31.0003 46.9772 31.1464 47.0142 31.2734C47.0062 31.3131 46.9959 31.36 46.9828 31.4145C46.8986 31.7646 46.7266 32.3055 46.4387 32.9847C45.8646 34.3389 44.8526 36.1888 43.2357 38.1051C40.0173 41.9195 34.3745 46.0333 24.898 47.0052C17.106 47.8044 12.4658 45.7315 9.74055 42.587C7.15684 39.6059 6.139 35.4877 6.01349 31.3884C6.22654 31.3767 6.47757 31.3658 6.76503 31.3559C7.73948 31.3222 9.08802 31.3007 10.6948 31.289C13.906 31.2657 18.1188 31.2812 22.3676 31.3125C27.8265 31.3526 33.3561 31.4188 36.8704 31.4608C38.8154 31.4841 40.1432 31.5 40.5 31.5C41.6529 31.5 42.7836 31.2152 43.6346 30.8606C44.0591 30.6837 44.4511 30.4742 44.7562 30.2453C44.9071 30.1322 45.0672 29.9917 45.199 29.8227C45.3177 29.6702 45.5 29.3841 45.5 29V28.5858L45.2991 28.3849C45.2873 28.3523 45.2725 28.3075 45.2552 28.2489C45.1978 28.0539 45.1331 27.7723 45.0706 27.4194C44.9461 26.7164 44.8418 25.7955 44.812 24.8438C44.7821 23.8859 44.8292 22.9399 44.9874 22.1699C45.1006 21.6186 45.2512 21.2541 45.3972 21.0303ZM45.3271 28.4528C45.3271 28.4532 45.3249 28.4491 45.3206 28.4395C45.3251 28.4477 45.3272 28.4524 45.3271 28.4528ZM5.28627 31.4534C5.28595 31.4533 5.29055 31.4521 5.30104 31.4502C5.29183 31.4525 5.28659 31.4535 5.28627 31.4534ZM47.0401 31.1093C47.0401 31.1102 47.04 31.1112 47.0399 31.1122L47.0401 31.1093ZM54.6448 27.4007C54.6447 27.4007 54.6439 27.4 54.6425 27.3986C54.6441 27.4 54.6448 27.4007 54.6448 27.4007ZM49.6707 24.4746C49.2628 23.4656 48.7187 22.2422 48.1048 21.231C47.7305 20.6145 47.2895 20.0075 46.788 19.5816C46.2948 19.1627 45.5449 18.7643 44.6838 19.0513L44.5298 19.1026L44.4 19.2C43.5952 19.8036 43.2199 20.8343 43.0283 21.7676C42.827 22.7476 42.7804 23.8641 42.813 24.9062C42.8457 25.9545 42.9601 26.9711 43.1013 27.7681C43.1697 28.1546 43.2472 28.5051 43.3298 28.7904C43.206 28.8605 43.0507 28.9372 42.8654 29.0144C42.2164 29.2848 41.3471 29.5 40.5 29.5C40.1455 29.5 38.8326 29.4843 36.9053 29.4612C33.4047 29.4192 27.877 29.3529 22.3824 29.3125C18.1312 29.2813 13.9065 29.2656 10.6802 29.2891C9.06823 29.3008 7.69802 29.3224 6.6959 29.3571C6.19637 29.3743 5.77704 29.3952 5.46065 29.4209C5.30371 29.4336 5.15829 29.4486 5.03489 29.4672L5.0296 29.468C4.95025 29.48 4.7411 29.5114 4.55279 29.6056L4 29.882V30.5C4 35.1138 5.00979 40.1823 8.22919 43.8969C11.4938 47.6637 16.8537 49.8408 25.102 48.9948C35.1255 47.9667 41.2327 43.5805 44.7643 39.3949C46.5224 37.3112 47.6354 35.2861 48.2801 33.7653C48.6015 33.007 48.8123 32.3604 48.9273 31.8823C48.937 31.842 48.9463 31.8018 48.9551 31.7619C49.0341 31.7413 49.1208 31.7186 49.2165 31.6933C49.9063 31.511 50.89 31.2372 51.8969 30.8799C52.8919 30.5269 53.9666 30.0727 54.8105 29.5131C55.5882 28.9974 56.5 28.1735 56.5 27C56.5 26.4585 56.183 26.087 55.9505 25.8857C55.7087 25.6762 55.4138 25.5206 55.1373 25.4017C54.5756 25.16 53.8548 24.9718 53.128 24.8308C51.9925 24.6105 50.6856 24.4764 49.6707 24.4746ZM48 30C48.0013 30 48.0085 29.9999 48.0203 30.0002C48.0136 30.0001 48.0068 30 48 30Z" fill="var(--app-panel-icon-primary)"/>
<path d="M23 38.5C23 39.3284 22.3284 40 21.5 40C20.6716 40 20 39.3284 20 38.5C20 37.6716 20.6716 37 21.5 37C22.3284 37 23 37.6716 23 38.5Z" fill="#222222"/>
<path d="M7 24C7 22.8954 7.89543 22 9 22H11C12.1046 22 13 22.8954 13 24V26C13 27.1046 12.1046 28 11 28H9C7.89543 28 7 27.1046 7 26V24Z" fill="var(--app-panel-icon-secondary)"/>
<path d="M14 24C14 22.8954 14.8954 22 16 22H18C19.1046 22 20 22.8954 20 24V26C20 27.1046 19.1046 28 18 28H16C14.8954 28 14 27.1046 14 26V24Z" fill="var(--app-panel-icon-secondary)"/>
<path d="M14 17C14 15.8954 14.8954 15 16 15H18C19.1046 15 20 15.8954 20 17V19C20 20.1046 19.1046 21 18 21H16C14.8954 21 14 20.1046 14 19V17Z" fill="var(--app-panel-icon-secondary)"/>
<path d="M21 24C21 22.8954 21.8954 22 23 22H25C26.1046 22 27 22.8954 27 24V26C27 27.1046 26.1046 28 25 28H23C21.8954 28 21 27.1046 21 26V24Z" fill="var(--app-panel-icon-color)"/>
<path d="M21 17C21 15.8954 21.8954 15 23 15H25C26.1046 15 27 15.8954 27 17V19C27 20.1046 26.1046 21 25 21H23C21.8954 21 21 20.1046 21 19V17Z" fill="var(--app-panel-icon-color)"/>
<path d="M28 24C28 22.8954 28.8954 22 30 22H32C33.1046 22 34 22.8954 34 24V26C34 27.1046 33.1046 28 32 28H30C28.8954 28 28 27.1046 28 26V24Z" fill="var(--app-panel-icon-color)"/>
<path d="M28 17C28 15.8954 28.8954 15 30 15H32C33.1046 15 34 15.8954 34 17V19C34 20.1046 33.1046 21 32 21H30C28.8954 21 28 20.1046 28 19V17Z" fill="var(--app-panel-icon-secondary)"/>
<path d="M35 24C35 22.8954 35.8954 22 37 22H39C40.1046 22 41 22.8954 41 24V26C41 27.1046 40.1046 28 39 28H37C35.8954 28 35 27.1046 35 26V24Z" fill="var(--app-panel-icon-secondary)"/>
<path d="M28 10C28 8.89543 28.8954 8 30 8H32C33.1046 8 34 8.89543 34 10V12C34 13.1046 33.1046 14 32 14H30C28.8954 14 28 13.1046 28 12V10Z" fill="var(--app-panel-icon-secondary)"/>
</svg>
