<svg viewBox="0 0 60 60" fill="none" xmlns="http://www.w3.org/2000/svg">
<path d="M21 17C21 15.8954 21.8954 15 23 15H52C53.1046 15 54 15.8954 54 17V22C54 23.1046 53.1046 24 52 24H23C21.8954 24 21 23.1046 21 22V17Z" fill="var(--app-panel-icon-color)"/>
<path fill-rule="evenodd" clip-rule="evenodd" d="M7 10C7.55228 10 8 10.4477 8 11V18C8 18.5523 8.44772 19 9 19H25.5C26.0523 19 26.5 19.4477 26.5 20C26.5 20.5523 26.0523 21 25.5 21H9C7.34315 21 6 19.6569 6 18V11C6 10.4477 6.44772 10 7 10Z" fill="var(--app-panel-icon-primary)"/>
<path d="M27 30C27 28.8954 27.8954 28 29 28H52C53.1046 28 54 28.8954 54 30V31C54 32.1046 53.1046 33 52 33H29C27.8954 33 27 32.1046 27 31V30Z" fill="var(--app-panel-icon-secondary)"/>
<path fill-rule="evenodd" clip-rule="evenodd" d="M14 24.5C14.5523 24.5 15 24.9477 15 25.5V29C15 29.5523 15.4477 30 16 30H32.5C33.0523 30 33.5 30.4477 33.5 31C33.5 31.5523 33.0523 32 32.5 32H16C14.3431 32 13 30.6569 13 29V25.5C13 24.9477 13.4477 24.5 14 24.5Z" fill="var(--app-panel-icon-secondary)"/>
<path d="M27 39C27 37.8954 27.8954 37 29 37H52C53.1046 37 54 37.8954 54 39V40C54 41.1046 53.1046 42 52 42H29C27.8954 42 27 41.1046 27 40V39Z" fill="var(--app-panel-icon-secondary)"/>
<path d="M27 48C27 46.8954 27.8954 46 29 46H43C44.1046 46 45 46.8954 45 48V49C45 50.1046 44.1046 51 43 51H29C27.8954 51 27 50.1046 27 49V48Z" fill="var(--app-panel-icon-color)"/>
<path fill-rule="evenodd" clip-rule="evenodd" d="M14 20C14.5523 20 15 20.4477 15 21V38C15 38.5523 15.4477 39 16 39H32.5C33.0523 39 33.5 39.4477 33.5 40C33.5 40.5523 33.0523 41 32.5 41H16C14.3431 41 13 39.6569 13 38V21C13 20.4477 13.4477 20 14 20Z" fill="var(--app-panel-icon-primary)"/>
<path fill-rule="evenodd" clip-rule="evenodd" d="M7 18C7.55228 18 8 18.4477 8 19V47C8 47.5523 8.44772 48 9 48H32.5C33.0523 48 33.5 48.4477 33.5 49C33.5 49.5523 33.0523 50 32.5 50H9C7.34315 50 6 48.6569 6 47V19C6 18.4477 6.44772 18 7 18Z" fill="var(--app-panel-icon-primary)"/>
<path d="M49 48C49 46.8954 49.8954 46 51 46H52C53.1046 46 54 46.8954 54 48V49C54 50.1046 53.1046 51 52 51H51C49.8954 51 49 50.1046 49 49V48Z" fill="var(--app-panel-icon-color)"/>
</svg>
