<svg  viewBox="0 0 60 60" fill="none" xmlns="http://www.w3.org/2000/svg">
<path fill-rule="evenodd" clip-rule="evenodd" d="M31.7487 28.7494L31.4151 29.0759C30.9512 29.0258 30.4791 29 30 29C29.4218 29 28.8539 29.0376 28.2983 29.11L28.1043 27.6226L27.7162 24.6478L27.5222 23.1604C28.3345 23.0545 29.1616 23 30 23C30.8384 23 31.6655 23.0545 32.4778 23.1604L32.2838 24.6478L31.8957 27.6226L31.7487 28.7494ZM40.7286 34.6559L41.4593 33.2086L41.505 33.1734L43.8838 31.3455L45.0732 30.4315C46.0771 31.738 46.9159 33.18 47.5571 34.7262L46.1715 35.3008L43.4003 36.45L42.0147 37.0246C41.6679 36.1881 41.2357 35.3948 40.7286 34.6559ZM22.0874 31.6844C22.9829 30.9962 23.9693 30.4229 25.0246 29.9853L24.45 28.5997L23.3008 25.8285L22.7262 24.4429C21.18 25.0841 19.738 25.9229 18.4315 26.9268L19.3455 28.1162L21.1734 30.495L22.0874 31.6844ZM17.9853 37.0246C18.4229 35.9693 18.9962 34.9829 19.6844 34.0874L18.495 33.1734L16.1162 31.3455L14.9269 30.4315C13.9229 31.738 13.0841 33.1799 12.4429 34.7262L13.8285 35.3008L16.5997 36.45L17.9853 37.0246ZM17 42C17 41.4218 17.0376 40.8539 17.11 40.2983L15.6226 40.1043L12.6478 39.7162L11.1604 39.5222C11.0545 40.3345 11 41.1616 11 42H12.5H15.5H17ZM42.89 40.2983C42.9624 40.8539 43 41.4218 43 42H44.5H47.5H49C49 41.1616 48.9455 40.3345 48.8396 39.5222L47.3522 39.7162L44.3774 40.1043L42.89 40.2983Z" fill="var(--app-panel-icon-secondary)"/>
<path d="M27.2275 43.9555C29.4652 45.5937 32.5702 45.1581 34.1629 42.9826L46.8746 18.5768C47.406 17.5566 46.0774 16.5933 45.273 17.4154L26.0597 37.0503C24.467 39.2258 24.9899 42.3174 27.2275 43.9555Z" fill="var(--app-panel-icon-color)"/>
<path fill-rule="evenodd" clip-rule="evenodd" d="M36.4703 24.1301C34.4508 23.3988 32.272 23 30 23C19.5066 23 11 31.5066 11 42H9C9 30.402 18.402 21 30 21C32.8481 21 35.5637 21.567 38.0402 22.5942L36.4703 24.1301ZM43.6785 28.8129C46.9735 32.2299 49 36.8783 49 42H51C51 36.0892 48.558 30.7488 44.6279 26.9326L43.6785 28.8129Z" fill="var(--app-panel-icon-primary)"/>
<path fill-rule="evenodd" clip-rule="evenodd" d="M37.6507 22.9753C35.2867 22.0237 32.7045 21.5 30 21.5C18.6782 21.5 9.5 30.6782 9.5 42H6.5C6.5 29.0213 17.0213 18.5 30 18.5C33.5624 18.5 36.9396 19.2926 39.9649 20.7112L37.6507 22.9753ZM44.3915 27.4008C48.1624 31.1185 50.5 36.2863 50.5 42H53.5C53.5 35.1058 50.5312 28.905 45.8024 24.6063L44.3915 27.4008Z" fill="var(--app-panel-icon-color)"/>
<path fill-rule="evenodd" clip-rule="evenodd" d="M6 14C6 13.4477 6.44772 13 7 13H21C21.5523 13 22 13.4477 22 14C22 14.5523 21.5523 15 21 15H7C6.44772 15 6 14.5523 6 14Z" fill="var(--app-panel-icon-secondary)"/>
<path fill-rule="evenodd" clip-rule="evenodd" d="M38 47C38 46.4477 38.4477 46 39 46H53C53.5523 46 54 46.4477 54 47C54 47.5523 53.5523 48 53 48H39C38.4477 48 38 47.5523 38 47Z" fill="var(--app-panel-icon-secondary)"/>
<path fill-rule="evenodd" clip-rule="evenodd" d="M6 19C6 18.4477 6.44772 18 7 18H13C13.5523 18 14 18.4477 14 19C14 19.5523 13.5523 20 13 20H7C6.44772 20 6 19.5523 6 19Z" fill="var(--app-panel-icon-secondary)"/>
</svg>
