<svg viewBox="0 0 60 60" fill="none" xmlns="http://www.w3.org/2000/svg">
<path fill-rule="evenodd" clip-rule="evenodd" d="M32.3648 17.1013L42.8844 37.0332C43.1422 37.5217 42.9552 38.1266 42.4668 38.3844C41.9783 38.6422 41.3734 38.4552 41.1156 37.9668L32.6352 21.8987L23.9705 44.042L9.93079 34.3222C9.4767 34.0078 9.36344 33.3849 9.67781 32.9308C9.99217 32.4767 10.6151 32.3634 11.0692 32.6778L23.0295 40.958L32.3648 17.1013Z" fill="var(--app-panel-icon-color)"/>
<path d="M14 33.5C14 35.433 12.433 37 10.5 37C8.567 37 7 35.433 7 33.5C7 31.567 8.567 30 10.5 30C12.433 30 14 31.567 14 33.5Z" fill="var(--app-panel-icon-color)"/>
<path fill-rule="evenodd" clip-rule="evenodd" d="M13 13H44V51H13V38.4003C12.3904 38.7119 11.7149 38.9132 11 38.9776V51C11 52.1046 11.8954 53 13 53H44C45.1046 53 46 52.1046 46 51V13C46 11.8954 45.1046 11 44 11H13C11.8954 11 11 11.8954 11 13V28.0224C11.7149 28.0868 12.3904 28.2881 13 28.5997V13Z" fill="var(--app-panel-icon-primary)"/>
<path d="M37 19.5C37 21.9853 34.9853 24 32.5 24C30.0147 24 28 21.9853 28 19.5C28 17.0147 30.0147 15 32.5 15C34.9853 15 37 17.0147 37 19.5Z" fill="var(--app-panel-icon-color)"/>
<path d="M47.1323 37.4762C47.1323 40.2376 44.8938 42.4762 42.1323 42.4762C39.3709 42.4762 37.1323 40.2376 37.1323 37.4762C37.1323 34.7147 39.3709 32.4762 42.1323 32.4762C44.8938 32.4762 47.1323 34.7147 47.1323 37.4762Z" fill="var(--app-panel-icon-color)"/>
<path d="M28 42.5C28 44.9853 25.9853 47 23.5 47C21.0147 47 19 44.9853 19 42.5C19 40.0147 21.0147 38 23.5 38C25.9853 38 28 40.0147 28 42.5Z" fill="var(--app-panel-icon-color)"/>
<path fill-rule="evenodd" clip-rule="evenodd" d="M20 9C20 7.89543 20.8954 7 22 7H51C52.1046 7 53 7.89543 53 9V17.101C51.7295 15.8045 49.9587 15 48 15C47.305 15 46.6337 15.1013 46 15.2899V13C46 11.8954 45.1046 11 44 11H20V9ZM46 28.7101V47H51C52.1046 47 53 46.1046 53 45V26.899C51.7295 28.1955 49.9587 29 48 29C47.305 29 46.6337 28.8987 46 28.7101Z" fill="var(--app-panel-icon-secondary)"/>
<path fill-rule="evenodd" clip-rule="evenodd" d="M15 17C15 16.4477 15.4477 16 16 16H24C24.5523 16 25 16.4477 25 17C25 17.5523 24.5523 18 24 18H16C15.4477 18 15 17.5523 15 17Z" fill="var(--app-panel-icon-secondary)"/>
<path fill-rule="evenodd" clip-rule="evenodd" d="M15 21C15 20.4477 15.4477 20 16 20H22C22.5523 20 23 20.4477 23 21C23 21.5523 22.5523 22 22 22H16C15.4477 22 15 21.5523 15 21Z" fill="var(--app-panel-icon-secondary)"/>
<path fill-rule="evenodd" clip-rule="evenodd" d="M34 47C34 46.4477 34.4477 46 35 46H41C41.5523 46 42 46.4477 42 47C42 47.5523 41.5523 48 41 48H35C34.4477 48 34 47.5523 34 47Z" fill="var(--app-panel-icon-secondary)"/>
<path d="M44 28H46V45H44V28Z" fill="var(--app-panel-icon-primary)"/>
</svg>
