<svg  viewBox="0 0 60 60" fill="none" xmlns="http://www.w3.org/2000/svg">
<path d="M27.587 48C37.5153 48 36.8957 43.7041 36.8957 43.7041L36.8835 39.2533H27.4098V37.918H40.6476C40.6476 37.918 47 38.6375 47 28.6421C47 18.6467 41.4554 19.0016 41.4554 19.0016H38.1459V23.6389C38.1459 23.6389 38.3244 29.1713 32.6893 29.1713H23.2938C23.2938 29.1713 18.0144 29.086 18.0144 34.2623V42.8212C18.0144 42.8212 17.2127 48 27.587 48ZM32.8115 45.0076C32.5875 45.0079 32.3657 44.9641 32.1587 44.8788C31.9517 44.7934 31.7636 44.6681 31.6053 44.5101C31.4469 44.3521 31.3213 44.1644 31.2358 43.9579C31.1502 43.7514 31.1063 43.53 31.1067 43.3065C31.1067 42.3676 31.8692 41.6067 32.8115 41.6067C33.7537 41.6067 34.5163 42.3664 34.5163 43.3065C34.5163 44.2479 33.7537 45.0076 32.8115 45.0076Z" fill="var(--app-panel-icon-secondary)"/>
<path fill-rule="evenodd" clip-rule="evenodd" d="M33.1904 23.1538C38.0001 18.45 44.9174 14.997 49.6962 13.5815L50.9459 13.2113L50.9799 14.5142C51.0878 18.6501 51.413 21.4932 51.7042 24.0391C51.7599 24.5259 51.8143 25.0018 51.8657 25.4739C52.1884 28.4355 52.3874 31.2072 52.0105 35.3911C51.8951 36.6711 51.2915 38.041 50.4267 39.3249C49.5527 40.6225 48.366 41.901 46.9877 43.0036C44.5855 44.9253 41.4751 46.4074 38.3016 46.3843C38.3258 46.6538 38.3451 46.9311 38.3634 47.2042C38.3668 47.2535 38.37 47.3027 38.3733 47.3519C38.4017 47.7759 38.4296 48.1945 38.471 48.6049C38.5674 49.5596 38.7228 50.2736 38.9793 50.6964C39.2658 51.1686 39.1152 51.7836 38.6431 52.0701C38.1709 52.3565 37.5559 52.206 37.2694 51.7338C36.7568 50.889 36.578 49.7655 36.4811 48.8057C36.4361 48.3593 36.4058 47.9057 36.3778 47.4862C36.3745 47.4364 36.3712 47.3871 36.368 47.3383C36.3381 46.8939 36.3093 46.4979 36.2668 46.1531C33.7313 45.5804 31.3704 43.9165 29.5027 40.8381C27.5029 37.5418 27.1763 34.2879 28.0138 31.2442C28.8409 28.2381 30.7814 25.5098 33.1904 23.1538ZM29.9421 31.7748C29.2521 34.2826 29.4952 36.9699 31.2126 39.8007C32.9935 42.7359 35.1439 44.0019 37.2808 44.3077C40.1425 44.7173 43.2449 43.4366 45.7383 41.4419C46.9722 40.4548 48.0166 39.3231 48.7679 38.2076C49.5285 37.0785 49.9446 36.0326 50.0185 35.2116C50.3797 31.2027 50.1915 28.5721 49.8775 25.6905C49.8272 25.2287 49.7735 24.7596 49.7182 24.2768C49.4952 22.3282 49.2469 20.1585 49.0929 17.3574C47.2545 19.8763 45.1912 23.0357 43.3453 26.4504C43.0827 26.9362 42.4759 27.1171 41.9901 26.8545C41.5042 26.5919 41.3233 25.9851 41.5859 25.4993C43.3766 22.1867 45.3652 19.1104 47.1743 16.5965C43.0489 18.2802 38.17 21.0813 34.5888 24.5837C32.3266 26.796 30.6425 29.2294 29.9421 31.7748ZM40.9682 28.889C41.47 29.1198 41.6896 29.7136 41.4588 30.2154C40.9928 31.2286 40.5584 32.2495 40.1655 33.269C39.9669 33.7843 39.3882 34.0411 38.8728 33.8425C38.3575 33.644 38.1007 33.0652 38.2993 32.5499C38.7088 31.487 39.16 30.4272 39.6418 29.3796C39.8726 28.8778 40.4665 28.6582 40.9682 28.889Z" fill="var(--app-panel-icon-primary)"/>
<path d="M27.413 9C17.4847 9 18.1043 13.2958 18.1043 13.2958L18.1165 17.7464H27.5902V19.0815H14.3512C14.3512 19.0815 8 18.3621 8 28.3583C8 38.3521 13.5446 37.9985 13.5446 37.9985H16.8541V33.3601C16.8541 33.3601 16.6756 27.8279 22.3107 27.8279H31.7062C31.7062 27.8279 36.9856 27.9133 36.9856 22.7371V14.1786C36.9856 14.1786 37.7873 9 27.413 9ZM22.1885 11.9923C23.1308 11.9923 23.8933 12.7531 23.8933 13.6933C23.8933 14.6334 23.1308 15.3942 22.1885 15.3942C21.9645 15.3946 21.7427 15.3508 21.5357 15.2654C21.3287 15.18 21.1407 15.0548 20.9823 14.8968C20.8239 14.7387 20.6984 14.5511 20.6128 14.3446C20.5272 14.1381 20.4834 13.9167 20.4837 13.6933C20.4837 12.7531 21.2463 11.9923 22.1885 11.9923Z" fill="var(--app-panel-icon-color)"/>
</svg>
