<svg viewBox="0 0 60 60" fill="none" xmlns="http://www.w3.org/2000/svg">
<path fill-rule="evenodd" clip-rule="evenodd" d="M14.9097 28H12.054C12.0182 27.5047 12 27.0045 12 26.5C12 15.1782 21.1782 6 32.5 6C37.0558 6 41.2645 7.48611 44.6678 10H41L34.5 13H26C24.3431 13 23 14.3431 23 16C23 17.6569 24.3431 19 26 19V21H22C20.8954 21 20 21.8954 20 23V31H14.9097V28ZM32 21H36C37.1046 21 38 21.8954 38 23V31H44V28H52V31H52.5045C52.8289 29.5519 53 28.0459 53 26.5C53 22.4229 51.8098 18.6239 49.7579 15.4313C49.2639 15.7891 48.6566 16 48 16H41L34.5 19H32V21Z" fill="var(--app-panel-icon-secondary)"/>
<path d="M13 30L13 52L9 52L9 30L13 30Z" fill="var(--app-panel-icon-secondary)"/>
<path d="M50 30L50 52L46 52L46 30L50 30Z" fill="var(--app-panel-icon-secondary)"/>
<path d="M2 36C2 35.4477 2.44772 35 3 35H29C29.5523 35 30 35.4477 30 36V46C30 46.5523 29.5523 47 29 47H3C2.44771 47 2 46.5523 2 46V36Z" fill="var(--app-panel-icon-color)"/>
<path d="M27 40C27 38.8954 27.8954 38 29 38H56C57.1046 38 58 38.8954 58 40V42C58 43.1046 57.1046 44 56 44H29C27.8954 44 27 43.1046 27 42V40Z" fill="var(--app-panel-icon-color)"/>
<path fill-rule="evenodd" clip-rule="evenodd" d="M12.9097 31V33H14.9097H20H22V31V23L36 23V31V33H38H44H46V31V30H50V31V33H52H54H56V31H54H52V30V29V28H50H46H44V29V30V31H42H40H38V29V23C38 21.8954 37.1046 21 36 21H22C20.8954 21 20 21.8954 20 23V29V31H18H16.9097H14.9097V30V29V28H12.9097H9H7V29V30V31H6H5H4V33H6H7H9V31V30H12.9097V31ZM4 49V51H5H6H7V52V53V54H9H13H15V53V52V51H17H19V52C19 53.1046 19.8954 54 21 54H37C38.1046 54 39 53.1046 39 52V51H41H42H44V52V53V54H46H50H52V53V52V51H54H56V49H54H52H50V51V52H46V51V49H44H39H37V51V52H21V51V49H19H15H13V51V52H9V51V49H7H6H4Z" fill="var(--app-panel-icon-primary)"/>
<path fill-rule="evenodd" clip-rule="evenodd" d="M34.9393 15H26C25.4477 15 25 15.4477 25 16C25 16.5523 25.4477 17 26 17H34.0607L40.5607 14H48C48.5523 14 49 13.5523 49 13C49 12.4477 48.5523 12 48 12H41.4393L34.9393 15ZM41 10L34.5 13H26C24.3431 13 23 14.3431 23 16C23 17.6569 24.3431 19 26 19H34.5L41 16H48C49.6569 16 51 14.6569 51 13C51 11.3431 49.6569 10 48 10H41Z" fill="var(--app-panel-icon-primary)"/>
<path d="M30 19H32V21H30V19Z" fill="var(--app-panel-icon-primary)"/>
<path d="M26 19H28V21H26V19Z" fill="var(--app-panel-icon-primary)"/>
</svg>
