<svg viewBox="0 0 60 60" fill="none" xmlns="http://www.w3.org/2000/svg">
<path d="M11.7743 10.645L5 18H55L48.7566 10.7001C48.3767 10.2558 47.8213 10 47.2367 10H13.2454C12.6864 10 12.153 10.2339 11.7743 10.645Z" fill="var(--app-panel-icon-secondary)"/>
<path d="M7.08333 27L5 30H55L52.9167 27H7.08333Z" fill="var(--app-panel-icon-secondary)"/>
<path d="M7.08333 39L5 42H55L52.9167 39H7.08333Z" fill="var(--app-panel-icon-secondary)"/>
<path fill-rule="evenodd" clip-rule="evenodd" d="M53 31H7V37H53V31ZM7 29C5.89543 29 5 29.8954 5 31V37C5 38.1046 5.89543 39 7 39H53C54.1046 39 55 38.1046 55 37V31C55 29.8954 54.1046 29 53 29H7Z" fill="var(--app-panel-icon-primary)"/>
<path d="M5 43C5 41.8954 5.89543 41 7 41H53C54.1046 41 55 41.8954 55 43V49C55 50.1046 54.1046 51 53 51H7C5.89543 51 5 50.1046 5 49V43Z" fill="var(--app-panel-icon-color)"/>
<path fill-rule="evenodd" clip-rule="evenodd" d="M53 43H7V49H53V43ZM7 41C5.89543 41 5 41.8954 5 43V49C5 50.1046 5.89543 51 7 51H53C54.1046 51 55 50.1046 55 49V43C55 41.8954 54.1046 41 53 41H7Z" fill="var(--app-panel-icon-primary)"/>
<path fill-rule="evenodd" clip-rule="evenodd" d="M53 31H7V37H53V31ZM41 35C41.5523 35 42 34.5523 42 34C42 33.4477 41.5523 33 41 33C40.4477 33 40 33.4477 40 34C40 34.5523 40.4477 35 41 35ZM46 34C46 34.5523 45.5523 35 45 35C44.4477 35 44 34.5523 44 34C44 33.4477 44.4477 33 45 33C45.5523 33 46 33.4477 46 34ZM49 35C49.5523 35 50 34.5523 50 34C50 33.4477 49.5523 33 49 33C48.4477 33 48 33.4477 48 34C48 34.5523 48.4477 35 49 35Z" fill="var(--app-panel-icon-color)"/>
<rect x="6" y="18" width="48" height="8" fill="white" fill-opacity="0.35"/>
<path d="M42 22C42 22.5523 41.5523 23 41 23C40.4477 23 40 22.5523 40 22C40 21.4477 40.4477 21 41 21C41.5523 21 42 21.4477 42 22Z" fill="var(--app-panel-icon-primary)"/>
<path d="M46 22C46 22.5523 45.5523 23 45 23C44.4477 23 44 22.5523 44 22C44 21.4477 44.4477 21 45 21C45.5523 21 46 21.4477 46 22Z" fill="var(--app-panel-icon-primary)"/>
<path d="M50 22C50 22.5523 49.5523 23 49 23C48.4477 23 48 22.5523 48 22C48 21.4477 48.4477 21 49 21C49.5523 21 50 21.4477 50 22Z" fill="var(--app-panel-icon-primary)"/>
<path d="M42 46C42 46.5523 41.5523 47 41 47C40.4477 47 40 46.5523 40 46C40 45.4477 40.4477 45 41 45C41.5523 45 42 45.4477 42 46Z" fill="var(--app-panel-icon-primary)"/>
<path d="M46 46C46 46.5523 45.5523 47 45 47C44.4477 47 44 46.5523 44 46C44 45.4477 44.4477 45 45 45C45.5523 45 46 45.4477 46 46Z" fill="var(--app-panel-icon-primary)"/>
<path d="M50 46C50 46.5523 49.5523 47 49 47C48.4477 47 48 46.5523 48 46C48 45.4477 48.4477 45 49 45C49.5523 45 50 45.4477 50 46Z" fill="var(--app-panel-icon-primary)"/>
<path fill-rule="evenodd" clip-rule="evenodd" d="M18 17H7C5.89543 17 5 17.8954 5 19V25C5 26.1046 5.89543 27 7 27H53C54.1046 27 55 26.1046 55 25V19C55 17.8954 54.1046 17 53 17H22V19H53V25H7V19H18V17Z" fill="var(--app-panel-icon-primary)"/>
</svg>
