<svg viewBox="0 0 60 60" fill="none" xmlns="http://www.w3.org/2000/svg">
<path fill-rule="evenodd" clip-rule="evenodd" d="M7 13C7.55228 13 8 13.4477 8 14V48C8 48.5523 8.44772 49 9 49H53C53.5523 49 54 49.4477 54 50C54 50.5523 53.5523 51 53 51H9C7.34314 51 6 49.6569 6 48V14C6 13.4477 6.44772 13 7 13Z" fill="var(--app-panel-icon-primary)"/>
<path d="M12 23C12 21.8954 12.8954 21 14 21H17C18.1046 21 19 21.8954 19 23V47C19 48.1046 18.1046 49 17 49H14C12.8954 49 12 48.1046 12 47V23Z" fill="var(--app-panel-icon-secondary)"/>
<path d="M25 19C25 17.8954 25.8954 17 27 17H44C45.1046 17 46 17.8954 46 19V47C46 48.1046 45.1046 49 44 49H27C25.8954 49 25 48.1046 25 47V19Z" fill="var(--app-panel-icon-secondary)"/>
<path d="M42 25C42 23.8954 42.8954 23 44 23H47C48.1046 23 49 23.8954 49 25V47C49 48.1046 48.1046 49 47 49H44C42.8954 49 42 48.1046 42 47V25Z" fill="var(--app-panel-icon-color)"/>
<path d="M22 31C22 29.8954 22.8954 29 24 29H27C28.1046 29 29 29.8954 29 31V47C29 48.1046 28.1046 49 27 49H24C22.8954 49 22 48.1046 22 47V31Z" fill="var(--app-panel-icon-color)"/>
<path d="M32 34C32 32.8954 32.8954 32 34 32H37C38.1046 32 39 32.8954 39 34V47C39 48.1046 38.1046 49 37 49H34C32.8954 49 32 48.1046 32 47V34Z" fill="var(--app-panel-icon-color)"/>
<path d="M8 10C8 10.5523 7.55228 11 7 11C6.44772 11 6 10.5523 6 10C6 9.44772 6.44772 9 7 9C7.55228 9 8 9.44772 8 10Z" fill="var(--app-panel-icon-primary)"/>
</svg>
