<svg viewBox="0 0 60 60" fill="none" xmlns="http://www.w3.org/2000/svg">
<rect x="8" y="26" width="45" height="25" fill="white" fill-opacity="0.91"/>
<path fill-rule="evenodd" clip-rule="evenodd" d="M53 26H8L8 51H53V26ZM8 24C6.89543 24 6 24.8954 6 26V51C6 52.1046 6.89543 53 8 53H53C54.1046 53 55 52.1046 55 51V26C55 24.8954 54.1046 24 53 24H8Z" fill="var(--app-panel-icon-primary)"/>
<path fill-rule="evenodd" clip-rule="evenodd" d="M42 42V35H38.7592C38.5908 36.8688 37.0202 38.3333 35.1075 38.3333H24.8925C22.9798 38.3333 21.4092 36.8688 21.2408 35H18V42H42ZM18 33C16.8954 33 16 33.8954 16 35V42C16 43.1046 16.8954 44 18 44H42C43.1046 44 44 43.1046 44 42V35C44 33.8954 43.1046 33 42 33H38.4409C37.5204 33 36.7742 33.7462 36.7742 34.6667C36.7742 35.5871 36.028 36.3333 35.1075 36.3333H24.8925C23.972 36.3333 23.2258 35.5871 23.2258 34.6667C23.2258 33.7462 22.4796 33 21.5591 33H18Z" fill="#222222"/>
<path fill-rule="evenodd" clip-rule="evenodd" d="M15 9C13.8954 9 13 9.89543 13 11V18C13 19.1046 13.8954 20 15 20H46C47.1046 20 48 19.1046 48 18V14C48 12.8954 47.1046 12 46 12H29.8284C29.298 12 28.7893 11.7893 28.4142 11.4142L26.5858 9.58579C26.2107 9.21071 25.702 9 25.1716 9H15ZM16 13C16.5523 13 17 12.5523 17 12C17 11.4477 16.5523 11 16 11C15.4477 11 15 11.4477 15 12C15 12.5523 15.4477 13 16 13ZM21 12C21 12.5523 20.5523 13 20 13C19.4477 13 19 12.5523 19 12C19 11.4477 19.4477 11 20 11C20.5523 11 21 11.4477 21 12ZM24 13C24.5523 13 25 12.5523 25 12C25 11.4477 24.5523 11 24 11C23.4477 11 23 11.4477 23 12C23 12.5523 23.4477 13 24 13Z" fill="var(--app-panel-icon-secondary)"/>
<path fill-rule="evenodd" clip-rule="evenodd" d="M11 15C9.89543 15 9 15.8954 9 17V24C9 25.1046 9.89543 26 11 26H50C51.1046 26 52 25.1046 52 24V20C52 18.8954 51.1046 18 50 18H26.3284C25.798 18 25.2893 17.7893 24.9142 17.4142L23.0858 15.5858C22.7107 15.2107 22.202 15 21.6716 15H11ZM12 19C12.5523 19 13 18.5523 13 18C13 17.4477 12.5523 17 12 17C11.4477 17 11 17.4477 11 18C11 18.5523 11.4477 19 12 19ZM17 18C17 18.5523 16.5523 19 16 19C15.4477 19 15 18.5523 15 18C15 17.4477 15.4477 17 16 17C16.5523 17 17 17.4477 17 18ZM20 19C20.5523 19 21 18.5523 21 18C21 17.4477 20.5523 17 20 17C19.4477 17 19 17.4477 19 18C19 18.5523 19.4477 19 20 19Z" fill="var(--app-panel-icon-color)"/>
</svg>
