<svg xmlns="http://www.w3.org/2000/svg" xmlns:xlink="http://www.w3.org/1999/xlink" version="1.1" width="162" height="26" viewBox="0 0 162 26"><clipPath id="master_svg0_77_239"><rect x="0" y="0" width="162" height="26" rx="0"/></clipPath><g clip-path="url(#master_svg0_77_239)"><g><path d="M13.1819,0.0588709C13.1298,0.0204051,13.0667,-0.00037028,13.0019,-0.00037028C12.937,-0.00037028,12.8739,0.0204051,12.8218,0.0588709L0.178626,10.2147C0.0729999,10.3112,0.00929364,10.4448,0.000991426,10.5872L0.000991426,15.4128C0.00924244,15.5554,0.0733582,15.6891,0.179597,15.7853L12.8218,25.9392C12.8734,25.9778,12.9363,25.9987,13.0009,25.9987C13.0655,25.9987,13.1283,25.9778,13.18,25.9392L25.8241,15.7853C25.9304,15.6893,25.9943,15.5554,26.0018,15.4128L26.0018,10.5872C25.9934,10.4439,25.9286,10.3097,25.8212,10.2137L13.1819,0.0588709ZM13.1421,16.1106L16.0212,13.7943C16.073,13.7557,16.136,13.7349,16.2007,13.7349C16.2654,13.7349,16.3285,13.7557,16.3803,13.7943L18.2761,15.323C18.2993,15.3394,18.3182,15.3611,18.3314,15.3864C18.3444,15.4115,18.3512,15.4394,18.3512,15.4678C18.3512,15.4961,18.3444,15.524,18.3314,15.5493C18.3182,15.5744,18.2993,15.5961,18.2761,15.6126L13.1936,19.695C13.1419,19.733,13.0793,19.7536,13.015,19.7536C12.9506,19.7536,12.888,19.733,12.8363,19.695L1.67347,10.7272C1.65005,10.7109,1.63092,10.6892,1.61771,10.664C1.6045,10.6388,1.59761,10.6108,1.59761,10.5824C1.59761,10.554,1.6045,10.526,1.61771,10.5008C1.63092,10.4756,1.65005,10.4539,1.67347,10.4376L12.8228,1.48047C12.875,1.44244,12.9381,1.42194,13.0028,1.42194C13.0676,1.42194,13.1306,1.44244,13.1829,1.48047L24.7165,10.7455C24.8236,10.8415,24.8878,10.9759,24.8952,11.119L24.8952,14.0896C24.8952,14.2151,24.8165,14.2537,24.7165,14.1745L13.1703,4.89984C13.1193,4.86064,13.0566,4.83937,12.9921,4.83937C12.9277,4.83937,12.865,4.86064,12.814,4.89984L5.96875,10.401C5.94494,10.417,5.92541,10.4385,5.91193,10.4638C5.89844,10.489,5.89139,10.5171,5.89139,10.5457C5.89139,10.5743,5.89844,10.6025,5.91193,10.6277C5.92541,10.6529,5.94494,10.6745,5.96875,10.6905L12.7189,16.1201C12.7806,16.1654,12.8556,16.1889,12.9322,16.187C13.0087,16.1853,13.0826,16.1584,13.1421,16.1106ZM12.8956,11.285C12.9474,11.2465,13.0104,11.2256,13.0751,11.2256C13.1399,11.2256,13.2029,11.2465,13.2547,11.285L15.1407,12.8022C15.164,12.8186,15.1829,12.8403,15.1959,12.8655C15.2091,12.8906,15.216,12.9186,15.216,12.9469C15.216,12.9753,15.2091,13.0032,15.1959,13.0284C15.1829,13.0536,15.164,13.0753,15.1407,13.0917L13.1091,14.7226C13.0572,14.7616,12.994,14.7827,12.9291,14.7827C12.8641,14.7827,12.8009,14.7616,12.749,14.7226L10.8639,13.1998C10.8407,13.1834,10.8217,13.1617,10.8086,13.1365C10.7956,13.1113,10.7888,13.0834,10.7888,13.055C10.7888,13.0267,10.7956,12.9987,10.8086,12.9736C10.8217,12.9484,10.8407,12.9267,10.8639,12.9102L12.8956,11.285ZM13.2838,9.89525C13.2214,9.85367,13.1479,9.83147,13.0727,9.83147C12.9975,9.83147,12.9241,9.85367,12.8616,9.89525L9.97962,12.2115C9.92757,12.25,9.86442,12.2707,9.79957,12.2707C9.73469,12.2707,9.67156,12.25,9.61949,12.2115L7.7286,10.6808C7.70498,10.6647,7.68566,10.6431,7.67232,10.6179C7.65898,10.5926,7.652,10.5646,7.652,10.5361C7.652,10.5076,7.65898,10.4795,7.67232,10.4543C7.68566,10.4291,7.70498,10.4075,7.7286,10.3913L12.8101,6.3089C12.8611,6.2697,12.9238,6.24844,12.9883,6.24844C13.0527,6.24844,13.1154,6.2697,13.1664,6.3089L24.3293,15.2767C24.3525,15.2931,24.3715,15.3149,24.3846,15.34C24.3976,15.3651,24.4044,15.3932,24.4044,15.4215C24.4044,15.4498,24.3976,15.4778,24.3846,15.5029C24.3715,15.5281,24.3525,15.5497,24.3293,15.5662L13.18,24.5233C13.1283,24.5621,13.0655,24.5829,13.0009,24.5829C12.9363,24.5829,12.8734,24.5621,12.8218,24.5233L1.28715,15.2584C1.18051,15.162,1.11634,15.0279,1.10854,14.8849L1.10854,11.9162C1.10854,11.7888,1.18814,11.7511,1.28812,11.8303L12.8393,21.1059C12.8907,21.1445,12.9534,21.1653,13.0179,21.1653C13.0823,21.1653,13.145,21.1445,13.1965,21.1059L20.0428,15.6048C20.0661,15.5886,20.0852,15.5669,20.0984,15.5416C20.1116,15.5165,20.1186,15.4885,20.1186,15.46C20.1186,15.4316,20.1116,15.4037,20.0984,15.3784C20.0852,15.3533,20.0661,15.3316,20.0428,15.3153L13.2838,9.89525Z" fill-opacity="1"/><path d="M152.88333229492187,15.632100000000001L149.14733229492188,15.632100000000001L148.22782229492188,18.6789L146.50485229492188,18.6789L150.06537229492187,8L152.02184229492187,8L155.58237229492187,18.6789L153.78688229492187,18.6789L152.88333229492187,15.632100000000001ZM152.47434229492188,14.31188L152.05086229492187,12.874749999999999C151.68537229492188,11.71663,151.36486229492186,10.52473,151.02838229492187,9.32027L150.97036229492187,9.32027C150.66435229492188,10.539200000000001,150.32933229492187,11.71374,149.97835229492188,12.874749999999999L149.5403522949219,14.31188L152.47434229492188,14.31188Z" fill-opacity="1"/><path d="M160.1653594970703,8L161.85787949707031,8L161.85787949707031,18.6789L160.1653594970703,18.6789L160.1653594970703,8Z" fill-opacity="1"/><path d="M136.9353870390625,5L136.6441650390625,5L136.6441650390625,20.7496L136.9353870390625,20.7496L136.9353870390625,5Z" fill-opacity="1"/><path d="M80.20275395751953,13.489090000000001L76.57349395751953,13.489090000000001L76.57349395751953,12L80.20275395751953,12L80.20275395751953,13.489090000000001Z" fill-opacity="1"/><path d="M36.509315490722656,8L38.359485490722655,8L38.359485490722655,12.12003L43.22354549072266,12.12003L43.22354549072266,8L45.074725490722656,8L45.074725490722656,18.3401L43.22354549072266,18.3401L43.22354549072266,13.78389L38.359485490722655,13.78389L38.359485490722655,18.3401L36.509315490722656,18.3401L36.509315490722656,8Z" fill-opacity="1"/><path d="M48.017845153808594,8L49.86221515380859,8L49.86221515380859,18.3401L48.017845153808594,18.3401L48.017845153808594,8Z" fill-opacity="1"/><path d="M62.035566999511715,17.84281C60.75347699951172,18.522100000000002,59.31926699951172,18.8629,57.73247699951172,18.864800000000002C56.97773699951172,18.8736,56.22777699951172,18.7427,55.52118699951172,18.4788C54.87391699951172,18.2357,54.283486999511716,17.86318,53.78661699951172,17.384349999999998C53.292776999511716,16.90089,52.90511199951172,16.3208,52.647969999511716,15.68091C52.362841999511716,14.98108,52.22158149951172,14.23156,52.23260221451172,13.47659C52.22143539951172,12.70407,52.36254999951172,11.93685,52.647969999511716,11.21824C52.90249999951172,10.56875,53.29031699951172,9.9791,53.78661699951172,9.48685C54.28116699951172,9.003589999999999,54.87202699951172,8.628788,55.52118699951172,8.386612C56.22748699951172,8.121181,56.97759699951172,7.99021348,57.73247699951172,8.000569746C58.485916999511716,7.99682893,59.236746999511716,8.0922488,59.965096999511715,8.284317C60.65616699951172,8.476009,61.29386699951172,8.823051,61.82874699951172,9.29865L60.461966999511716,10.672C60.11650699951172,10.34251,59.70548699951172,10.0884,59.25545699951172,9.92597C58.77206699951172,9.74828,58.26039699951172,9.65871,57.745096999511716,9.66152C57.24314699951172,9.65407,56.74524699951172,9.75105,56.28317699951172,9.94624C55.85925699951172,10.12918,55.47811699951172,10.39767,55.16397699951172,10.73472C54.843746999511716,11.07546,54.59414699951172,11.47554,54.42924699951172,11.91215C54.25781699951172,12.37552,54.17282699951172,12.866119999999999,54.17877699951172,13.35982C54.17138699951172,13.881319999999999,54.25622699951172,14.400120000000001,54.42924699951172,14.892389999999999C54.58935699951172,15.34132,54.839246999511715,15.75342,55.16397699951172,16.10356C55.47564699951172,16.44719,55.85707699951172,16.72077,56.28317699951172,16.90652C56.74394699951172,17.10644,57.242566999511716,17.20523,57.745096999511716,17.19613C58.19092699951172,17.200319999999998,58.635876999511716,17.15598,59.07198699951172,17.063969999999998C59.46212699951172,16.98785,59.83775699951172,16.85135,60.18539699951172,16.65952L60.18539699951172,14.2187L58.049806999511716,14.2187L58.049806999511716,12.55395L62.02961699951172,12.55395L62.035566999511715,17.84281Z" fill-opacity="1"/><path d="M64.88150787353516,8L66.72586787353515,8L66.72586787353515,12.12003L71.59282787353516,12.12003L71.59282787353516,8L73.43719787353515,8L73.43719787353515,18.3401L71.59282787353516,18.3401L71.59282787353516,13.78389L66.72978787353516,13.78389L66.72978787353516,18.3401L64.88542488353515,18.3401L64.88150787353516,8Z" fill-opacity="1"/><path d="M83.3302230834961,8L90.04067308349609,8L90.04067308349609,9.66578L85.1784930834961,9.66578L85.1784930834961,12.38448L89.7629430834961,12.38448L89.7629430834961,14.050229999999999L85.1784930834961,14.050229999999999L85.1784930834961,18.3401L83.33413567349609,18.3401L83.3302230834961,8Z" fill-opacity="1"/><path d="M92.41599600734375,8L94.26600802734374,8L94.26600802734374,16.675359999999998L98.68758802734375,16.675359999999998L98.68758802734375,18.3401L92.41497802734375,18.3401L92.41599600734375,8Z" fill-opacity="1"/><path d="M101.59968340820312,13.91517L97.69949340820312,8L100.01840340820313,8L102.57516340820312,12.12003L105.16005340820313,8L107.36163340820312,8L103.45855340820313,13.91517L103.45855340820313,18.3401L101.59968340820312,18.3401L101.59968340820312,13.91517Z" fill-opacity="1"/><path d="M108.98175811767578,8L115.87350811767578,8L115.87350811767578,9.66578L110.83757811767578,9.66578L110.83757811767578,12.206900000000001L115.60954811767579,12.206900000000001L115.60954811767579,13.8717L110.83757811767578,13.8717L110.83757811767578,16.675359999999998L116.13658811767579,16.675359999999998L116.13658811767579,18.3401L108.98654705767578,18.3401L108.98175811767578,8Z" fill-opacity="1"/><path d="M118.60403442382812,8.0000843048L122.22561442382812,8.0000843048C122.70943442382813,7.99772983,123.19210442382813,8.0446165,123.66620442382812,8.140022C124.10623442382813,8.219683,124.52755442382812,8.380046,124.90869442382812,8.612933C125.26967442382812,8.838454,125.56800442382813,9.15037,125.77642442382813,9.52013C125.99381442382813,9.90038,126.10070442382812,10.37908,126.10070442382812,10.9678C126.10070442382812,11.71768,125.89099442382812,12.34789,125.47461442382813,12.85168C125.05808442382812,13.35546,124.46503442382813,13.66527,123.68941442382813,13.772400000000001L126.44907442382812,18.3402L124.21660442382813,18.3402L121.81126442382812,13.96063L120.46000442382812,13.96063L120.46000442382812,18.3402L118.60505240382813,18.3402L118.60403442382812,8.0000843048ZM121.89755442382813,12.38456C122.16165442382813,12.38456,122.42561442382812,12.36817,122.69261442382813,12.345970000000001C122.94308442382813,12.327729999999999,123.18891442382812,12.26803,123.41966442382812,12.169360000000001C123.63328442382813,12.07768,123.81878442382812,11.93153,123.95742442382813,11.74567C124.10478442382812,11.50831,124.17628442382812,11.23197,124.16222442382812,10.95332C124.17237442382813,10.69506,124.10478442382812,10.43964,123.96802442382813,10.21983C123.84199442382813,10.04068,123.67056442382813,9.89784,123.47100442382812,9.8058C123.25534442382812,9.71067,123.02618442382813,9.64883,122.79153442382812,9.622440000000001C122.54874442382813,9.59352,122.30437442382812,9.57902,122.05970442382812,9.57901L120.46000442382812,9.57901L120.46000442382812,12.38456L121.89755442382813,12.38456Z" fill-opacity="1"/></g></g></svg>