<svg class="icon" viewBox="0 0 1024 1024" version="1.1" xmlns="http://www.w3.org/2000/svg" fill="#ffa600ff">
<path d="M564.167111 720.611556v260.721777H459.832889v-260.721777h104.334222z m-273.294222-61.041778l73.557333 73.557333-147.569778 147.569778-73.557333-73.557333 147.569778-147.569778z m442.254222 0l147.569778 147.569778-73.557333 73.557333-147.569778-147.569778 73.557333-73.557333z m248.206222-199.68v104.277333h-260.721777V459.832889h260.721777z m-677.944889 0v104.277333H42.666667V459.832889h260.721777z m503.751112-316.586667l73.557333 73.557333-147.569778 147.569778-73.557333-73.557333 147.569778-147.569778z m-590.279112 0l147.569778 147.569778-73.557333 73.557333L143.36 216.860444l73.557333-73.557333zM564.167111 42.666667v260.721777H459.832889V42.666667h104.334222z"></path>
</svg>