<?xml version="1.0" encoding="utf-8"?>
<svg viewBox="0 0 460 452" version="1.1" xmlns:xlink="http://www.w3.org/1999/xlink" xmlns="http://www.w3.org/2000/svg" class="jp-icon3 jp-icon-selectable" fill="#666">
  <path d="M0 176L0 269.999C4.10107 283.785 16.9611 289.091 26.8711 296.913C87.264 344.582 147.954 391.874 208.65 439.156C214.74 443.9 221.533 447.74 228 452L230 452C250.141 441.337 266.537 425.539 284.514 411.94C318.125 386.515 351.232 360.423 384.548 334.609C407.066 317.16 429.717 299.878 451.965 282.091C455.564 279.214 457.366 274.087 460 269.999L460 181C456.474 169.264 445.773 164.377 437.187 157.729C372.163 107.37 306.972 57.228 241.764 7.108C238.154 4.33401 233.935 2.35101 230 0L228 0C210.563 8.36499 197.006 22.102 181.943 33.688C142.523 64.01 103.569 94.936 64.4301 125.623C45.4501 140.504 26.474 155.391 7.48901 170.266C5.01501 172.204 2.49805 174.09 0 176L0 176ZM310.021 266.448C310.889 267.163 311.578 268.095 313.008 269.636C304.993 276.006 297.483 282.03 289.914 287.98C271.318 302.599 252.624 317.096 234.145 331.861C230.395 334.856 227.99 335.113 224.011 331.872C174.281 291.368 124.374 251.082 74.5079 210.744C64.7949 202.886 55.0509 195.066 45.3579 187.183C43.729 185.86 42.2849 184.309 40.299 182.432C45.9509 177.951 51.1219 173.809 56.3359 169.723C111.533 126.466 166.741 83.2229 221.931 39.9579L222.12 39.8097C228.76 34.6038 228.808 34.5667 235.261 39.5409C298.721 88.4519 362.185 137.358 425.553 186.387C427.391 187.809 429.23 190.561 429.285 192.738C429.557 203.538 429.51 214.347 429.463 225.155C429.451 227.846 429.44 230.536 429.433 233.227C429.43 234.339 429.117 235.45 428.816 237.425C426.881 236.225 425.33 235.462 424.004 234.411C382.477 201.525 340.967 168.617 299.466 135.699C279.499 119.861 259.576 103.965 239.586 88.155C231.214 81.533 226.281 81.636 217.707 88.397C183.96 115.01 150.219 141.629 116.492 168.266C105.359 177.058 105.569 186.924 116.834 195.716C150.449 221.954 184.011 248.26 217.602 274.53C226.722 281.662 231.592 281.52 240.633 274.018C252.299 264.338 264.065 254.776 275.611 244.957C278.612 242.405 280.823 242.357 283.782 244.848C292.446 252.145 301.28 259.241 310.021 266.448L310.021 266.448ZM30.5461 220.95C30.55 219.198 30.7301 217.446 30.889 214.629C33.0861 215.992 34.52 216.682 35.7231 217.655C92.1892 263.342 148.632 309.057 205.085 354.761C209.486 358.325 213.906 361.866 218.363 365.36C225.643 371.065 232.056 371.122 239.229 365.495C272.255 339.582 305.263 313.648 338.282 287.727C340.509 285.977 342.815 284.327 345.011 282.539C354.85 274.526 354.857 264.518 345.03 256.482C332.392 246.148 319.752 235.817 307.082 225.522C284.589 207.243 262.072 188.994 239.566 170.732C232.381 164.902 226.063 164.61 218.709 170.222C205.601 180.226 192.557 190.317 179.646 200.574C176.463 203.103 174.258 203.161 171.082 200.495C163.719 194.313 156.007 188.549 147.236 180.573C148.845 179.724 150.628 179.099 152.036 177.995C176.277 158.971 200.533 139.963 224.609 120.731C228.011 118.013 230.126 118.54 233.182 120.97C293.673 169.085 354.231 217.118 414.759 265.185C416.277 266.391 417.618 267.819 419.593 269.655C414.203 273.903 409.301 277.823 404.34 281.666C347.051 326.034 289.741 370.376 232.497 414.802C229.829 416.873 227.933 416.591 225.476 414.667C187.188 384.665 148.858 354.72 110.541 324.757C85.3472 305.057 60.1981 285.298 34.9141 265.713C31.6671 263.198 30.3792 260.505 30.4551 256.444C30.6031 248.444 30.5812 240.441 30.5591 232.438C30.5486 228.609 30.5381 224.779 30.5461 220.95L30.5461 220.95ZM230.363 201.881C238.743 208.375 246.856 215.213 255.964 222.703C246.751 230.271 238.464 237.14 230.062 243.865C229.402 244.394 227.6 244.378 226.909 243.853C218.073 237.128 209.342 230.267 199.887 222.896C202.569 220.615 204.591 218.783 206.729 217.099C212.87 212.263 218.977 207.379 225.292 202.779C226.585 201.837 229.424 201.152 230.363 201.881L230.363 201.881Z" fill-rule="evenodd" stroke="none" />
</svg>