<svg t="1640919201032" class="icon" viewBox="0 0 1024 1024" version="1.1" xmlns="http://www.w3.org/2000/svg" p-id="12149" ><path d="M669.27 80.47l307.2 238.933 8.533 8.533s0 8.533-8.534 8.533l-307.2 230.4h-17.066c-8.534 0-8.534-8.533 0-17.066l59.733-153.6H63.403c-8.534 0-8.534-8.534-8.534-8.534v-128c0-8.533 8.534-8.533 8.534-8.533h648.533l-59.733-153.6V80.469c8.533-8.533 8.533-8.533 17.066 0z m-332.8 375.466h-17.067L20.736 694.869c-8.533 0-8.533 0-8.533 8.534 0 0 0 8.533 8.533 8.533l298.667 238.933h17.066c8.534 0 8.534-8.533 0-17.066l-59.733-153.6h648.533c8.534 0 8.534-8.534 8.534-8.534v-128c0-8.533-8.534-8.533-8.534-8.533H276.736l59.733-153.6c8.534-17.067 8.534-17.067 0-25.6z" p-id="12150"></path></svg>