<svg class="jp-icon3 jp-icon-selectable" fill="#666" version="1.1" baseProfile="tiny" id="base" xmlns="http://www.w3.org/2000/svg" xmlns:xlink="http://www.w3.org/1999/xlink"
	 x="0px" y="0px" viewBox="0 0 31.051 31.051" xml:space="preserve">
<polygon points="8.862,21.29 8.862,3.984 30.729,3.984 26.745,0 4.878,0 4.883,21.29 "/>
<polygon points="16.789,22.184 3.984,22.184 3.984,0.323 0,4.301 0,26.168 16.789,26.168 "/>
<polygon points="16.789,29.498 16.789,27.067 0.323,27.067 4.301,31.051 16.789,31.051 	"/>

<polygon points="9.761,4.878 9.761,8.862 27.066,8.862 27.066,12.86 28.89,12.86 30.89,12.86 30.89,12.867
	30.89,16.862 30.89,19.862 28.89,19.862 27.066,19.862 27.066,30.729 31.051,26.738 31.051,4.87 "/>
<path d="M14.509,14.377H29.71v3.995h-5.101v12.68h-5.001v-12.68h-5.1V14.377z"/>
</svg>
