<svg viewBox="0 0 1024 1024" version="1.1" xmlns="http://www.w3.org/2000/svg" >
<path 
d="M345.7024 108.0832c0-31.4368 25.4464-56.8832 56.832-56.8832h193.4848c31.3856 0 56.832 25.4464 56.832 56.8832V307.2l232.704 504.1664A113.7664 113.7664 0 0 1 782.336 972.8H216.32a113.7664 113.7664 0 0 1-103.3216-161.4336L345.7024 307.2V108.0832z m102.4 45.5168v179.2l-153.6 281.6 7.0656-7.0656a184.2688 184.2688 0 0 1 225.0752-27.6992l31.232 18.7392c44.032 26.4192 97.4848 32.256 146.2272 16.0256l-153.6-281.6V153.6h-102.4zM377.6 870.4a76.8 76.8 0 1 0 0-153.6 76.8 76.8 0 0 0 0 153.6z"
 >
</path>
</svg>