<svg viewBox="0 0 120 120" fill="none" xmlns="http://www.w3.org/2000/svg">
<rect x="2" y="14" width="46" height="46" rx="2" fill="#C4C4C4" stroke="#838383" stroke-width="4"/>
<rect x="2" y="72" width="46" height="46" rx="2" fill="#C4C4C4" stroke="#838383" stroke-width="4"/>
<rect x="60" y="72" width="46" height="46" rx="2" fill="#C4C4C4" stroke="#838383" stroke-width="4"/>
<path fill-rule="evenodd" clip-rule="evenodd" d="M80.4641 1.99998C78.5509 0.895406 76.1046 1.55091 75 3.46408L54 39.8371C52.8954 41.7503 53.5509 44.1967 55.4641 45.3012L70.372 53.9083L89.3412 48.2203L73.1227 25.0377L96.6691 11.3559L80.4641 1.99998ZM109.207 18.5945L79.6502 25.0377L97.5801 48.2203L78.9145 58.8404L91.8372 66.3012C93.7503 67.4058 96.1967 66.7503 97.3013 64.8371L118.301 28.4641C119.406 26.5509 118.75 24.1045 116.837 23L109.207 18.5945Z" fill="#C4C4C4"/>
<path fill-rule="evenodd" clip-rule="evenodd" d="M103.399 19.8605L114.837 26.4641L93.8372 62.8371L82.9438 56.5478L78.9145 58.8404L91.8372 66.3012C93.7503 67.4058 96.1967 66.7503 97.3013 64.8371L118.301 28.4641C119.406 26.5509 118.75 24.1045 116.837 23L109.207 18.5945L103.399 19.8605ZM92.6819 13.6727L96.6691 11.3559L80.4641 1.99998C78.5509 0.895406 76.1046 1.55091 75 3.46408L54 39.8371C52.8954 41.7503 53.5509 44.1967 55.4641 45.3012L70.372 53.9083L75.6373 52.3295L57.4641 41.8371L78.4641 5.46408L92.6819 13.6727Z" fill="#838383"/>
</svg>
