<svg t="1609831603795" class="icon" viewBox="0 0 1024 1024" version="1.1" xmlns="http://www.w3.org/2000/svg" p-id="14229"><path d="M746.667 224A53.333 53.333 0 1 0 800 170.667 53.333 53.333 0 0 0 746.667 224z m0 341.333A53.333 53.333 0 1 0 800 512a53.333 53.333 0 0 0-53.333 53.333zM0 704a85.333 85.333 0 0 0 85.333 85.333H448v58.88a97.493 97.493 0 0 0-26.453 26.454H160a53.333 53.333 0 0 0 0 106.666h261.547a96 96 0 0 0 159.573 0H864a53.333 53.333 0 0 0 0-106.666H581.12a97.493 97.493 0 0 0-26.453-26.454v-58.88h384A85.333 85.333 0 0 0 1024 704V85.333A85.333 85.333 0 0 0 938.667 0H85.333A85.333 85.333 0 0 0 0 85.333z m153.6-597.333h716.8a46.72 46.72 0 0 1 46.933 46.933v140.8a46.72 46.72 0 0 1-46.933 46.933H153.6a46.72 46.72 0 0 1-46.933-46.933V153.6a46.72 46.72 0 0 1 46.933-46.933z m0 341.333h716.8a46.72 46.72 0 0 1 46.933 46.933v140.8a46.72 46.72 0 0 1-46.933 46.934H153.6a46.72 46.72 0 0 1-46.933-46.934v-140.8A46.72 46.72 0 0 1 153.6 448z" p-id="14230"></path></svg>