<svg viewBox="0 0 1024 1024" version="1.1" xmlns="http://www.w3.org/2000/svg" ><path d="M611.669333 678.180571c-66.364952-38.716952-70.022095-89.039238-70.070857-119.515429l0-61.244952c0-30.47619 3.462095-80.993524 70.119619-119.808 35.644952-21.357714 66.462476-53.735619 89.819429-93.769143L322.413714 283.843048c23.405714 40.082286 54.272 72.46019 89.916952 93.866667 66.364952 38.716952 69.973333 89.039238 70.022095 119.56419l0 61.19619c0 30.524952-3.510857 80.993524-70.070857 119.856762-67.242667 40.17981-117.321143 119.856762-132.437333 215.82019l464.359619 0C729.088 798.037333 678.912 718.409143 611.669333 678.180571zM712.850286 527.945143c127.512381-83.285333 213.869714-243.321905 213.869714-427.203048 0-20.675048-1.121524-41.008762-3.218286-61.001143L100.498286 39.740952C98.450286 59.782095 97.28 80.11581 97.28 100.742095c0 183.881143 86.308571 343.917714 213.820952 427.203048C183.637333 611.279238 97.28 771.31581 97.28 955.14819c0 20.675048 1.121524 41.008762 3.218286 61.001143l822.905905 0c2.145524-19.992381 3.169524-40.326095 3.169524-61.001143C926.72 771.31581 840.362667 611.279238 712.850286 527.945143zM186.172952 955.14819c0-178.224762 74.215619-329.386667 207.335619-379.221333L393.508571 480.01219c-133.12-49.834667-207.335619-200.94781-207.335619-379.221333l651.702857 0c0 178.273524-74.215619 329.386667-207.335619 379.221333l0 95.914667c133.071238 49.834667 207.335619 200.996571 207.335619 379.221333L186.172952 955.14819z" ></path></svg>