<svg class="icon" viewBox="0 0 1084 1024" version="1.1" xmlns="http://www.w3.org/2000/svg" ><path d="M992.256 1000.869647H91.919059a37.647059 37.647059 0 1 1 0-75.294118h900.336941a37.647059 37.647059 0 1 1 0 75.294118zM705.234824 46.742588L233.231059 517.662118a37.586824 37.586824 0 0 0-10.842353 23.190588l-21.38353 234.074353a37.647059 37.647059 0 0 0 40.96 40.899765l234.676706-21.263059a37.767529 37.767529 0 0 0 23.250824-10.842353l472.003765-470.91953a75.113412 75.113412 0 0 0 0-106.435764L811.911529 46.742588a75.535059 75.535059 0 0 0-106.676705 0z m-51.561412 157.876706l159.984941 159.62353-357.436235 356.592941-176.00753 15.962353 16.022588-175.585883 357.436236-356.592941z m104.869647-104.628706l160.045176 159.62353-51.621647 51.440941-159.984941-159.62353 51.561412-51.440941z" ></path></svg>