<svg width="16" height="16" viewBox="0 0 16 16"  xmlns="http://www.w3.org/2000/svg">
<path fill-rule="evenodd" clip-rule="evenodd" d="M5 1H2C1.44772 1 1 1.44772 1 2C1 2.55228 1.44772 3 2 3H5C5.55228 3 6 2.55228 6 2C6 1.44772 5.55228 1 5 1ZM2 0C0.895431 0 0 0.895431 0 2C0 3.10457 0.89543 4 2 4H5C6.10457 4 7 3.10457 7 2C7 0.895431 6.10457 0 5 0H2Z" />
<path fill-rule="evenodd" clip-rule="evenodd" d="M5 7H2C1.44772 7 1 7.44772 1 8C1 8.55228 1.44772 9 2 9H5C5.55228 9 6 8.55228 6 8C6 7.44772 5.55228 7 5 7ZM2 6C0.895431 6 0 6.89543 0 8C0 9.10457 0.89543 10 2 10H5C6.10457 10 7 9.10457 7 8C7 6.89543 6.10457 6 5 6H2Z" />
<path fill-rule="evenodd" clip-rule="evenodd" d="M5 13H2C1.44772 13 1 13.4477 1 14C1 14.5523 1.44772 15 2 15H5C5.55228 15 6 14.5523 6 14C6 13.4477 5.55228 13 5 13ZM2 12C0.895431 12 0 12.8954 0 14C0 15.1046 0.89543 16 2 16H5C6.10457 16 7 15.1046 7 14C7 12.8954 6.10457 12 5 12H2Z" />
<path fill-rule="evenodd" clip-rule="evenodd" d="M14 7H11C10.4477 7 10 7.44772 10 8C10 8.55228 10.4477 9 11 9H14C14.5523 9 15 8.55228 15 8C15 7.44772 14.5523 7 14 7ZM11 6C9.89543 6 9 6.89543 9 8C9 9.10457 9.89543 10 11 10H14C15.1046 10 16 9.10457 16 8C16 6.89543 15.1046 6 14 6H11Z" />
<path fill-rule="evenodd" clip-rule="evenodd" d="M14 13H11C10.4477 13 10 13.4477 10 14C10 14.5523 10.4477 15 11 15H14C14.5523 15 15 14.5523 15 14C15 13.4477 14.5523 13 14 13ZM11 12C9.89543 12 9 12.8954 9 14C9 15.1046 9.89543 16 11 16H14C15.1046 16 16 15.1046 16 14C16 12.8954 15.1046 12 14 12H11Z" />
<path d="M9 2C9 0.895431 9.89543 0 11 0H14C15.1046 0 16 0.895431 16 2C16 3.10457 15.1046 4 14 4H11C9.89543 4 9 3.10457 9 2Z" fill="#8F8F8F" fill-opacity="0.8"/>
<path fill-rule="evenodd" clip-rule="evenodd" d="M14 1H11C10.4477 1 10 1.44772 10 2C10 2.55228 10.4477 3 11 3H14C14.5523 3 15 2.55228 15 2C15 1.44772 14.5523 1 14 1ZM11 0C9.89543 0 9 0.895431 9 2C9 3.10457 9.89543 4 11 4H14C15.1046 4 16 3.10457 16 2C16 0.895431 15.1046 0 14 0H11Z" />
</svg>
