<svg width="16" height="16" viewBox="0 0 16 16" xmlns="http://www.w3.org/2000/svg">
<path fill-rule="evenodd" clip-rule="evenodd" d="M4.28693 1.61772C4.66907 1.09228 5.34604 0.872588 5.9639 1.07351C6.58176 1.27442 7.00003 1.85027 7.00003 2.49998V5.26227L3.30712 2.96495L4.28693 1.61772ZM1.34673 5.66049L0.286926 7.11772L2 8L3.19176 6.80826L1.34673 5.66049ZM4.00003 7.31108V15H7.00003V9.17735L4.00003 7.31108ZM9.00003 10.4215V13.5C9.00003 14.1497 9.4183 14.7255 10.0362 14.9265C10.654 15.1274 11.331 14.9077 11.7131 14.3822L12.8512 12.8173L9.00003 10.4215ZM14.8116 10.1218L15.7131 8.88224L14 8L13.0032 8.99679L14.8116 10.1218ZM12 8.37271L12 1.07351H9.00003V6.50645L12 8.37271Z" />
<path d="M0.899913 3L15.9543 12.3652L15.5044 13.0885L0.449951 3.72331L0.899913 3Z"/>
</svg>
