<?xml version="1.0" encoding="utf-8"?>
<svg  viewBox="0 0 12 12" version="1.1" xmlns:xlink="http://www.w3.org/1999/xlink" xmlns="http://www.w3.org/2000/svg">
  <defs>
    <path d="M0 0L12 0L12 12L0 12L0 0Z" id="path_1" />
  </defs>
      <path d="M5.84196 9.16322C5.67053 9.16322 5.4991 9.16322 5.32768 9.07751C5.15625 9.07751 4.98482 8.99179 4.81339 8.90608C4.72768 8.90608 4.64196 8.90608 4.55625 8.99179L4.47053 9.07751C3.78482 9.76322 2.75625 9.84893 1.98482 9.24893C1.21339 8.56322 1.12768 7.36322 1.89911 6.67751L3.61339 4.96322C3.95625 4.70608 4.21339 4.53465 4.47053 4.44893C4.89911 4.36322 5.24196 4.36322 5.58482 4.53465C5.75625 4.62036 6.01339 4.70608 6.18482 4.96322L6.44196 5.22036C6.52768 5.39179 6.69911 5.39179 6.87053 5.30608L7.55625 4.62036C7.64196 4.53465 7.64196 4.36322 7.55625 4.27751C7.38482 4.19179 7.2991 4.10608 7.21339 3.93465C7.04196 3.76322 6.87053 3.59179 6.6991 3.50608C6.35625 3.24893 6.01339 3.16322 5.58482 3.07751C4.8991 2.90608 4.12768 3.07751 3.44196 3.42036C3.18482 3.50608 2.92768 3.76322 2.67053 3.93465L0.956248 5.64893C-0.243752 6.84893 -0.329466 8.82036 0.78482 10.1061C1.98482 11.3918 4.12768 11.4775 5.41339 10.1918L6.01339 9.59179C6.18482 9.42036 6.0991 9.16322 5.84196 9.16322L5.84196 9.16322ZM10.2134 5.47749C11.4991 4.19178 11.4134 2.13464 10.1277 0.848921C8.84197 -0.351079 6.87054 -0.265365 5.67054 1.02035L5.15626 1.53464C4.98483 1.70606 5.07054 1.96321 5.32768 1.96321C5.58483 1.96321 5.92768 2.04892 6.27054 2.13464C6.35626 2.13464 6.44197 2.13464 6.52768 2.04892L6.6134 1.96321C7.29911 1.27749 8.32768 1.19178 9.09911 1.79178C9.87054 2.47749 9.95626 3.67749 9.18483 4.36321L7.47054 6.07749C7.2134 6.42035 6.95626 6.50606 6.6134 6.59178C6.27054 6.76321 5.84197 6.67749 5.49911 6.50607C5.32768 6.50607 5.07054 6.33464 4.98483 6.16321C4.89911 6.07749 4.8134 5.99178 4.72768 5.82035C4.64197 5.73464 4.47054 5.64892 4.29911 5.82035L3.69911 6.42035C3.6134 6.50607 3.6134 6.67749 3.69911 6.76321C3.78483 6.93464 3.87054 7.02035 3.95626 7.19178C4.12768 7.36321 4.29911 7.53464 4.47054 7.62035C4.89911 7.79178 5.24197 7.96321 5.58483 8.04892C6.27054 8.22035 7.04197 8.04892 7.72768 7.70606C7.98483 7.53464 8.24197 7.36321 8.4134 7.19178L10.2134 5.47749L10.2134 5.47749Z" />
</svg>