<svg  viewBox="0 0 16 16"  xmlns="http://www.w3.org/2000/svg">
<path d="M3.55459 5.60424C3.55459 5.36576 3.46747 5.18338 3.29322 5.05712C3.11898 4.92806 2.80534 4.79338 2.3523 4.65309C1.89926 4.51 1.54061 4.36971 1.27634 4.23223C0.55613 3.85626 0.196025 3.34982 0.196025 2.71291C0.196025 2.38183 0.29186 2.08723 0.483528 1.8291C0.678101 1.56817 0.955441 1.36475 1.31555 1.21885C1.67856 1.07295 2.08513 1 2.53526 1C2.98829 1 3.39196 1.07996 3.74626 1.23989C4.10055 1.39701 4.37499 1.62007 4.56956 1.90906C4.76704 2.19806 4.86578 2.52633 4.86578 2.89388H3.55894C3.55894 2.61331 3.46747 2.39586 3.28451 2.24155C3.10155 2.08442 2.84454 2.00586 2.51348 2.00586C2.19403 2.00586 1.94573 2.0718 1.76858 2.20367C1.59143 2.33273 1.50286 2.50388 1.50286 2.71712C1.50286 2.91633 1.60595 3.08327 1.81214 3.21795C2.02124 3.35263 2.32762 3.47888 2.73128 3.59673C3.47473 3.81277 4.01634 4.08072 4.35611 4.40058C4.69589 4.72043 4.86578 5.11885 4.86578 5.59583C4.86578 6.12612 4.65814 6.54277 4.24285 6.84579C3.82757 7.14601 3.26854 7.29612 2.56575 7.29612C2.07787 7.29612 1.63354 7.21054 1.23278 7.03939C0.832017 6.86543 0.525638 6.62835 0.31364 6.32813C0.104547 6.02791 0 5.68 0 5.28439H1.31119C1.31119 5.96058 1.72938 6.29867 2.56575 6.29867C2.87649 6.29867 3.11898 6.23835 3.29322 6.1177C3.46747 5.99424 3.55459 5.82309 3.55459 5.60424Z" />
<path d="M7.94119 3.84504L9.2611 1.08417H10.6899L8.60768 4.98978V7.21194H7.27906V4.98978L5.19684 1.08417H6.63L7.94119 3.84504Z" />
<path d="M14.4884 5.60424C14.4884 5.36576 14.4013 5.18338 14.2271 5.05712C14.0528 4.92806 13.7392 4.79338 13.2861 4.65309C12.8331 4.51 12.4745 4.36971 12.2102 4.23223C11.49 3.85626 11.1299 3.34982 11.1299 2.71291C11.1299 2.38183 11.2257 2.08723 11.4174 1.8291C11.6119 1.56817 11.8893 1.36475 12.2494 1.21885C12.6124 1.07295 13.019 1 13.4691 1C13.9221 1 14.3258 1.07996 14.6801 1.23989C15.0344 1.39701 15.3088 1.62007 15.5034 1.90906C15.7009 2.19806 15.7996 2.52633 15.7996 2.89388H14.4928C14.4928 2.61331 14.4013 2.39586 14.2184 2.24155C14.0354 2.08442 13.7784 2.00586 13.4473 2.00586C13.1279 2.00586 12.8796 2.0718 12.7024 2.20367C12.5253 2.33273 12.4367 2.50388 12.4367 2.71712C12.4367 2.91633 12.5398 3.08327 12.746 3.21795C12.9551 3.35263 13.2615 3.47888 13.6651 3.59673C14.4086 3.81277 14.9502 4.08072 15.29 4.40058C15.6297 4.72043 15.7996 5.11885 15.7996 5.59583C15.7996 6.12612 15.592 6.54277 15.1767 6.84579C14.7614 7.14601 14.2024 7.29612 13.4996 7.29612C13.0117 7.29612 12.5674 7.21054 12.1666 7.03939C11.7659 6.86543 11.4595 6.62835 11.2475 6.32813C11.0384 6.02791 10.9338 5.68 10.9338 5.28439H12.245C12.245 5.96058 12.6632 6.29867 13.4996 6.29867C13.8103 6.29867 14.0528 6.23835 14.2271 6.1177C14.4013 5.99424 14.4884 5.82309 14.4884 5.60424Z" />
<path d="M1.57256 13.9015H4.3474V14.9158H0.265723V8.78806H1.57256V13.9015Z" />
<path d="M10.0321 11.9908C10.0321 12.5941 9.92177 13.1229 9.70106 13.5775C9.48035 14.032 9.16381 14.3827 8.75143 14.6296C8.34196 14.8765 7.87149 15 7.34005 15C6.81441 15 6.3454 14.8779 5.93302 14.6338C5.52065 14.3897 5.2012 14.0418 4.97468 13.5901C4.74816 13.1356 4.63345 12.6137 4.63055 12.0245V11.7215C4.63055 11.1182 4.74235 10.5879 4.96597 10.1306C5.19249 9.67047 5.51048 9.31835 5.91996 9.07425C6.33234 8.82734 6.8028 8.70389 7.33134 8.70389C7.85988 8.70389 8.32889 8.82734 8.73836 9.07425C9.15074 9.31835 9.46874 9.67047 9.69235 10.1306C9.91887 10.5879 10.0321 11.1168 10.0321 11.7173V11.9908ZM8.70787 11.7131C8.70787 11.0705 8.5888 10.5823 8.35067 10.2485C8.11253 9.91457 7.77276 9.74763 7.33134 9.74763C6.89282 9.74763 6.5545 9.91317 6.31636 10.2442C6.07823 10.5725 5.95771 11.0551 5.95481 11.692V11.9908C5.95481 12.6165 6.07387 13.1019 6.31201 13.447C6.55014 13.7921 6.89282 13.9647 7.34005 13.9647C7.77856 13.9647 8.11544 13.7991 8.35067 13.4681C8.5859 13.1342 8.70496 12.6488 8.70787 12.0119V11.7131Z" />
<path d="M16 14.1414C15.7648 14.4136 15.4323 14.6254 15.0025 14.7769C14.5726 14.9256 14.0964 15 13.5736 15C13.0248 15 12.5427 14.885 12.1274 14.6549C11.715 14.422 11.3956 14.0853 11.1691 13.6448C10.9455 13.2043 10.8307 12.6867 10.8249 12.0918V11.6752C10.8249 11.0635 10.9309 10.5346 11.1429 10.0885C11.3578 9.6396 11.6657 9.2973 12.0664 9.06162C12.4701 8.82313 12.942 8.70389 13.4822 8.70389C14.2343 8.70389 14.8224 8.87784 15.2464 9.22576C15.6704 9.57086 15.9216 10.0745 16 10.7367H14.728C14.6699 10.3859 14.5407 10.1292 14.3403 9.96647C14.1428 9.80374 13.8699 9.72237 13.5214 9.72237C13.077 9.72237 12.7387 9.88371 12.5064 10.2064C12.2741 10.529 12.1565 11.0088 12.1536 11.6457V12.0371C12.1536 12.6796 12.2799 13.165 12.5325 13.4933C12.7852 13.8216 13.1555 13.9857 13.6433 13.9857C14.1341 13.9857 14.4841 13.8847 14.6932 13.6827V12.6263H13.5039V11.6962H16V14.1414Z" />
</svg>
