<svg width="16" height="16" viewBox="0 0 16 16" xmlns="http://www.w3.org/2000/svg">
<path fill-rule="evenodd" clip-rule="evenodd" d="M5.9639 1.07351C5.34604 0.872588 4.66907 1.09228 4.28693 1.61772L0.286926 7.11772L2 8L4.00003 6V11H7.00003V2.49998C7.00003 1.85027 6.58176 1.27442 5.9639 1.07351ZM12 10L12 4.99998H9.00003V13.5C9.00003 14.1497 9.4183 14.7255 10.0362 14.9265C10.654 15.1274 11.331 14.9077 11.7131 14.3822L15.7131 8.88224L14 8L12 10Z"/>
<path d="M7 13.5C7 14.3284 6.32843 15 5.5 15C4.67157 15 4 14.3284 4 13.5C4 12.6716 4.67157 12 5.5 12C6.32843 12 7 12.6716 7 13.5Z" />
<path d="M12 2.5C12 3.32843 11.3284 4 10.5 4C9.67157 4 9 3.32843 9 2.5C9 1.67157 9.67157 1 10.5 1C11.3284 1 12 1.67157 12 2.5Z" />
</svg>
