<svg viewBox="0 0 86 18" xmlns="http://www.w3.org/2000/svg">
<path d="M44.1227 11.67H42.5691V8.49737H39.658V11.67H38.0993V4.31919H39.658V7.20017H42.5691V4.31919H44.1227V11.67Z" fill="#959595"/>
<path d="M45.797 4.59573C45.797 4.09629 46.0752 3.84657 46.6316 3.84657C47.1881 3.84657 47.4663 4.09629 47.4663 4.59573C47.4663 4.83371 47.3959 5.01975 47.2551 5.15382C47.1177 5.28455 46.9099 5.34991 46.6316 5.34991C46.0752 5.34991 45.797 5.09852 45.797 4.59573ZM47.3959 11.67H45.8624V6.04879H47.3959V11.67Z" fill="#959595"/>
<path d="M53.902 6.04879V6.82811L53.0221 7.05436C53.183 7.30576 53.2634 7.58732 53.2634 7.89905C53.2634 8.5024 53.0523 8.97334 52.6299 9.31189C52.2109 9.64708 51.6277 9.81467 50.8802 9.81467L50.6037 9.79959L50.3774 9.77445C50.2199 9.89512 50.1411 10.0292 50.1411 10.1767C50.1411 10.3979 50.4227 10.5085 50.9858 10.5085H51.9411C52.5578 10.5085 53.0271 10.6409 53.3489 10.9057C53.674 11.1705 53.8366 11.5594 53.8366 12.0722C53.8366 12.7292 53.5617 13.2387 53.012 13.6007C52.4657 13.9627 51.6796 14.1437 50.654 14.1437C49.8696 14.1437 49.2696 14.0063 48.854 13.7314C48.4417 13.4599 48.2355 13.0778 48.2355 12.585C48.2355 12.2465 48.3411 11.9633 48.5523 11.7353C48.7635 11.5074 49.0735 11.3448 49.4825 11.2476C49.3249 11.1806 49.1875 11.0716 49.0702 10.9208C48.9529 10.7666 48.8942 10.6041 48.8942 10.4331C48.8942 10.2186 48.9562 10.0409 49.0802 9.90015C49.2042 9.75602 49.3836 9.61524 49.6182 9.47781C49.3232 9.35043 49.0886 9.14597 48.9143 8.8644C48.7434 8.58284 48.6579 8.251 48.6579 7.86888C48.6579 7.25548 48.8573 6.78118 49.2562 6.44599C49.6551 6.1108 50.2249 5.9432 50.9657 5.9432C51.1232 5.9432 51.3093 5.95829 51.5238 5.98845C51.7417 6.01527 51.8808 6.03538 51.9411 6.04879H53.902ZM49.5629 12.4644C49.5629 12.6755 49.6635 12.8415 49.8646 12.9621C50.069 13.0828 50.354 13.1431 50.7193 13.1431C51.269 13.1431 51.6998 13.0677 52.0115 12.9169C52.3232 12.766 52.4791 12.5599 52.4791 12.2985C52.4791 12.0873 52.3869 11.9415 52.2025 11.861C52.0182 11.7806 51.7333 11.7404 51.3478 11.7404H50.5534C50.2718 11.7404 50.0355 11.8057 49.8445 11.9364C49.6568 12.0705 49.5629 12.2465 49.5629 12.4644ZM50.121 7.88899C50.121 8.19402 50.1897 8.43536 50.3271 8.61301C50.4679 8.79066 50.6808 8.87949 50.9657 8.87949C51.2539 8.87949 51.4651 8.79066 51.5992 8.61301C51.7333 8.43536 51.8003 8.19402 51.8003 7.88899C51.8003 7.21191 51.5221 6.87336 50.9657 6.87336C50.4026 6.87336 50.121 7.21191 50.121 7.88899Z" fill="#959595"/>
<path d="M60.0209 11.67H58.4874V8.38675C58.4874 7.57559 58.1857 7.17001 57.5824 7.17001C57.1533 7.17001 56.8433 7.31582 56.6522 7.60743C56.4612 7.89905 56.3656 8.37167 56.3656 9.0253V11.67H54.8321V3.84657H56.3656V5.44041C56.3656 5.56443 56.3539 5.85605 56.3304 6.31527L56.2952 6.76778H56.3757C56.7176 6.21806 57.2606 5.9432 58.0047 5.9432C58.6651 5.9432 59.1662 6.12085 59.5081 6.47616C59.85 6.83146 60.0209 7.34095 60.0209 8.00464V11.67Z" fill="#959595"/>
<path d="M63.2538 11.67H61.7203V4.31919H65.9337V5.59628H63.2538V7.49179H65.7477V8.76385H63.2538V11.67Z" fill="#959595"/>
<path d="M68.7845 11.67H67.251V3.84657H68.7845V11.67Z" fill="#959595"/>
<path d="M69.594 6.04879H71.2733L72.3342 9.21133C72.4247 9.48619 72.4867 9.81132 72.5202 10.1867H72.5504C72.5873 9.84149 72.6593 9.51635 72.7666 9.21133L73.8074 6.04879H75.4515L73.0733 12.389C72.8554 12.9755 72.5437 13.4146 72.1381 13.7063C71.7359 13.9979 71.2649 14.1437 70.7253 14.1437C70.4605 14.1437 70.2007 14.1152 69.946 14.0582V12.8415C70.1303 12.885 70.3314 12.9068 70.5493 12.9068C70.8208 12.9068 71.0571 12.823 71.2582 12.6554C71.4627 12.4912 71.6219 12.2415 71.7359 11.9063L71.8264 11.6297L69.594 6.04879Z" fill="#959595"/>
<path d="M78.5889 7.03425C78.2638 7.03425 78.009 7.13816 77.8247 7.34598C77.6403 7.55045 77.5347 7.84207 77.5079 8.22083H79.6598C79.6531 7.84207 79.5543 7.55045 79.3632 7.34598C79.1721 7.13816 78.914 7.03425 78.5889 7.03425ZM78.8051 11.7705C77.9001 11.7705 77.1928 11.5208 76.6833 11.0214C76.1738 10.5219 75.9191 9.81467 75.9191 8.8996C75.9191 7.95771 76.1537 7.23034 76.623 6.7175C77.0956 6.2013 77.7476 5.9432 78.5788 5.9432C79.3732 5.9432 79.9917 6.16946 80.4341 6.62197C80.8766 7.07448 81.0978 7.69961 81.0978 8.49737V9.2415H77.4727C77.4895 9.67725 77.6185 10.0175 77.8598 10.2622C78.1012 10.5068 78.4397 10.6292 78.8755 10.6292C79.214 10.6292 79.5341 10.594 79.8358 10.5236C80.1375 10.4532 80.4526 10.3409 80.7811 10.1867V11.3733C80.5129 11.5074 80.2263 11.6063 79.9213 11.67C79.6163 11.737 79.2442 11.7705 78.8051 11.7705Z" fill="#959595"/>
<path d="M85.4821 5.9432C85.6899 5.9432 85.8626 5.95829 86 5.98845L85.8844 7.42643C85.7603 7.39291 85.6095 7.37615 85.4318 7.37615C84.9425 7.37615 84.5603 7.50185 84.2855 7.75324C84.014 8.00464 83.8782 8.35659 83.8782 8.8091V11.67H82.3447V6.04879H83.5062L83.7324 6.99403H83.8078C83.9821 6.67895 84.2168 6.42588 84.5117 6.23482C84.8101 6.04041 85.1335 5.9432 85.4821 5.9432Z" fill="#959595"/>
<path d="M0 4.31919H2.28769C3.33014 4.31919 4.086 4.46835 4.55527 4.76668C5.02789 5.06165 5.2642 5.53259 5.2642 6.17951C5.2642 6.61861 5.16029 6.97895 4.95247 7.26051C4.748 7.54207 4.47482 7.71134 4.13292 7.76832V7.8186C4.59884 7.92251 4.93403 8.11693 5.1385 8.40184C5.34632 8.68675 5.45023 9.06552 5.45023 9.53814C5.45023 10.2085 5.20722 10.7314 4.72119 11.1068C4.23851 11.4823 3.58153 11.67 2.75025 11.67H0V4.31919ZM1.55865 7.23034H2.46366C2.88601 7.23034 3.19103 7.16498 3.37874 7.03425C3.5698 6.90353 3.66533 6.68733 3.66533 6.38566C3.66533 6.10409 3.56142 5.90298 3.3536 5.78231C3.14913 5.65829 2.824 5.59628 2.37819 5.59628H1.55865V7.23034ZM1.55865 8.4672V10.3828H2.57428C3.00332 10.3828 3.32008 10.3007 3.52455 10.1365C3.72902 9.97222 3.83125 9.72082 3.83125 9.38228C3.83125 8.77223 3.3955 8.4672 2.524 8.4672H1.55865Z" fill="#959595"/>
<path d="M5.99324 6.04879H7.67256L8.73344 9.21133C8.82394 9.48619 8.88595 9.81132 8.91947 10.1867H8.94964C8.98651 9.84149 9.05858 9.51635 9.16584 9.21133L10.2066 6.04879H11.8507L9.47254 12.389C9.25466 12.9755 8.94294 13.4146 8.53735 13.7063C8.13512 13.9979 7.66418 14.1437 7.12452 14.1437C6.85971 14.1437 6.59994 14.1152 6.34519 14.0582V12.8415C6.52955 12.885 6.73067 12.9068 6.94854 12.9068C7.22005 12.9068 7.45636 12.823 7.65747 12.6554C7.86194 12.4912 8.02116 12.2415 8.13512 11.9063L8.22562 11.6297L5.99324 6.04879Z" fill="#959595"/>
<path fill-rule="evenodd" clip-rule="evenodd" d="M16.2367 10.2515C16.2367 9.06184 16.2367 7.87217 16.2367 6.68249C16.3315 6.60997 16.4271 6.53836 16.521 6.46478C17.2419 5.89999 17.9624 5.33475 18.683 4.76974C20.1691 3.6046 21.6481 2.43038 23.1448 1.27909C23.7168 0.839184 24.2315 0.317608 24.8936 0C24.9189 0 24.9442 0 24.9695 0C25.1189 0.0892644 25.2791 0.164556 25.4162 0.269882C27.892 2.17287 30.3672 4.0767 32.8361 5.98877C33.1621 6.24118 33.5684 6.42673 33.7023 6.87234C33.7023 7.99872 33.7023 9.12513 33.7023 10.2515C33.6023 10.4067 33.5339 10.6014 33.3972 10.7106C32.5525 11.386 31.6925 12.0422 30.8375 12.7047C29.5725 13.6848 28.3155 14.6755 27.0393 15.6408C26.3568 16.1572 25.7342 16.757 24.9695 17.1619C24.9442 17.1619 24.9189 17.1619 24.8936 17.1619C24.648 17.0001 24.3901 16.8543 24.1589 16.6742C21.8543 14.8789 19.55 13.0833 17.257 11.2734C16.8807 10.9764 16.3924 10.775 16.2367 10.2515ZM28.1212 10.2377C28.0669 10.1792 28.0407 10.1438 28.0078 10.1167C27.6759 9.84305 27.3405 9.57362 27.0115 9.29656C26.8992 9.20198 26.8152 9.2038 26.7013 9.3007C26.2629 9.67351 25.8162 10.0366 25.3732 10.4041C25.0299 10.689 24.845 10.6943 24.4988 10.4235C23.2234 9.42611 21.949 8.42731 20.6727 7.43108C20.245 7.09726 20.237 6.72266 20.6597 6.38884C21.9403 5.37747 23.2214 4.36678 24.5027 3.35632C24.8283 3.09961 25.0156 3.0957 25.3335 3.34713C26.0925 3.94742 26.8489 4.55097 27.607 5.15231C29.1828 6.40217 30.7589 7.65164 32.3356 8.90028C32.3859 8.94019 32.4448 8.96916 32.5183 9.01472C32.5297 8.93973 32.5416 8.89755 32.5417 8.85533C32.543 8.34283 32.549 7.83017 32.5361 7.31801C32.534 7.23535 32.4642 7.13087 32.3944 7.07687C29.9884 5.21531 27.5787 3.35841 25.1692 1.50132C24.9219 1.31068 24.9224 1.31391 24.6631 1.51715C22.5676 3.15987 20.4715 4.80175 18.3757 6.44416C18.1777 6.5993 17.9814 6.75657 17.7668 6.92671C17.8422 6.99797 17.897 7.05686 17.9589 7.1071C18.3269 7.4064 18.6969 7.70332 19.0657 8.00168C20.959 9.53326 22.8539 11.0629 24.7421 12.6008C24.8932 12.7238 24.9845 12.7141 25.1269 12.6003C25.8285 12.0397 26.5383 11.4893 27.2444 10.9342C27.5317 10.7083 27.8169 10.4796 28.1212 10.2377ZM17.4095 8.14919C17.4035 8.25614 17.3966 8.32267 17.3965 8.38919C17.3955 8.83843 17.4013 9.28775 17.393 9.73685C17.3901 9.89104 17.439 9.99329 17.5623 10.0888C18.5223 10.8324 19.4772 11.5826 20.4338 12.3306C21.8886 13.4683 23.344 14.6052 24.7977 15.7444C24.891 15.8174 24.963 15.8281 25.0643 15.7495C27.2378 14.0627 29.4138 12.3791 31.589 10.6945C31.7773 10.5486 31.9634 10.3997 32.1681 10.2385C32.0931 10.1687 32.0422 10.1145 31.9846 10.0687C29.6864 8.24369 27.3871 6.41994 25.0903 4.59307C24.9743 4.50081 24.894 4.4808 24.7648 4.584C23.8507 5.31421 22.9297 6.03592 22.0093 6.75824C21.9558 6.80016 21.8881 6.82389 21.8271 6.85612C22.1601 7.15896 22.4529 7.37781 22.7325 7.61254C22.853 7.71376 22.9368 7.71156 23.0576 7.61553C23.5478 7.22609 24.0431 6.84295 24.5408 6.46311C24.82 6.25003 25.0599 6.26112 25.3327 6.48247C26.1872 7.17586 27.0422 7.86875 27.8962 8.56278C28.3773 8.95367 28.8572 9.34592 29.337 9.73829C29.7102 10.0434 29.7099 10.4234 29.3363 10.7276C29.2529 10.7955 29.1654 10.8582 29.0808 10.9246C27.8271 11.9088 26.5739 12.8935 25.3199 13.8774C25.0476 14.091 24.8041 14.0889 24.5277 13.8722C24.3584 13.7396 24.1906 13.6051 24.0235 13.4698C21.8801 11.7345 19.737 9.99876 17.5931 8.26408C17.5474 8.22714 17.4929 8.20094 17.4095 8.14919ZM25.9553 8.45574C25.6095 8.17136 25.3015 7.91173 24.9833 7.66516C24.9476 7.63748 24.8398 7.66349 24.7907 7.69926C24.551 7.87391 24.3191 8.05935 24.0859 8.24297C24.0048 8.30691 23.928 8.37647 23.8261 8.46307C24.1851 8.74294 24.5166 9.00344 24.8521 9.25878C24.8784 9.27872 24.9468 9.27932 24.9719 9.25924C25.2909 9.0039 25.6055 8.74309 25.9553 8.45574Z" fill="#51A1CA" fill-opacity="0.6"/>
</svg>
