<svg t="1635838802935" class="icon" viewBox="0 0 1024 1024" version="1.1" xmlns="http://www.w3.org/2000/svg" p-id="2391"><path d="M857.472 64H166.528C109.888 64 64 109.888 64 166.528v691.008C64 914.112 109.888 960 166.528 960h691.008c56.576 0 102.464-45.888 102.464-102.528V166.528C960 109.888 914.112 64 857.472 64zM204.032 163.84h616c22.208 0 40.192 17.984 40.192 40.192v269.888h-31.68l-83.2-54.08a44.8 44.8 0 0 0-65.92 20.672L607.68 617.472 474.88 268.096a44.8 44.8 0 0 0-41.856-28.864h-0.256a44.608 44.608 0 0 0-41.792 29.312L293.952 532.48l-51.584-46.976a44.8 44.8 0 0 0-30.144-11.584H163.84V204.032c0-22.208 17.984-40.192 40.192-40.192z m616 696.32H204.032a40.192 40.192 0 0 1-40.192-40.192V563.456h31.04l88 80.128a44.8 44.8 0 0 0 72.192-17.664l78.656-213.952 130.688 343.936a44.8 44.8 0 0 0 41.408 28.864h0.512a44.736 44.736 0 0 0 41.472-27.968l94.208-232.32 48.768 31.68a44.544 44.544 0 0 0 24.384 7.232h44.992v256.512a40.192 40.192 0 0 1-40.128 40.256z" p-id="2392"></path></svg>