<svg  viewBox="0 0 16 16"  xmlns="http://www.w3.org/2000/svg">
<path d="M5 8H3V11H0V13H3V16H5V13H8V11H5V8Z" />
<path fill-rule="evenodd" clip-rule="evenodd" d="M4 0C2.89543 0 2 0.89543 2 2V6.58425C2 6.72506 2.01485 6.86434 2.04368 7H6V10H9V13.9541C9.63894 14.0882 10.3308 13.9072 10.8269 13.4111L15.4111 8.82689C16.1922 8.04584 16.1922 6.77951 15.4111 5.99846L9.99846 0.585786C9.62339 0.210714 9.11468 0 8.58425 0H4ZM3.99258 3.48702C3.99258 2.66167 4.66167 1.99258 5.48702 1.99258C6.31238 1.99258 6.98146 2.66167 6.98146 3.48702C6.98146 4.31238 6.31238 4.98146 5.48702 4.98146C4.66167 4.98146 3.99258 4.31238 3.99258 3.48702Z"/>
</svg>