<svg  class="icon" viewBox="0 0 980 980" version="1.1" xmlns="http://www.w3.org/2000/svg" ><path d="M505.984 975.317333c-259.2 0-469.333333-210.133333-469.333333-469.333333s210.133333-469.333333 469.333333-469.333333 469.333333 210.133333 469.333333 469.333333-210.090667 469.333333-469.333333 469.333333z m0-850.645333a381.354667 381.354667 0 0 0-381.354667 381.354667 381.354667 381.354667 0 1 0 381.354667-381.354667z m190.677333 425.344h-190.677333a43.946667 43.946667 0 0 1-43.989333-43.989333V242.005333a43.946667 43.946667 0 1 1 87.978666 0v219.989334h146.688a44.032 44.032 0 0 1 0 88.021333z" ></path></svg>