<svg viewBox="0 0 16 16" xmlns="http://www.w3.org/2000/svg">
<path d="M5.5 2L7 4H12V4.59971C12.7998 5.00857 13.4863 5.6075 14 6.33692V2H8L6.5 0H0V14H6C5.41336 13.4462 4.67358 12.7647 4.37494 12H2V2H5.5Z" />
<path fill-rule="evenodd" clip-rule="evenodd" d="M10.8072 13.8072C10.3935 13.9326 9.95464 14 9.5 14C7.01472 14 5 11.9853 5 9.5C5 7.01472 7.01472 5 9.5 5C11.9853 5 14 7.01472 14 9.5C14 10.425 13.7209 11.2847 13.2424 11.9997L15.1213 13.8787L13 16L10.8072 13.8072ZM12 9.5C12 10.8807 10.8807 12 9.5 12C8.11929 12 7 10.8807 7 9.5C7 8.11929 8.11929 7 9.5 7C10.8807 7 12 8.11929 12 9.5Z" />
</svg>
