<svg viewBox="0 0 162 22" xmlns="http://www.w3.org/2000/svg">
<path d="M12.6723 16.7148H9.40372V9.93652H3.27914V16.7148H0V1.00976H3.27914V7.16504H9.40372V1.00976H12.6723V16.7148Z" />
<path d="M16.1947 1.60059C16.1947 0.533528 16.78 0 17.9506 0C19.1213 0 19.7066 0.533528 19.7066 1.60059C19.7066 2.10905 19.5585 2.50651 19.2623 2.79297C18.9732 3.07227 18.5359 3.21191 17.9506 3.21191C16.78 3.21191 16.1947 2.6748 16.1947 1.60059ZM19.5585 16.7148H16.3322V4.70508H19.5585V16.7148Z" />
<path d="M33.2462 4.70508V6.37012L31.3951 6.85351C31.7336 7.39062 31.9028 7.99219 31.9028 8.6582C31.9028 9.94727 31.4586 10.9534 30.57 11.6768C29.6885 12.3929 28.4615 12.751 26.8889 12.751L26.3071 12.7187L25.8311 12.665C25.4997 12.9228 25.334 13.2093 25.334 13.5244C25.334 13.9971 25.9263 14.2334 27.1111 14.2334H29.1209C30.4184 14.2334 31.4057 14.5163 32.0827 15.082C32.7667 15.6478 33.1087 16.4785 33.1087 17.5742C33.1087 18.9779 32.5305 20.0664 31.374 20.8398C30.2245 21.6133 28.5708 22 26.4129 22C24.7628 22 23.5005 21.7064 22.6261 21.1191C21.7587 20.5391 21.325 19.7227 21.325 18.6699C21.325 17.9466 21.5471 17.3415 21.9914 16.8545C22.4357 16.3675 23.088 16.0202 23.9483 15.8125C23.6168 15.6693 23.3277 15.4365 23.0809 15.1143C22.8341 14.7848 22.7107 14.4375 22.7107 14.0723C22.7107 13.6139 22.8411 13.2344 23.1021 12.9336C23.363 12.6256 23.7403 12.3249 24.2339 12.0312C23.6133 11.7591 23.1197 11.3223 22.753 10.7207C22.3933 10.1191 22.2135 9.41016 22.2135 8.59375C22.2135 7.2832 22.6331 6.26986 23.4723 5.55371C24.3115 4.83756 25.5103 4.47949 27.0688 4.47949C27.4002 4.47949 27.7916 4.51172 28.2429 4.57617C28.7013 4.63346 28.9939 4.67643 29.1209 4.70508H33.2462ZM24.1175 18.4121C24.1175 18.8633 24.3291 19.2178 24.7522 19.4756C25.1824 19.7334 25.7818 19.8623 26.5504 19.8623C27.707 19.8623 28.6131 19.7012 29.269 19.3789C29.9248 19.0566 30.2527 18.6162 30.2527 18.0576C30.2527 17.6064 30.0588 17.2949 29.6709 17.123C29.2831 16.9512 28.6836 16.8652 27.8727 16.8652H26.2014C25.609 16.8652 25.1119 17.0049 24.7099 17.2842C24.315 17.5706 24.1175 17.9466 24.1175 18.4121ZM25.2917 8.63672C25.2917 9.28841 25.4362 9.80404 25.7254 10.1836C26.0215 10.5632 26.4693 10.7529 27.0688 10.7529C27.6752 10.7529 28.1195 10.5632 28.4016 10.1836C28.6836 9.80404 28.8247 9.28841 28.8247 8.63672C28.8247 7.1901 28.2394 6.4668 27.0688 6.4668C25.884 6.4668 25.2917 7.1901 25.2917 8.63672Z" />
<path d="M46.1195 16.7148H42.8932V9.7002C42.8932 7.96712 42.2586 7.10059 40.9892 7.10059C40.0866 7.10059 39.4343 7.41211 39.0323 8.03516C38.6304 8.6582 38.4294 9.66797 38.4294 11.0645V16.7148H35.2031V0H38.4294V3.40527C38.4294 3.67025 38.4047 4.29329 38.3553 5.27441L38.2813 6.24121H38.4505C39.1698 5.06673 40.3122 4.47949 41.8778 4.47949C43.267 4.47949 44.3213 4.85905 45.0406 5.61816C45.7598 6.37728 46.1195 7.46582 46.1195 8.88379V16.7148Z" />
<path d="M52.9211 16.7148H49.6948V1.00976H58.5591V3.73828H52.9211V7.78809H58.1677V10.5059H52.9211V16.7148Z" />
<path d="M64.5567 16.7148H61.3305V0H64.5567V16.7148Z" />
<path d="M66.2597 4.70508H69.7928L72.0247 11.4619C72.2151 12.0492 72.3456 12.7438 72.4161 13.5459H72.4795C72.5571 12.8083 72.7087 12.1136 72.9344 11.4619L75.124 4.70508H78.583L73.5796 18.251C73.1213 19.5042 72.4654 20.4424 71.6122 21.0654C70.7659 21.6885 69.7751 22 68.6398 22C68.0827 22 67.5361 21.9391 67.0002 21.8174V19.2178C67.3881 19.3109 67.8112 19.3574 68.2695 19.3574C68.8408 19.3574 69.3379 19.1784 69.761 18.8203C70.1912 18.4694 70.5262 17.9359 70.7659 17.2197L70.9563 16.6289L66.2597 4.70508Z" />
<path d="M85.1835 6.81055C84.4995 6.81055 83.9636 7.03255 83.5757 7.47656C83.1879 7.91341 82.9657 8.53646 82.9093 9.3457H87.4366C87.4225 8.53646 87.2145 7.91341 86.8125 7.47656C86.4106 7.03255 85.8676 6.81055 85.1835 6.81055ZM85.6384 16.9297C83.7344 16.9297 82.2464 16.3962 81.1745 15.3291C80.1026 14.262 79.5667 12.751 79.5667 10.7959C79.5667 8.78353 80.0603 7.22949 81.0476 6.13379C82.0419 5.03092 83.4135 4.47949 85.1624 4.47949C86.8337 4.47949 88.1348 4.96289 89.0656 5.92969C89.9965 6.89648 90.4619 8.2321 90.4619 9.93652V11.5264H82.8353C82.8705 12.4574 83.142 13.1842 83.6498 13.707C84.1575 14.2298 84.8697 14.4912 85.7865 14.4912C86.4987 14.4912 87.1722 14.416 87.8069 14.2656C88.4415 14.1152 89.1044 13.8753 89.7955 13.5459V16.0811C89.2314 16.3675 88.6284 16.5788 87.9867 16.7148C87.345 16.8581 86.5622 16.9297 85.6384 16.9297Z" />
<path d="M99.6858 4.47949C100.123 4.47949 100.486 4.51172 100.775 4.57617L100.532 7.64844C100.271 7.57682 99.9538 7.54101 99.58 7.54101C98.5505 7.54101 97.7465 7.80957 97.1683 8.34668C96.5971 8.88379 96.3115 9.63574 96.3115 10.6025V16.7148H93.0852V4.70508H95.5287L96.0047 6.72461H96.1634C96.5301 6.05143 97.0237 5.51074 97.6443 5.10254C98.2719 4.68717 98.9524 4.47949 99.6858 4.47949Z" />
<path d="M118.705 16.7148L116.78 11.7197H110.581L108.677 16.7148H106.858L112.972 0.945312H114.484L120.567 16.7148H118.705ZM116.219 10.0762L114.421 5.20996C114.188 4.59408 113.948 3.83854 113.701 2.94336C113.546 3.63086 113.324 4.38639 113.035 5.20996L111.216 10.0762H116.219Z" />
<path d="M122.693 16.7148V1.00976H124.491V16.7148H122.693Z" />
<path d="M128.743 16.7148V1.00976H130.541V15.0605H137.364V16.7148H128.743Z" />
<path d="M146.863 16.7148L146.514 15.0391H146.429C145.851 15.7767 145.273 16.278 144.695 16.543C144.123 16.8008 143.408 16.9297 142.547 16.9297C141.398 16.9297 140.495 16.6289 139.839 16.0273C139.191 15.4258 138.866 14.57 138.866 13.46C138.866 11.0824 140.739 9.83626 144.483 9.72168L146.451 9.65723V8.92676C146.451 8.00293 146.253 7.32259 145.858 6.88574C145.47 6.44173 144.846 6.21973 143.986 6.21973C143.02 6.21973 141.927 6.52051 140.707 7.12207L140.167 5.75781C140.738 5.44271 141.363 5.19564 142.04 5.0166C142.724 4.83756 143.408 4.74805 144.092 4.74805C145.474 4.74805 146.496 5.05957 147.159 5.68262C147.829 6.30566 148.164 7.30469 148.164 8.67969V16.7148H146.863ZM142.896 15.458C143.989 15.458 144.846 15.1536 145.467 14.5449C146.094 13.9362 146.408 13.084 146.408 11.9883V10.9248L144.652 11C143.256 11.0501 142.248 11.2721 141.627 11.666C141.014 12.0527 140.707 12.6579 140.707 13.4814C140.707 14.126 140.897 14.6165 141.278 14.9531C141.666 15.2897 142.205 15.458 142.896 15.458Z" />
<path d="M157.187 4.74805C158.71 4.74805 159.891 5.27799 160.731 6.33789C161.577 7.39062 162 8.88379 162 10.8174C162 12.751 161.573 14.2549 160.72 15.3291C159.874 16.3962 158.696 16.9297 157.187 16.9297C156.433 16.9297 155.741 16.79 155.114 16.5107C154.493 16.2243 153.971 15.7874 153.548 15.2002H153.421L153.051 16.7148H151.792V0H153.548V4.06055C153.548 4.97005 153.52 5.78646 153.464 6.50976H153.548C154.366 5.33529 155.579 4.74805 157.187 4.74805ZM156.933 6.24121C155.734 6.24121 154.871 6.59212 154.342 7.29395C153.813 7.98861 153.548 9.16308 153.548 10.8174C153.548 12.4717 153.82 13.6569 154.363 14.373C154.906 15.082 155.777 15.4365 156.976 15.4365C158.054 15.4365 158.858 15.0391 159.387 14.2441C159.916 13.4421 160.181 12.2926 160.181 10.7959C160.181 9.26335 159.916 8.12109 159.387 7.36914C158.858 6.61719 158.04 6.24121 156.933 6.24121Z" />
</svg>
