<svg width="16" height="16" viewBox="0 0 16 16" xmlns="http://www.w3.org/2000/svg">
<path d="M7.07033 5.43282V2.01051C7.07033 1.45242 7.51433 1 8.06207 1C8.29467 1 8.5198 1.08326 8.6982 1.23524L15.5896 7.10546C16.0745 7.51846 16.1389 8.25381 15.7336 8.74787C15.6899 8.801 15.6418 8.85007 15.5896 8.89452L8.6982 14.7647C8.278 15.1227 7.65253 15.0658 7.3012 14.6376C7.152 14.4558 7.07033 14.2264 7.07033 13.9895V10.8371C3.72981 10.8371 2.24724 12.1381 0.381107 14.6676C0.317174 14.7542 0 14.8438 0 14.4485C0 9.55154 1.26714 5.43282 7.07033 5.43282Z"/>
</svg>
