<svg  viewBox="0 0 16 16"  xmlns="http://www.w3.org/2000/svg">
<path d="M5 14H11C12.5 14 13 13.5 13 12V4H15V13C15 14.5 13.5 16 12 16H5V14Z" />
<path d="M4 4C3.44772 4 3 4.44772 3 5C3 5.55228 3.44772 6 4 6V4ZM8 6C8.55228 6 9 5.55228 9 5C9 4.44772 8.55228 4 8 4V6ZM4 7C3.44772 7 3 7.44772 3 8C3 8.55228 3.44772 9 4 9V7ZM8 9C8.55228 9 9 8.55228 9 8C9 7.44772 8.55228 7 8 7V9ZM3 2H9V0H3V2ZM10 3V10H12V3H10ZM9 11H3V13H9V11ZM2 10V3H0V10H2ZM3 11C2.44772 11 2 10.5523 2 10H0C0 11.6569 1.34315 13 3 13V11ZM10 10C10 10.5523 9.55228 11 9 11V13C10.6569 13 12 11.6569 12 10H10ZM9 2C9.55228 2 10 2.44772 10 3H12C12 1.34315 10.6569 0 9 0V2ZM3 0C1.34315 0 0 1.34315 0 3H2C2 2.44772 2.44772 2 3 2V0ZM4 6H8V4H4V6ZM4 9H8V7H4V9Z" />
</svg>
