<svg viewBox="0 0 200 200" xmlns="http://www.w3.org/2000/svg">
<path d="M100 200C155.228 200 200 155.228 200 100C200 44.7715 155.228 0 100 0C44.7715 0 0 44.7715 0 100C0 155.228 44.7715 200 100 200ZM109.535 130.532H89.5549L84 30H115L109.535 130.532ZM85.4335 160.319C84.5973 158.333 84.1792 156.223 84.1792 153.989C84.1792 151.817 84.5973 149.77 85.4335 147.846C86.21 145.922 87.2852 144.246 88.659 142.819C90.0328 141.392 91.6455 140.275 93.4971 139.468C95.3487 138.599 97.3198 138.165 99.4104 138.165C101.561 138.165 103.562 138.599 105.413 139.468C107.265 140.275 108.908 141.392 110.341 142.819C111.715 144.246 112.82 145.922 113.656 147.846C114.433 149.77 114.821 151.817 114.821 153.989C114.821 156.223 114.433 158.333 113.656 160.319C112.82 162.243 111.715 163.918 110.341 165.346C108.908 166.773 107.265 167.89 105.413 168.697C103.562 169.566 101.561 170 99.4104 170C97.3198 170 95.3487 169.566 93.4971 168.697C91.6455 167.89 90.0328 166.773 88.659 165.346C87.2852 163.918 86.21 162.243 85.4335 160.319Z"/>
</svg>
