<svg width="16" height="16" viewBox="0 0 16 16"  xmlns="http://www.w3.org/2000/svg">
<path fill-rule="evenodd" clip-rule="evenodd" d="M1.26285 3.32427C1.63604 2.91715 2.26861 2.88964 2.67572 3.26284L8 8.14342L13.3243 3.26284C13.7314 2.88965 14.364 2.91715 14.7372 3.32427C15.1103 3.73139 15.0828 4.36395 14.6757 4.73715L8 10.8566L1.32428 4.73714C0.917156 4.36395 0.889653 3.73139 1.26285 3.32427ZM14 13L2 13C1.44772 13 1 12.5523 1 12C1 11.4477 1.44772 11 2 11L14 11C14.5523 11 15 11.4477 15 12C15 12.5523 14.5523 13 14 13Z" />
</svg>
