<svg viewBox="0 0 1024 1024" version="1.1" xmlns="http://www.w3.org/2000/svg" ><path d="M512.273212 0.000984c283.047754 0.546424 511.999508 230.044603 511.453084 511.999508-0.546424 282.50133-230.591027 511.999508-511.999508 511.453084C229.225458 1023.453576 0.820128 794.501821 0.273704 511.454068-0.27272 229.499162 230.318307-0.545441 512.273212 0.000984zM559.812121 664.452853c1.092848-2.185697 2.185697-3.278545 2.732121-4.371394 0.546424-3.278545 1.092848-6.557091 1.639273-10.38206 4.371394-54.642424 29.506909-98.356362 66.663757-136.606059 14.20703-14.753454 27.867636-30.053333 41.528242-44.806787 41.528242-44.806787 51.363878-97.809938 38.796121-155.730907-18.032-80.324363-85.242181-142.616725-168.298664-156.277331C464.734304 143.164133 381.67782 181.41383 339.05673 250.263283c-20.217697 32.23903-31.692606 67.210181-30.599757 108.191999 25.681939 0 50.27103 0 74.86012 0 8.196364 0 15.846303 0 24.589091 0 1.092848-5.464242 1.092848-8.742788 1.639273-12.021333 7.103515-44.260363 42.074666-81.963635 82.510059-88.520726 45.353212-7.649939 87.427878 12.567757 109.831271 53.549575 21.856969 38.796121 15.299879 82.510059-18.032 118.027635-24.042666 26.228363-49.724605 50.817454-72.674423 77.592241-38.796121 44.806787-55.188848 97.263514-48.631757 157.916604C496.426909 664.452853 528.665939 664.452853 559.812121 664.452853zM463.641455 770.459155c0 33.878303 0 65.570908 0 97.263514 33.331878 0 65.024484 0 97.263514 0 0-32.785454 0-64.47806 0-97.263514C528.119515 770.459155 496.426909 770.459155 463.641455 770.459155z"></path></svg>