<svg  width="24" viewBox="0 0 24 15" version="1.1"  xmlns:xlink="http://www.w3.org/1999/xlink" xmlns="http://www.w3.org/2000/svg">
  <defs>
    <linearGradient x1="0.6722689" y1="0" x2="0.6806723" y2="1" id="py_gradient_1">
      <stop offset="0" stop-color="#52A4E6" />
      <stop offset="1" stop-color="#375EBB" />
    </linearGradient>
  </defs>
  <path d="M24 0.234833L19.3925 11.8586C18.5707 13.9329 17.4161 14.97 15.9289 14.97C15.5114 14.97 15.1625 14.9276 14.882 14.8428L14.882 13.4045C15.2277 13.5219 15.544 13.5806 15.831 13.5806C16.6399 13.5806 17.2465 13.0979 17.6509 12.1326L18.4532 10.2344L14.5395 0.234833L16.3203 0.234833L19.0305 7.94487C19.0631 8.04271 19.1316 8.2971 19.236 8.70804L19.2947 8.70804C19.3273 8.55149 19.3925 8.30363 19.4904 7.96444L22.3376 0.234833L24.0009 0.234833ZM6.20327 8.80588L6.16413 8.80588L6.16413 14.8624L4.55951 14.8624L4.55951 0.234823L6.16413 0.234823L6.16413 1.996L6.20327 1.996C6.99254 0.665333 8.14709 0 9.66691 0C10.9584 0 11.9662 0.448447 12.6903 1.34534C13.4143 2.24224 13.7763 3.44408 13.7763 4.95086C13.7763 6.62724 13.3686 7.96932 12.5533 8.9771C11.7379 9.98489 10.6225 10.4888 9.20705 10.4888C7.909 10.4888 6.90774 9.92781 6.20327 8.80588L6.20327 8.80588ZM6.164 4.76493L6.164 6.16409C6.164 6.99249 6.43307 7.69533 6.97121 8.2726C7.50934 8.84988 8.19261 9.13852 9.02102 9.13852C9.99293 9.13852 10.7545 8.76671 11.3057 8.02311C11.8568 7.2795 12.1324 6.24562 12.1324 4.92148C12.1324 3.80607 11.8748 2.932 11.3595 2.29928C10.8442 1.66656 10.1462 1.35021 9.26563 1.3502C8.33286 1.3502 7.58273 1.67472 7.01524 2.32374C6.44775 2.97277 6.164 3.7865 6.164 4.76493L6.164 4.76493ZM1.08606 10.4692C0.786006 10.4692 0.529983 10.3616 0.31799 10.1463C0.105997 9.93108 -9.95311e-08 9.67342 0 9.37337C0 9.07332 0.105997 8.81404 0.31799 8.59552C0.529983 8.377 0.786006 8.26775 1.08606 8.26775C1.39263 8.26775 1.65355 8.377 1.8688 8.59552C2.08406 8.81404 2.19168 9.07332 2.19168 9.37337C2.19168 9.67342 2.08406 9.93108 1.8688 10.1463C1.65355 10.3616 1.39263 10.4692 1.08606 10.4692L1.08606 10.4692Z" fill="url(#py_gradient_1)" stroke="none" />
</svg>