<?xml version="1.0" encoding="utf-8"?>
<svg viewBox="0 0 30 30" version="1.1" xmlns:xlink="http://www.w3.org/1999/xlink" xmlns="http://www.w3.org/2000/svg">
  <path d="M0.775497 5.18875L9.77549 0.188751C10.002 0.062912 10.2448 0 10.504 0C10.7631 0 11.0059 0.062912 11.2324 0.188751L20.2324 5.18875C20.5945 5.38991 20.8325 5.68961 20.9463 6.08788C21.06 6.48616 21.0164 6.86635 20.8152 7.22845C20.614 7.59053 20.3143 7.82848 19.916 7.94226C19.5178 8.05605 19.1376 8.01237 18.7755 7.81122L16.4153 6.49998L10.504 3.21593L4.59264 6.49998L2.23243 7.81122C2.05856 7.90782 1.87281 7.96747 1.67519 7.99017C1.47757 8.01288 1.28313 7.9969 1.09187 7.94226C0.90062 7.88762 0.727097 7.79846 0.571304 7.67479C0.41552 7.55112 0.28933 7.40233 0.192726 7.22845C-0.00843811 6.86635 -0.052124 6.48618 0.061676 6.08791C0.175468 5.68962 0.413406 5.38991 0.775497 5.18875L0.775497 5.18875Z" transform="matrix(1 0 0 -1 4.4960938 19.503845)" id="Vector" fill="#80A7E4" fill-rule="evenodd" stroke="none" />
</svg>