<?xml version="1.0" encoding="utf-8"?>
<svg  viewBox="0 0 30 30" version="1.1" xmlns:xlink="http://www.w3.org/1999/xlink" xmlns="http://www.w3.org/2000/svg">
  <path d="M19.5 0L1.5 0C1.08579 4.37101e-07 0.732233 0.536971 0.43934 1.61091C0.146447 2.68485 1.19209e-07 3.98122 0 5.5C1.19209e-07 7.01878 0.146447 8.31515 0.43934 9.38909C0.732233 10.463 1.08579 11 1.5 11L19.5 11C19.9142 11 20.2678 10.463 20.5607 9.38909C20.8536 8.31515 21 7.01878 21 5.5C21 3.98122 20.8536 2.68485 20.5607 1.61091C20.2678 0.536971 19.9142 4.37101e-07 19.5 0L19.5 0Z" transform="translate(4.5 10)" id="Vector" fill="#80A7E4" fill-rule="evenodd" stroke="none" />
</svg>