<svg width="16" height="16" viewBox="0 0 16 16" xmlns="http://www.w3.org/2000/svg">
<path d="M5.02637 8.0127H3.39258C3.39714 7.59798 3.43132 7.24251 3.49512 6.94629C3.56348 6.65006 3.67513 6.38346 3.83008 6.14648C3.98503 5.90495 4.19466 5.65885 4.45898 5.4082C4.66862 5.21224 4.85547 5.02767 5.01953 4.85449C5.18815 4.67676 5.32031 4.49219 5.41602 4.30078C5.51172 4.10482 5.55957 3.88379 5.55957 3.6377C5.55957 3.3597 5.514 3.12728 5.42285 2.94043C5.33626 2.75358 5.20638 2.6123 5.0332 2.5166C4.86458 2.41634 4.65267 2.36621 4.39746 2.36621C4.18783 2.36621 3.98958 2.40951 3.80273 2.49609C3.61589 2.58268 3.46549 2.71712 3.35156 2.89941C3.23763 3.07715 3.17611 3.30957 3.16699 3.59668H1.35547C1.36914 2.99967 1.51042 2.50293 1.7793 2.10645C2.04818 1.7054 2.41048 1.4069 2.86621 1.21094C3.32194 1.01042 3.83236 0.910156 4.39746 0.910156C5.02181 0.910156 5.55501 1.01497 5.99707 1.22461C6.44369 1.42969 6.7832 1.73047 7.01562 2.12695C7.2526 2.52344 7.37109 3.00195 7.37109 3.5625C7.37109 3.96354 7.29362 4.32357 7.13867 4.64258C6.98372 4.95703 6.77865 5.25098 6.52344 5.52441C6.26823 5.79785 5.99251 6.07357 5.69629 6.35156C5.43652 6.58398 5.26107 6.83236 5.16992 7.09668C5.07878 7.361 5.03092 7.66634 5.02637 8.0127ZM3.22168 10.1387C3.22168 9.86523 3.31283 9.63737 3.49512 9.45508C3.68197 9.27279 3.93262 9.18164 4.24707 9.18164C4.56152 9.18164 4.8099 9.27279 4.99219 9.45508C5.17904 9.63737 5.27246 9.86523 5.27246 10.1387C5.27246 10.403 5.17904 10.6263 4.99219 10.8086C4.8099 10.9909 4.56152 11.082 4.24707 11.082C3.93262 11.082 3.68197 10.9909 3.49512 10.8086C3.31283 10.6263 3.22168 10.403 3.22168 10.1387Z"/>
<path d="M12.0264 12.0127H10.3926C10.3971 11.598 10.4313 11.2425 10.4951 10.9463C10.5635 10.6501 10.6751 10.3835 10.8301 10.1465C10.985 9.90495 11.1947 9.65885 11.459 9.4082C11.6686 9.21224 11.8555 9.02767 12.0195 8.85449C12.1882 8.67676 12.3203 8.49219 12.416 8.30078C12.5117 8.10482 12.5596 7.88379 12.5596 7.6377C12.5596 7.3597 12.514 7.12728 12.4229 6.94043C12.3363 6.75358 12.2064 6.6123 12.0332 6.5166C11.8646 6.41634 11.6527 6.36621 11.3975 6.36621C11.1878 6.36621 10.9896 6.40951 10.8027 6.49609C10.6159 6.58268 10.4655 6.71712 10.3516 6.89941C10.2376 7.07715 10.1761 7.30957 10.167 7.59668H8.35547C8.36914 6.99967 8.51042 6.50293 8.7793 6.10645C9.04818 5.7054 9.41048 5.4069 9.86621 5.21094C10.3219 5.01042 10.8324 4.91016 11.3975 4.91016C12.0218 4.91016 12.555 5.01497 12.9971 5.22461C13.4437 5.42969 13.7832 5.73047 14.0156 6.12695C14.2526 6.52344 14.3711 7.00195 14.3711 7.5625C14.3711 7.96354 14.2936 8.32357 14.1387 8.64258C13.9837 8.95703 13.7786 9.25098 13.5234 9.52441C13.2682 9.79785 12.9925 10.0736 12.6963 10.3516C12.4365 10.584 12.2611 10.8324 12.1699 11.0967C12.0788 11.361 12.0309 11.6663 12.0264 12.0127ZM10.2217 14.1387C10.2217 13.8652 10.3128 13.6374 10.4951 13.4551C10.682 13.2728 10.9326 13.1816 11.2471 13.1816C11.5615 13.1816 11.8099 13.2728 11.9922 13.4551C12.179 13.6374 12.2725 13.8652 12.2725 14.1387C12.2725 14.403 12.179 14.6263 11.9922 14.8086C11.8099 14.9909 11.5615 15.082 11.2471 15.082C10.9326 15.082 10.682 14.9909 10.4951 14.8086C10.3128 14.6263 10.2217 14.403 10.2217 14.1387Z"/>
</svg>
