<svg width="16" height="16" viewBox="0 0 16 16" fill="none" xmlns="http://www.w3.org/2000/svg">
<path d="M5.19926 3.36607L2.73085 11H1L4.23569 2H5.34201L5.19926 3.36607ZM7.2632 11L4.7829 3.36607L4.6342 2H5.74647L9 11H7.2632ZM7.15019 7.65591V8.99725H2.50483V7.65591H7.15019Z"/>
<path d="M13.402 8.09105C13.4887 8.12867 13.5676 8.18236 13.6345 8.2493L15.5987 10.2155C15.6848 10.3017 15.7485 10.4075 15.7845 10.5238C15.8205 10.6402 15.8276 10.7635 15.8053 10.8832C15.7829 11.0029 15.7318 11.1153 15.6562 11.2108C15.5807 11.3063 15.483 11.382 15.3717 11.4313L14.6757 11.7395L13.37 13.0468L13.2665 14.4848C13.2561 14.6282 13.2048 14.7656 13.1186 14.8806C13.0324 14.9956 12.9149 15.0835 12.7802 15.1337C12.6455 15.1838 12.4992 15.1942 12.3587 15.1636C12.2183 15.133 12.0896 15.0627 11.988 14.961L10.72 13.6918L8.55921 15.8625L8.02771 15.3333L10.1897 13.1613L8.87796 11.8485C8.7765 11.747 8.70632 11.6185 8.67575 11.4782C8.64517 11.3379 8.65549 11.1919 8.70548 11.0573C8.75547 10.9227 8.84303 10.8053 8.95775 10.7191C9.07248 10.6328 9.20956 10.5812 9.35271 10.5705L10.8317 10.46L12.1142 9.17605L12.4155 8.48105C12.4546 8.39066 12.5112 8.30887 12.582 8.24035C12.6527 8.17183 12.7363 8.11792 12.8279 8.0817C12.9195 8.04549 13.0174 8.02767 13.1159 8.02927C13.2144 8.03088 13.3116 8.05187 13.402 8.09105Z"/>
</svg>
