<!-- <svg viewBox="0 0 16 16" xmlns="http://www.w3.org/2000/svg">
<g clip-path="url(#clip0_201_8)">
<path d="M2.50586 1.96973L0.479492 8H-0.941406L1.71484 0.890625H2.62305L2.50586 1.96973ZM4.2002 8L2.16406 1.96973L2.04199 0.890625H2.95508L5.62598 8H4.2002ZM4.10742 5.3584V6.41797H0.293945V5.3584H4.10742Z" />
<path d="M10.5059 1.96973L8.47949 8H7.05859L9.71484 0.890625H10.623L10.5059 1.96973ZM12.2002 8L10.1641 1.96973L10.042 0.890625H10.9551L13.626 8H12.2002ZM12.1074 5.3584V6.41797H8.29395V5.3584H12.1074Z" />
<path d="M5.40332 12.8311H3.58691L3.57715 11.8838H5.13477C5.40169 11.8838 5.62467 11.8464 5.80371 11.7715C5.98275 11.6966 6.11784 11.5876 6.20898 11.4443C6.30339 11.3011 6.35059 11.127 6.35059 10.9219C6.35059 10.694 6.30664 10.5085 6.21875 10.3652C6.13411 10.222 6.00065 10.1178 5.81836 10.0527C5.63607 9.98438 5.40495 9.9502 5.125 9.9502H4.02148V16H2.67871V8.89062H5.125C5.52865 8.89062 5.88835 8.92969 6.2041 9.00781C6.52311 9.08268 6.79329 9.19987 7.01465 9.35938C7.236 9.51888 7.40365 9.71908 7.51758 9.95996C7.63477 10.2008 7.69336 10.4873 7.69336 10.8193C7.69336 11.1123 7.625 11.3825 7.48828 11.6299C7.35482 11.874 7.14811 12.0726 6.86816 12.2256C6.59147 12.3786 6.23991 12.4665 5.81348 12.4893L5.40332 12.8311ZM5.34473 16H3.19141L3.75293 14.9453H5.34473C5.61165 14.9453 5.83138 14.9014 6.00391 14.8135C6.17969 14.7256 6.3099 14.6051 6.39453 14.4521C6.48242 14.2959 6.52637 14.1169 6.52637 13.915C6.52637 13.6937 6.4873 13.5016 6.40918 13.3389C6.33431 13.1761 6.21387 13.0508 6.04785 12.9629C5.88509 12.875 5.67025 12.8311 5.40332 12.8311H4.00684L4.0166 11.8838H5.79395L6.10156 12.25C6.51172 12.2533 6.84538 12.3346 7.10254 12.4941C7.36296 12.6536 7.55501 12.8587 7.67871 13.1094C7.80241 13.36 7.86426 13.6302 7.86426 13.9199C7.86426 14.3757 7.76497 14.7581 7.56641 15.0674C7.37109 15.3766 7.08464 15.6094 6.70703 15.7656C6.33268 15.9219 5.87858 16 5.34473 16Z" />
<path d="M13.4033 12.8311H11.5869L11.5771 11.8838H13.1348C13.4017 11.8838 13.6247 11.8464 13.8037 11.7715C13.9827 11.6966 14.1178 11.5876 14.209 11.4443C14.3034 11.3011 14.3506 11.127 14.3506 10.9219C14.3506 10.694 14.3066 10.5085 14.2188 10.3652C14.1341 10.222 14.0007 10.1178 13.8184 10.0527C13.6361 9.98438 13.4049 9.9502 13.125 9.9502H12.0215V16H10.6787V8.89062H13.125C13.5286 8.89062 13.8883 8.92969 14.2041 9.00781C14.5231 9.08268 14.7933 9.19987 15.0146 9.35938C15.236 9.51888 15.4036 9.71908 15.5176 9.95996C15.6348 10.2008 15.6934 10.4873 15.6934 10.8193C15.6934 11.1123 15.625 11.3825 15.4883 11.6299C15.3548 11.874 15.1481 12.0726 14.8682 12.2256C14.5915 12.3786 14.2399 12.4665 13.8135 12.4893L13.4033 12.8311ZM13.3447 16H11.1914L11.7529 14.9453H13.3447C13.6117 14.9453 13.8314 14.9014 14.0039 14.8135C14.1797 14.7256 14.3099 14.6051 14.3945 14.4521C14.4824 14.2959 14.5264 14.1169 14.5264 13.915C14.5264 13.6937 14.4873 13.5016 14.4092 13.3389C14.3343 13.1761 14.2139 13.0508 14.0479 12.9629C13.8851 12.875 13.6702 12.8311 13.4033 12.8311H12.0068L12.0166 11.8838H13.7939L14.1016 12.25C14.5117 12.2533 14.8454 12.3346 15.1025 12.4941C15.363 12.6536 15.555 12.8587 15.6787 13.1094C15.8024 13.36 15.8643 13.6302 15.8643 13.9199C15.8643 14.3757 15.765 14.7581 15.5664 15.0674C15.3711 15.3766 15.0846 15.6094 14.707 15.7656C14.3327 15.9219 13.8786 16 13.3447 16Z" />
</g>
</svg> -->


<!-- <svg width="16" height="16" viewBox="0 0 16 16" fill="none" xmlns="http://www.w3.org/2000/svg">
<path d="M8.88894 0.788916H8.78894V0.888916V4.44447V4.54447H8.88894H9.77783H9.87783V4.44447V1.8778H13.2334V14.1222H9.87783V13.3334V13.2334H9.77783H8.88894H8.78894V13.3334V15.1111V15.2111H8.88894H14.2223H14.3223V15.1111V0.888916V0.788916H14.2223H8.88894ZM6.12228 11.5556V14.1222H2.76672V1.8778H6.12228V2.66669V2.76669H6.22228H7.11117H7.21117V2.66669V0.888916V0.788916H7.11117H1.77783H1.67783V0.888916V15.1111V15.2111H1.77783H7.11117H7.21117V15.1111V11.5556V11.4556H7.11117H6.22228H6.12228V11.5556Z" fill="#8aa8c7" stroke="#8aa8c7" stroke-width="0.2"/>
<path d="M7.09751 3.40082L7.02712 3.32038L6.95154 3.39596L3.3071 7.04041L3.13639 7.21112H3.37781H12.4445H12.5445V7.11112V6.22223V6.12223H12.4445H5.76002L7.71366 4.24998L7.78267 4.18386L7.71973 4.11194L7.09751 3.40082ZM8.90255 12.5992L8.97294 12.6796L9.04852 12.6041L12.693 8.95961L12.8637 8.7889H12.6223H3.55559H3.45559V8.8889V9.77779V9.87779H3.55559H10.24L8.28639 11.75L8.21739 11.8162L8.28033 11.8881L8.90255 12.5992Z" fill="#8aa8c7" stroke="#8aa8c7" stroke-width="0.2"/>
</svg> -->

<svg width="16" height="16" viewBox="0 0 16 16" fill="none" xmlns="http://www.w3.org/2000/svg">
<rect width="16" height="16" fill="#D9D9D9"/>
<rect width="16" height="16" fill="#8aa8c7"/>
<path d="M14 2H2V3L8 5L14 3V2Z" fill="white"/>
<path fill-rule="evenodd" clip-rule="evenodd" d="M2 7H1V9H2V8H4V10H2V11H4V13H2V12H1V13V14H4H5V8V7H2Z" fill="white"/>
<path fill-rule="evenodd" clip-rule="evenodd" d="M6 7H7H10V8H7V10H9V11H7V14H6V7Z" fill="white"/>
<path fill-rule="evenodd" clip-rule="evenodd" d="M11 7H15V8V9H14V8H12V10H15V11V14H14H11V13V12H12V13H14V11H12H11V8V7Z" fill="white"/>
</svg>
