<svg viewBox="0 0 30 30" version="1.1" xmlns:xlink="http://www.w3.org/1999/xlink" xmlns="http://www.w3.org/2000/svg">
  <path d="M19.5 0L1.5 0C1.08579 1.19209e-07 0.732233 0.146447 0.43934 0.43934C0.146447 0.732233 1.19209e-07 1.08579 0 1.5C1.19209e-07 1.91421 0.146447 2.26777 0.43934 2.56066C0.732233 2.85355 1.08579 3 1.5 3L19.5 3C19.9142 3 20.2678 2.85355 20.5607 2.56066C20.8536 2.26777 21 1.91421 21 1.5C21 1.08579 20.8536 0.732233 20.5607 0.43934C20.2678 0.146447 19.9142 1.19209e-07 19.5 0L19.5 0Z" transform="translate(4.5 15)" id="Vector" fill="#80A7E4" fill-rule="evenodd" stroke="none" />
</svg>