<svg width="162" height="26" viewBox="0 0 162 26" xmlns="http://www.w3.org/2000/svg">
<path d="M12.9636 12.2321V14.1497H5.85582V12.2321H12.9636ZM6.55175 6.89664V19.8224H4V6.89664H6.55175ZM14.8565 6.89664V19.8224H12.3048V6.89664H14.8565Z" />
<path d="M23.9445 8.85859L20.0937 19.8224H17.3935L22.4413 6.89664H24.1672L23.9445 8.85859ZM27.1643 19.8224L23.295 8.85859L23.063 6.89664H24.7982L29.8738 19.8224H27.1643ZM26.988 15.0197V16.9461H19.7411V15.0197H26.988Z" />
<path d="M34.9347 6.89664V19.8224H32.3829V6.89664H34.9347Z" />
<path d="M47.3258 15.1084H43.8461V13.1909H47.3258C47.8949 13.1909 48.3558 13.1021 48.7084 12.9245C49.0672 12.7411 49.3301 12.4925 49.4971 12.1788C49.6641 11.8592 49.7476 11.4952 49.7476 11.0869C49.7476 10.6903 49.6641 10.3204 49.4971 9.97717C49.3301 9.6339 49.0672 9.35574 48.7084 9.14268C48.3558 8.92961 47.8949 8.82308 47.3258 8.82308H44.6813V19.8224H42.1295V6.89664H47.3258C48.3774 6.89664 49.2744 7.07715 50.0167 7.43817C50.7653 7.79328 51.3344 8.28747 51.7241 8.92074C52.12 9.54809 52.318 10.2642 52.318 11.0691C52.318 11.9036 52.12 12.6227 51.7241 13.2264C51.3344 13.8301 50.7653 14.2947 50.0167 14.6202C49.2744 14.9457 48.3774 15.1084 47.3258 15.1084Z" />
<path d="M57.685 6.18643V19.8224H55.226V6.18643H57.685Z" />
<path d="M66.5038 17.7806V13.3507C66.5038 13.0252 66.4451 12.744 66.3275 12.5073C66.21 12.2706 66.0306 12.0871 65.7894 11.9569C65.5481 11.8267 65.2419 11.7616 64.8707 11.7616C64.5429 11.7616 64.2552 11.8148 64.0078 11.9214C63.7665 12.0279 63.5809 12.1788 63.451 12.3741C63.3211 12.5635 63.2562 12.7825 63.2562 13.0311H60.7972C60.7972 12.6345 60.8962 12.2587 61.0941 11.9036C61.2921 11.5426 61.5736 11.223 61.9385 10.9448C62.3097 10.6607 62.752 10.4388 63.2654 10.279C63.7851 10.1192 64.3666 10.0393 65.0099 10.0393C65.7708 10.0393 66.4482 10.1636 67.042 10.4122C67.6421 10.6548 68.1122 11.0218 68.4525 11.513C68.7989 12.0042 68.9721 12.6227 68.9721 13.3684V17.5587C68.9721 18.038 69.003 18.4494 69.0649 18.7926C69.1329 19.13 69.2319 19.423 69.3618 19.6715V19.8224H66.8657C66.7482 19.5798 66.6585 19.272 66.5966 18.8992C66.5348 18.5204 66.5038 18.1475 66.5038 17.7806ZM66.8472 13.9721L66.8657 15.3659H65.3161C64.9326 15.3659 64.5954 15.4044 64.3047 15.4813C64.014 15.5523 63.7758 15.6588 63.5902 15.8009C63.4046 15.937 63.2654 16.1027 63.1726 16.298C63.0799 16.4874 63.0335 16.7034 63.0335 16.9461C63.0335 17.1828 63.0891 17.3959 63.2005 17.5853C63.318 17.7747 63.485 17.9256 63.7016 18.038C63.9243 18.1446 64.1841 18.1978 64.481 18.1978C64.914 18.1978 65.2914 18.115 65.613 17.9493C65.9347 17.7776 66.1853 17.5705 66.3647 17.3278C66.5441 17.0852 66.6399 16.8544 66.6523 16.6354L67.3575 17.6474C67.2709 17.8901 67.141 18.1475 66.9678 18.4198C66.7946 18.692 66.5719 18.9465 66.2997 19.1833C66.0275 19.42 65.6997 19.6153 65.3161 19.7692C64.9326 19.9231 64.4872 20 63.9799 20C63.3304 20 62.7489 19.8757 62.2355 19.6271C61.722 19.3786 61.3168 19.0383 61.0199 18.6062C60.723 18.1742 60.5745 17.6829 60.5745 17.1325C60.5745 16.6235 60.6735 16.1737 60.8714 15.7831C61.0694 15.3925 61.3632 15.064 61.7529 14.7977C62.1427 14.5255 62.6252 14.3213 63.2005 14.1852C63.782 14.0431 64.447 13.9721 65.1955 13.9721H66.8472Z" />
<path d="M76.8816 10.2169V11.9036H71.1285V10.2169H76.8816ZM72.6689 7.85542H75.1278V17.0526C75.1278 17.3367 75.168 17.5557 75.2485 17.7096C75.3289 17.8635 75.4495 17.967 75.6104 18.0203C75.7712 18.0736 75.963 18.1002 76.1857 18.1002C76.3465 18.1002 76.495 18.0913 76.6311 18.0736C76.7671 18.0558 76.8816 18.038 76.9744 18.0203L76.9837 19.7781C76.7795 19.8432 76.5475 19.8964 76.2877 19.9379C76.0341 19.9793 75.7464 20 75.4248 20C74.8742 20 74.3917 19.9112 73.9772 19.7337C73.5628 19.5502 73.2411 19.2572 73.0122 18.8548C72.7833 18.4464 72.6689 17.9078 72.6689 17.2391V7.85542Z" />
<path d="M82.6755 19.8224H80.2072V9.32911C80.2072 8.60706 80.3526 8.00042 80.6433 7.50919C80.9341 7.01205 81.3485 6.63623 81.8867 6.38174C82.4249 6.12725 83.059 6 83.7889 6C84.0302 6 84.2591 6.0148 84.4756 6.04439C84.6983 6.07398 84.9179 6.11541 85.1344 6.16867L85.088 7.95308C84.9705 7.92348 84.8406 7.90277 84.6983 7.89093C84.5622 7.8791 84.4107 7.87318 84.2436 7.87318C83.9096 7.87318 83.625 7.9294 83.39 8.04185C83.1549 8.1543 82.9755 8.32002 82.8518 8.539C82.7342 8.75206 82.6755 9.01543 82.6755 9.32911V19.8224ZM84.7076 10.2169V11.9036H78.6947V10.2169H84.7076Z" />
<path d="M86.7341 15.1173V14.9309C86.7341 14.2266 86.8393 13.5785 87.0496 12.9867C87.2599 12.3889 87.5662 11.8711 87.9683 11.4331C88.3703 10.9951 88.8621 10.6548 89.4436 10.4122C90.0251 10.1636 90.687 10.0393 91.4294 10.0393C92.1841 10.0393 92.8522 10.1636 93.4336 10.4122C94.0213 10.6548 94.5162 10.9951 94.9183 11.4331C95.3204 11.8711 95.6266 12.3889 95.8369 12.9867C96.0473 13.5785 96.1524 14.2266 96.1524 14.9309V15.1173C96.1524 15.8157 96.0473 16.4637 95.8369 17.0615C95.6266 17.6533 95.3204 18.1712 94.9183 18.6151C94.5162 19.0531 94.0244 19.3934 93.4429 19.636C92.8614 19.8787 92.1964 20 91.4479 20C90.7056 20 90.0406 19.8787 89.4529 19.636C88.8652 19.3934 88.3703 19.0531 87.9683 18.6151C87.5662 18.1712 87.2599 17.6533 87.0496 17.0615C86.8393 16.4637 86.7341 15.8157 86.7341 15.1173ZM89.1838 14.9309V15.1173C89.1838 15.5375 89.2271 15.9311 89.3137 16.298C89.4003 16.665 89.5333 16.9875 89.7127 17.2657C89.8921 17.5439 90.1241 17.7628 90.4087 17.9226C90.6994 18.0765 91.0458 18.1535 91.4479 18.1535C91.8438 18.1535 92.1841 18.0765 92.4686 17.9226C92.7532 17.7628 92.9852 17.5439 93.1646 17.2657C93.3501 16.9875 93.4862 16.665 93.5728 16.298C93.6594 15.9311 93.7027 15.5375 93.7027 15.1173V14.9309C93.7027 14.5166 93.6594 14.1289 93.5728 13.7679C93.4862 13.401 93.3501 13.0784 93.1646 12.8003C92.9852 12.5162 92.7501 12.2942 92.4593 12.1344C92.1748 11.9687 91.8315 11.8859 91.4294 11.8859C91.0334 11.8859 90.6932 11.9687 90.4087 12.1344C90.1241 12.2942 89.8921 12.5162 89.7127 12.8003C89.5333 13.0784 89.4003 13.401 89.3137 13.7679C89.2271 14.1289 89.1838 14.5166 89.1838 14.9309Z" />
<path d="M101.334 12.1788V19.8224H98.8842V10.2169H101.204L101.334 12.1788ZM104.387 10.1547L104.35 12.3386C104.213 12.3149 104.059 12.2972 103.886 12.2854C103.719 12.2735 103.561 12.2676 103.412 12.2676C103.035 12.2676 102.704 12.3179 102.42 12.4185C102.135 12.5132 101.897 12.6523 101.705 12.8358C101.519 13.0192 101.377 13.2441 101.278 13.5105C101.179 13.7709 101.124 14.0668 101.111 14.3982L100.582 14.3361C100.582 13.7265 100.647 13.1613 100.777 12.6405C100.907 12.1196 101.096 11.6639 101.343 11.2733C101.591 10.8827 101.9 10.5808 102.271 10.3678C102.648 10.1488 103.081 10.0393 103.57 10.0393C103.706 10.0393 103.852 10.0512 104.006 10.0748C104.167 10.0926 104.294 10.1192 104.387 10.1547Z" />
<path d="M109.123 12.1877V19.8224H106.673V10.2169H108.984L109.123 12.1877ZM108.761 14.6734H108.009C108.009 14.0047 108.093 13.3891 108.26 12.8269C108.433 12.2646 108.687 11.7764 109.021 11.3621C109.355 10.9419 109.766 10.6164 110.255 10.3855C110.75 10.1547 111.322 10.0393 111.971 10.0393C112.423 10.0393 112.837 10.1044 113.215 10.2346C113.592 10.3589 113.917 10.5572 114.189 10.8294C114.468 11.0958 114.681 11.4449 114.829 11.877C114.978 12.3031 115.052 12.815 115.052 13.4128V19.8224H112.602V13.6525C112.602 13.2027 112.534 12.8506 112.398 12.5961C112.268 12.3416 112.08 12.164 111.832 12.0634C111.585 11.9569 111.288 11.9036 110.941 11.9036C110.558 11.9036 110.227 11.9776 109.949 12.1256C109.676 12.2676 109.451 12.4659 109.271 12.7204C109.098 12.9748 108.968 13.2678 108.881 13.5992C108.801 13.9307 108.761 14.2887 108.761 14.6734ZM114.867 14.2384L113.855 14.416C113.861 13.8123 113.948 13.2471 114.115 12.7204C114.282 12.1877 114.526 11.7231 114.848 11.3266C115.176 10.9241 115.581 10.6104 116.064 10.3855C116.552 10.1547 117.115 10.0393 117.752 10.0393C118.247 10.0393 118.693 10.1074 119.089 10.2435C119.491 10.3737 119.834 10.5838 120.118 10.8738C120.403 11.1579 120.62 11.5278 120.768 11.9835C120.923 12.4392 121 12.9956 121 13.6525V19.8224H118.532V13.6436C118.532 13.1761 118.464 12.818 118.328 12.5694C118.198 12.3209 118.009 12.1492 117.762 12.0545C117.514 11.9539 117.223 11.9036 116.889 11.9036C116.549 11.9036 116.252 11.9658 115.999 12.09C115.751 12.2084 115.541 12.3741 115.368 12.5872C115.201 12.8003 115.074 13.0488 114.987 13.3329C114.907 13.6111 114.867 13.9129 114.867 14.2384Z" />
</svg>
