<svg viewBox="0 0 14 14" xmlns="http://www.w3.org/2000/svg">
<path d="M1.75002 1.75H12.25C12.4047 1.75 12.5531 1.81146 12.6625 1.92085C12.7719 2.03025 12.8334 2.17862 12.8334 2.33333V11.6667C12.8334 11.8214 12.7719 11.9697 12.6625 12.0791C12.5531 12.1885 12.4047 12.25 12.25 12.25H1.75002C1.59531 12.25 1.44694 12.1885 1.33754 12.0791C1.22815 11.9697 1.16669 11.8214 1.16669 11.6667V2.33333C1.16669 2.17862 1.22815 2.03025 1.33754 1.92085C1.44694 1.81146 1.59531 1.75 1.75002 1.75V1.75ZM2.33335 2.91667V11.0833H11.6667V2.91667H2.33335V2.91667ZM7.00002 8.75H10.5V9.91667H7.00002V8.75ZM5.05577 7L3.40552 5.35033L4.23094 4.52492L6.70544 7L4.23094 9.47508L3.40552 8.64967L5.05577 7V7Z"/>
</svg>
