<svg width="536" height="131" viewBox="0 0 536 131" opacity="0.6" fill="none" xmlns="http://www.w3.org/2000/svg">
<g clip-path="url(#clip0_197_40)">
<path d="M536 157L343 141.061V58.9918L536 26V157Z" fill="#E27FE4" fill-opacity="0.7"/>
<path d="M407 122.262L211 138V0L407 39.5751V122.262Z" fill="#97D8ED" fill-opacity="0.7"/>
<path d="M272.85 51.7C284.917 51.7 294.7 41.9174 294.7 29.85C294.7 17.7826 284.917 8 272.85 8C260.783 8 251 17.7826 251 29.85C251 41.9174 260.783 51.7 272.85 51.7Z" fill="#2541CC"/>
<path d="M353.85 130.7C365.917 130.7 375.7 120.917 375.7 108.85C375.7 96.7826 365.917 87 353.85 87C341.783 87 332 96.7826 332 108.85C332 120.917 341.783 130.7 353.85 130.7Z" fill="#2541CC"/>
<path d="M171.38 115.76C179.322 115.76 185.76 109.322 185.76 101.38C185.76 93.4381 179.322 87 171.38 87C163.438 87 157 93.4381 157 101.38C157 109.322 163.438 115.76 171.38 115.76Z" fill="#2541CC"/>
<path d="M273 30L353 109" stroke="#2541CC" stroke-width="2" stroke-miterlimit="10"/>
<path d="M172 101L273 30" stroke="#2541CC" stroke-width="2" stroke-miterlimit="10"/>
<path d="M100 46L172 102" stroke="#2541CC" stroke-width="2" stroke-miterlimit="10"/>
<path d="M99.82 54.64C104.691 54.64 108.64 50.6912 108.64 45.82C108.64 40.9488 104.691 37 99.82 37C94.9488 37 91 40.9488 91 45.82C91 50.6912 94.9488 54.64 99.82 54.64Z" fill="#2541CC"/>
</g>
<defs>
<clipPath id="clip0_197_40">
<rect width="536" height="131" fill="white"/>
</clipPath>
</defs>
</svg>
