<svg xmlns="http://www.w3.org/2000/svg" xmlns:xlink="http://www.w3.org/1999/xlink" fill="none" version="1.1" width="16" height="16" viewBox="0 0 16 16"><clipPath id="master_svg0_77_0201"><rect x="0" y="0" width="16" height="16" rx="0"/></clipPath><g clip-path="url(#master_svg0_77_0201)"><g><path d="M14.021571484375,10.453297099609374L14.021571484375,1.002777099609375L4.0321714843750005,1.002777099609375C2.899470484375,1.002777099609375,1.978271484375,1.923976099609375,1.978271484375,3.056677099609375L1.978271484375,12.943277099609375C1.978271484375,14.075977099609375,2.899471484375,14.997177099609376,4.0321714843750005,14.997177099609376L14.021571484375,14.997177099609376L14.021571484375,10.453297099609374ZM5.697331484375,2.138407099609375L7.191091484375,2.138407099609375L7.191091484375,6.559107099609375L6.819121484375,6.203907099609375C6.714961484375,6.104537099609375,6.576501484375,6.049147099609375,6.432551484375,6.049277099609375C6.291781484375,6.049277099609375,6.151011484375,6.101787099609375,6.042331484375,6.207547099609375L5.697331484375,6.542337099609375L5.697331484375,2.138407099609375ZM12.901271484375,13.783477099609375L4.041651484375,13.783477099609375C3.526721484375,13.783477099609375,3.108061484375,13.364877099609375,3.108061484375,12.849977099609376C3.108061484375,12.334977099609375,3.526721484375,11.916377099609376,4.041651484375,11.916377099609376L12.901271484375,11.916377099609376L12.901271484375,13.783477099609375L12.901271484375,13.783477099609375ZM4.041651484375,10.796027099609375C3.699901484375,10.796027099609375,3.382311484375,10.887887099609374,3.098581484375,11.036077099609376L3.098581484375,3.056677099609375C3.098581484375,2.541747099609375,3.517241484375,2.123087099609375,4.0321714843750005,2.123087099609375L4.577021484375,2.123087099609375L4.577021484375,7.867597099609375C4.577001484375,8.092627099609375,4.711771484374999,8.295777099609374,4.919091484375,8.383257099609375C4.988041484375,8.412647099609375,5.062221484375,8.427787099609375,5.137171484375,8.427757099609375C5.282891484375,8.427847099609375,5.4228914843750005,8.371057099609375,5.527381484375001,8.269477099609375L6.436181484375,7.386947099609375L7.364671484375,8.273127099609376C7.527311484375,8.427757099609375,7.765821484375,8.471517099609375,7.971501484375,8.382527099609375C8.177671484375,8.294357099609375,8.311381484375,8.091767099609374,8.311381484375,7.867597099609375L8.311381484375,2.123087099609375L12.901271484375,2.123087099609375L12.901271484375,10.796027099609375L4.041651484375,10.796027099609375Z" fill="#5C7080" fill-opacity="1"/></g></g></svg>