<svg viewBox="0 0 120 120" fill="none" xmlns="http://www.w3.org/2000/svg">
<path opacity="0.16" d="M2.5 63L24 30H96L117 60.5V63H81.5C81.5 63 86.5 82 60 82C33.5 82 37.5 63 37.5 63H2.5Z" fill="#838383"/>
<path d="M81.9732 62H116C117.105 62 118 62.8954 118 64V116C118 117.105 117.105 118 116 118H4C2.89543 118 2 117.105 2 116V64C2 62.8954 2.89543 62 4 62H38.0356C38.1382 64.8232 38.4776 67.825 39.2508 70.6189C40.2053 74.0681 41.8793 77.4062 44.7988 79.5991C45.7636 80.3238 46.9762 80.7815 48.1761 81.0923C49.4003 81.4095 50.7582 81.6102 52.119 81.7408C54.8189 82 57.7312 82 59.9607 82H60H60.0357C62.1578 82 65.0254 82 67.7306 81.7409C69.0937 81.6103 70.4624 81.41 71.7067 81.0951C72.9297 80.7856 74.1576 80.3349 75.1513 79.6354C78.2433 77.4586 79.9337 74.1557 80.8598 70.697C81.6087 67.9002 81.8923 64.8763 81.9732 62Z" fill="#C4C4C4" stroke="#838383" stroke-width="4"/>
<path d="M24.9098 32L3.67573 64.5918L0.32428 62.4082L21.8243 29.4082L21.9077 29.4626C22.6413 28.5696 23.7541 28 25 28H95C96.2459 28 97.3587 28.5696 98.0923 29.4626L98.1757 29.4082L119.676 62.4082L116.324 64.5918L95.0903 32H24.9098Z" fill="#838383"/>
<path fill-rule="evenodd" clip-rule="evenodd" d="M61 2.5C62.1046 2.5 63 3.39543 63 4.5V22C63 23.1046 62.1046 24 61 24C59.8954 24 59 23.1046 59 22V4.5C59 3.39543 59.8954 2.5 61 2.5Z" fill="#838383"/>
<path fill-rule="evenodd" clip-rule="evenodd" d="M19.3986 5.64859C20.1797 4.86754 21.446 4.86754 22.227 5.64859L34.6014 18.023C35.3824 18.804 35.3824 20.0703 34.6014 20.8514C33.8204 21.6324 32.554 21.6324 31.773 20.8514L19.3986 8.47702C18.6176 7.69597 18.6176 6.42964 19.3986 5.64859Z" fill="#838383"/>
<path fill-rule="evenodd" clip-rule="evenodd" d="M102.601 5.64859C103.382 6.42964 103.382 7.69597 102.601 8.47702L90.227 20.8514C89.446 21.6324 88.1797 21.6324 87.3986 20.8514C86.6176 20.0703 86.6176 18.804 87.3986 18.023L99.773 5.64859C100.554 4.86754 101.82 4.86754 102.601 5.64859Z" fill="#838383"/>
</svg>
