<svg viewBox="0 0 120 120" fill="none" xmlns="http://www.w3.org/2000/svg">
<path d="M100 50C100 60.4934 91.4934 69 81 69C70.5066 69 62 60.4934 62 50C62 39.5066 70.5066 31 81 31C91.4934 31 100 39.5066 100 50Z" fill="#C4C4C4"/>
<path fill-rule="evenodd" clip-rule="evenodd" d="M3.99437 17C1.78834 17 0 18.7909 0 21V92C0 94.2091 1.78834 96 3.99437 96H116.006C118.212 96 120 94.2091 120 92V21C120 18.7909 118.212 17 116.006 17H3.99437ZM80.5556 68.1831C90.6808 68.1831 98.8889 59.9634 98.8889 49.8239C98.8889 39.6845 90.6808 31.4648 80.5556 31.4648C70.4303 31.4648 62.2222 39.6845 62.2222 49.8239C62.2222 59.9634 70.4303 68.1831 80.5556 68.1831Z" fill="#C4C4C4" fill-opacity="0.16"/>
<path fill-rule="evenodd" clip-rule="evenodd" d="M3.99437 21V92H116.006V21L3.99437 21ZM102.883 49.8239C102.883 62.1726 92.8868 72.1831 80.5556 72.1831C68.2243 72.1831 58.2278 62.1726 58.2278 49.8239C58.2278 37.4753 68.2243 27.4648 80.5556 27.4648C92.8868 27.4648 102.883 37.4753 102.883 49.8239ZM0 21C0 18.7909 1.78834 17 3.99437 17H116.006C118.212 17 120 18.7909 120 21V92C120 94.2091 118.212 96 116.006 96H3.99437C1.78834 96 0 94.2091 0 92V21ZM98.8889 49.8239C98.8889 59.9634 90.6808 68.1831 80.5556 68.1831C70.4303 68.1831 62.2222 59.9634 62.2222 49.8239C62.2222 39.6845 70.4303 31.4648 80.5556 31.4648C90.6808 31.4648 98.8889 39.6845 98.8889 49.8239Z" fill="#838383"/>
<path d="M82 110H39L46 102L49.75 94H71.25L75 102L82 110Z" fill="#C4C4C4" fill-opacity="0.16"/>
<path fill-rule="evenodd" clip-rule="evenodd" d="M47.9391 93.1511C48.2683 92.4487 48.9742 92 49.75 92H71.25C72.0258 92 72.7316 92.4487 73.0609 93.1511L76.691 100.895L83.5051 108.683C84.0219 109.274 84.1455 110.112 83.8212 110.826C83.4969 111.541 82.7847 112 81.9999 112H39C38.2152 112 37.503 111.541 37.1787 110.826C36.8545 110.112 36.9781 109.274 37.4948 108.683L44.3089 100.895L47.9391 93.1511ZM51.0213 96L47.8109 102.849C47.7314 103.018 47.6285 103.176 47.5051 103.317L43.4075 108H77.5924L73.4948 103.317C73.3715 103.176 73.2685 103.018 73.189 102.849L69.9786 96H51.0213Z" fill="#838383"/>
<path fill-rule="evenodd" clip-rule="evenodd" d="M60.3834 46.534L47.2594 41.1497C46.773 40.9501 46.2276 40.9501 45.7412 41.1497L26.2514 49.1456C26.2253 49.1561 26.1994 49.1672 26.1737 49.1789C25.7117 49.3883 25.3658 49.754 25.1732 50.1871C25.1535 50.2313 25.1355 50.2762 25.119 50.3217C25.036 50.5519 24.9948 50.7975 25.0005 51.0465V70.7447C25.0005 71.517 25.4452 72.2203 26.1429 72.5515L45.6427 81.8068C46.1854 82.0644 46.8151 82.0644 47.3578 81.8068L66.8576 72.5515C67.5553 72.2203 68 71.517 68 70.7447V66.7494C66.4847 65.5819 65.1372 64.2072 64 62.6678V69.4801L48.5002 76.8369V60.9398L60.6308 55.566C60.2948 54.2441 60.0873 52.871 60.0222 51.4607L46.5003 57.4508L32.0977 51.0706L46.5003 45.1618L60.0011 50.7006C60.0004 50.6338 60.0001 50.5669 60.0001 50.5C60.0001 49.1432 60.1319 47.8171 60.3834 46.534ZM44.5003 60.9398L29.0005 54.0734V69.4801L44.5003 76.8369V60.9398Z" fill="#838383"/>
<path fill-rule="evenodd" clip-rule="evenodd" d="M81 39C82.1046 39 83 39.8954 83 41V52C83 53.1046 82.1046 54 81 54C79.8954 54 79 53.1046 79 52V41C79 39.8954 79.8954 39 81 39Z" fill="#838383"/>
<path d="M83 59C83 60.1046 82.1046 61 81 61C79.8954 61 79 60.1046 79 59C79 57.8954 79.8954 57 81 57C82.1046 57 83 57.8954 83 59Z" fill="#838383"/>
</svg>
