<svg viewBox="0 0 84 16" xmlns="http://www.w3.org/2000/svg">
<path d="M5.81055 0.78125L3.33984 15H0L2.46094 0.78125H5.81055ZM10.1465 6.69922L9.6875 9.33594H3.35938L3.81836 6.69922H10.1465ZM11.709 0.78125L11.25 3.42773H4.375L4.84375 0.78125H11.709Z" />
<path d="M16.416 0.78125L13.9453 15H10.6055L13.0664 0.78125H16.416ZM20.752 6.69922L20.293 9.33594H13.9648L14.4238 6.69922H20.752ZM22.3145 0.78125L21.8555 3.42773H14.9805L15.4492 0.78125H22.3145Z" />
<path d="M23.6719 0.78125L28.9355 0.791016C29.8014 0.804036 30.599 0.960286 31.3281 1.25977C32.0573 1.55924 32.6302 2.01823 33.0469 2.63672C33.4635 3.2487 33.6393 4.0332 33.5742 4.99023C33.5156 5.77799 33.3398 6.44206 33.0469 6.98242C32.7539 7.51628 32.3568 7.97201 31.8555 8.34961C31.3542 8.72721 30.765 9.0625 30.0879 9.35547L28.877 9.98047H24.1504L24.5996 7.33398L27.8125 7.35352C28.2422 7.34701 28.623 7.26237 28.9551 7.09961C29.2936 6.93685 29.5703 6.70573 29.7852 6.40625C30 6.10677 30.1367 5.74219 30.1953 5.3125C30.2474 4.96094 30.2344 4.64844 30.1562 4.375C30.0781 4.09505 29.9284 3.8737 29.707 3.71094C29.4857 3.54818 29.1927 3.45703 28.8281 3.4375L26.5625 3.42773L24.5508 15H21.2109L23.6719 0.78125ZM28.8379 15L26.875 8.71094L30.2637 8.69141L32.4023 14.834V15H28.8379Z" />
<path d="M38.2324 15.1953C37.5033 15.1823 36.8392 15.0488 36.2402 14.7949C35.6413 14.5345 35.1335 14.1764 34.7168 13.7207C34.3001 13.265 33.9909 12.7311 33.7891 12.1191C33.5938 11.5007 33.5221 10.8268 33.5742 10.0977L33.6133 9.7168C33.6914 8.94857 33.8737 8.23242 34.1602 7.56836C34.4466 6.89779 34.8307 6.31185 35.3125 5.81055C35.7943 5.30273 36.3607 4.90885 37.0117 4.62891C37.6693 4.34896 38.4049 4.21875 39.2188 4.23828C39.9544 4.2513 40.5892 4.39779 41.123 4.67773C41.6634 4.95768 42.1029 5.33854 42.4414 5.82031C42.7799 6.29557 43.0143 6.84245 43.1445 7.46094C43.2812 8.07292 43.3138 8.72396 43.2422 9.41406L43.0566 10.752H34.6582L34.9902 8.69141L40.166 8.70117L40.2246 8.41797C40.2702 8.11198 40.2572 7.83529 40.1855 7.58789C40.1139 7.34049 39.9805 7.14518 39.7852 7.00195C39.5898 6.85221 39.3262 6.77083 38.9941 6.75781C38.5905 6.7513 38.2552 6.83919 37.9883 7.02148C37.7279 7.20378 37.5163 7.44466 37.3535 7.74414C37.1973 8.04362 37.0768 8.36914 36.9922 8.7207C36.9076 9.06575 36.8457 9.39779 36.8066 9.7168L36.7676 10.0879C36.7415 10.4069 36.7513 10.7161 36.7969 11.0156C36.8424 11.3151 36.9336 11.5853 37.0703 11.8262C37.2135 12.0671 37.4056 12.2624 37.6465 12.4121C37.8874 12.5553 38.1901 12.6335 38.5547 12.6465C39.043 12.6595 39.4987 12.5684 39.9219 12.373C40.3451 12.1777 40.7259 11.9108 41.0645 11.5723L42.4023 13.3496C42.1094 13.7923 41.7318 14.1504 41.2695 14.4238C40.8073 14.6908 40.3092 14.8861 39.7754 15.0098C39.248 15.14 38.7337 15.2018 38.2324 15.1953Z" />
<path d="M48.3594 12.666C48.6654 12.6725 48.929 12.6172 49.1504 12.5C49.3717 12.3763 49.5475 12.207 49.6777 11.9922C49.8145 11.7708 49.9023 11.5169 49.9414 11.2305L52.959 11.2207C52.9199 12.054 52.6758 12.7702 52.2266 13.3691C51.7839 13.9681 51.2142 14.4271 50.5176 14.7461C49.821 15.0651 49.0723 15.2148 48.2715 15.1953C47.5033 15.1823 46.8424 15.0326 46.2891 14.7461C45.7357 14.4531 45.2865 14.0625 44.9414 13.5742C44.5964 13.0794 44.3522 12.513 44.209 11.875C44.0723 11.237 44.0365 10.5632 44.1016 9.85352L44.1309 9.61914C44.209 8.87695 44.3848 8.17708 44.6582 7.51953C44.9382 6.86198 45.3092 6.28581 45.7715 5.79102C46.2337 5.28971 46.7806 4.90234 47.4121 4.62891C48.0501 4.34896 48.7663 4.21875 49.5605 4.23828C50.4069 4.2513 51.1263 4.4401 51.7188 4.80469C52.3177 5.16927 52.7702 5.66732 53.0762 6.29883C53.3822 6.93034 53.5254 7.65951 53.5059 8.48633L50.4883 8.47656C50.5013 8.19661 50.4753 7.92969 50.4102 7.67578C50.3516 7.41536 50.2344 7.20378 50.0586 7.04102C49.8828 6.87174 49.6289 6.7806 49.2969 6.76758C48.9128 6.75456 48.6003 6.83919 48.3594 7.02148C48.1185 7.20378 47.9264 7.44466 47.7832 7.74414C47.6465 8.03711 47.5456 8.35286 47.4805 8.69141C47.4154 9.02344 47.3665 9.33594 47.334 9.62891L47.3242 9.85352C47.2982 10.0879 47.2721 10.3646 47.2461 10.6836C47.2266 10.9961 47.2363 11.3021 47.2754 11.6016C47.321 11.901 47.4251 12.1517 47.5879 12.3535C47.7507 12.5488 48.0078 12.653 48.3594 12.666Z" />
<path d="M54.209 9.88281L54.2285 9.67773C54.3132 8.91602 54.4987 8.20312 54.7852 7.53906C55.0716 6.875 55.4525 6.29232 55.9277 5.79102C56.4095 5.28971 56.9759 4.90234 57.627 4.62891C58.278 4.34896 59.0072 4.21875 59.8145 4.23828C60.5892 4.2513 61.2598 4.40104 61.8262 4.6875C62.3926 4.97396 62.8581 5.36458 63.2227 5.85938C63.5872 6.34766 63.8444 6.91406 63.9941 7.55859C64.1504 8.19661 64.196 8.87695 64.1309 9.59961L64.1113 9.81445C64.0267 10.5697 63.8379 11.276 63.5449 11.9336C63.252 12.5911 62.8646 13.1673 62.3828 13.6621C61.9076 14.1569 61.3444 14.541 60.6934 14.8145C60.0423 15.0879 59.3164 15.2148 58.5156 15.1953C57.7539 15.1823 57.0866 15.0358 56.5137 14.7559C55.9473 14.4694 55.4818 14.0853 55.1172 13.6035C54.7526 13.1152 54.4922 12.5553 54.3359 11.9238C54.1862 11.2858 54.1439 10.6055 54.209 9.88281ZM57.4414 9.67773L57.4219 9.88281C57.4023 10.1497 57.3893 10.4427 57.3828 10.7617C57.3828 11.0742 57.4186 11.377 57.4902 11.6699C57.5618 11.9564 57.6921 12.194 57.8809 12.3828C58.0762 12.5651 58.3561 12.6628 58.7207 12.6758C59.1113 12.6888 59.4368 12.6074 59.6973 12.4316C59.9642 12.2559 60.179 12.0215 60.3418 11.7285C60.5046 11.4355 60.6283 11.1198 60.7129 10.7812C60.804 10.4427 60.8659 10.1172 60.8984 9.80469L60.918 9.59961C60.9375 9.33919 60.9473 9.04948 60.9473 8.73047C60.9538 8.40495 60.9212 8.0957 60.8496 7.80273C60.778 7.50977 60.6445 7.26888 60.4492 7.08008C60.2539 6.88477 59.974 6.7806 59.6094 6.76758C59.2188 6.75456 58.89 6.83919 58.623 7.02148C58.3626 7.20378 58.151 7.44466 57.9883 7.74414C57.8255 8.03711 57.7018 8.35612 57.6172 8.70117C57.5326 9.03971 57.474 9.36523 57.4414 9.67773Z" />
<path d="M69.1699 7.22656L67.8223 15H64.6094L66.4453 4.43359H69.4336L69.1699 7.22656ZM72.627 4.3457L72.207 7.41211C72.0378 7.38607 71.8685 7.36328 71.6992 7.34375C71.5299 7.32422 71.3574 7.3112 71.1816 7.30469C70.8236 7.29818 70.498 7.34049 70.2051 7.43164C69.9186 7.51628 69.668 7.64974 69.4531 7.83203C69.2448 8.00781 69.0723 8.22917 68.9355 8.49609C68.7988 8.76302 68.6979 9.07227 68.6328 9.42383L68.0957 9.0332C68.1608 8.53841 68.265 8.01432 68.4082 7.46094C68.5579 6.90104 68.7663 6.3737 69.0332 5.87891C69.3001 5.38411 69.6452 4.98372 70.0684 4.67773C70.4915 4.36523 71.0124 4.20898 71.6309 4.20898C71.8001 4.20898 71.9661 4.22201 72.1289 4.24805C72.2917 4.27409 72.4577 4.30664 72.627 4.3457Z" />
<path d="M78.0957 12.3926L80.2441 0H83.4766L80.8789 15H77.998L78.0957 12.3926ZM72.2559 9.92188L72.2754 9.70703C72.3535 9.0625 72.5 8.41146 72.7148 7.75391C72.9297 7.09635 73.2227 6.4974 73.5938 5.95703C73.9714 5.41667 74.4369 4.98698 74.9902 4.66797C75.5501 4.34896 76.2142 4.20247 76.9824 4.22852C77.6335 4.25456 78.1673 4.44987 78.584 4.81445C79.0006 5.17904 79.3229 5.64128 79.5508 6.20117C79.7786 6.75456 79.9349 7.33724 80.0195 7.94922C80.1042 8.5612 80.14 9.12435 80.127 9.63867L80.0977 9.90234C80 10.4557 79.8307 11.0449 79.5898 11.6699C79.3555 12.2884 79.0462 12.8711 78.6621 13.418C78.2845 13.9583 77.8353 14.3978 77.3145 14.7363C76.7936 15.0684 76.2044 15.2246 75.5469 15.2051C74.8307 15.1855 74.2448 15.013 73.7891 14.6875C73.3333 14.362 72.9818 13.9388 72.7344 13.418C72.4935 12.8971 72.3372 12.3307 72.2656 11.7188C72.2005 11.1068 72.1973 10.5078 72.2559 9.92188ZM75.498 9.69727L75.4785 9.90234C75.459 10.1367 75.4427 10.4069 75.4297 10.7129C75.4167 11.0189 75.4329 11.3184 75.4785 11.6113C75.5306 11.9043 75.638 12.1517 75.8008 12.3535C75.9701 12.5488 76.2207 12.6562 76.5527 12.6758C77.0345 12.6953 77.4284 12.5814 77.7344 12.334C78.0469 12.0866 78.2845 11.7708 78.4473 11.3867C78.6165 10.9961 78.724 10.5957 78.7695 10.1855L78.8574 9.4043C78.89 9.13737 78.9062 8.85417 78.9062 8.55469C78.9128 8.25521 78.8802 7.97201 78.8086 7.70508C78.737 7.43815 78.6068 7.2168 78.418 7.04102C78.2292 6.86523 77.9557 6.77409 77.5977 6.76758C77.2201 6.75456 76.901 6.84245 76.6406 7.03125C76.3867 7.22005 76.1816 7.46745 76.0254 7.77344C75.8756 8.07292 75.7585 8.39518 75.6738 8.74023C75.5957 9.07878 75.5371 9.39779 75.498 9.69727Z" />
</svg>
