<svg xmlns="http://www.w3.org/2000/svg" xmlns:xlink="http://www.w3.org/1999/xlink" fill="none" version="1.1" width="16" height="16" viewBox="0 0 16 16"><clipPath id="master_svg0_54_611"><rect x="0" y="0" width="16" height="16" rx="0"/></clipPath><g clip-path="url(#master_svg0_54_611)"><g><path d="M13.3531,4.5093700000000005L9.99062,1.146875C9.89687,1.053125,9.77031,1,9.6375,1L3,1C2.723438,1,2.5,1.223438,2.5,1.5L2.5,14.5C2.5,14.7766,2.723438,15,3,15L13,15C13.2766,15,13.5,14.7766,13.5,14.5L13.5,4.86406C13.5,4.73125,13.4469,4.6031200000000005,13.3531,4.5093700000000005ZM12.34688,5.09375L9.40625,5.09375L9.40625,2.15313L12.34688,5.09375ZM12.375,13.875L3.625,13.875L3.625,2.125L8.34375,2.125L8.34375,5.5C8.34375,5.8625,8.6375,6.15625,9,6.15625L12.375,6.15625L12.375,13.875Z" fill="#8A9BA8" fill-opacity="1"/></g></g></svg>