<svg xmlns="http://www.w3.org/2000/svg" xmlns:xlink="http://www.w3.org/1999/xlink" fill="none" version="1.1" width="16" height="16" viewBox="0 0 16 16"><clipPath id="master_svg0_77_0500"><rect x="0" y="0" width="16" height="16" rx="0"/></clipPath><g clip-path="url(#master_svg0_77_0500)"><g><path d="M6.0614250390625,1.26584322265625L0.8808580390625,1.26584322265625C0.5949150390625,1.26584322265625,0.3629150390625,1.49784322265625,0.3629150390625,1.78378322265625L0.3629150390625,7.26744322265625C0.3629150390625,7.55338322265625,0.5949150390625,7.78561322265625,0.8808580390625,7.78561322265625L6.0614250390625,7.78561322265625C6.3476050390625,7.78561322265625,6.5796050390625,7.55338322265625,6.5796050390625,7.26744322265625L6.5796050390625,1.78378322265625C6.5796050390625,1.49761322265625,6.3476050390625,1.26584322265625,6.0614250390625,1.26584322265625ZM5.5434850390625,6.74904322265625L1.3990250390625,6.74904322265625L1.3990250390625,2.30195322265625L5.5434850390625,2.30195322265625L5.5434850390625,6.74904322265625ZM6.0614250390625,9.55498322265625L0.8808580390625,9.55498322265625C0.5949150390625,9.55498322265625,0.3629150390625,9.78675322265625,0.3629150390625,10.07269322265625L0.3629150390625,15.25375322265625C0.3629150390625,15.53985322265625,0.5949150390625,15.77145322265625,0.8808580390625,15.77145322265625L6.0614250390625,15.77145322265625C6.3476050390625,15.77145322265625,6.5796050390625,15.53985322265625,6.5796050390625,15.25375322265625L6.5796050390625,10.07246322265625C6.5796050390625,9.78652322265625,6.3476050390625,9.55498322265625,6.0614250390625,9.55498322265625ZM5.5434850390625,14.73535322265625L1.3990250390625,14.73535322265625L1.3990250390625,10.59085322265625L5.5434850390625,10.59085322265625L5.5434850390625,14.73535322265625ZM14.3503150390625,9.55498322265625L9.1695450390625,9.55498322265625C8.8836050390625,9.55498322265625,8.6518250390625,9.78675322265625,8.6518250390625,10.07269322265625L8.6518250390625,15.25375322265625C8.6518250390625,15.53985322265625,8.8836050390625,15.77145322265625,9.1695450390625,15.77145322265625L14.3503150390625,15.77145322265625C14.6363150390625,15.77145322265625,14.8687150390625,15.53985322265625,14.8687150390625,15.25375322265625L14.8687150390625,10.07246322265625C14.8687150390625,9.78652322265625,14.6363150390625,9.55498322265625,14.3503150390625,9.55498322265625ZM13.8326150390625,14.73535322265625L9.6881750390625,14.73535322265625L9.6881750390625,10.59085322265625L13.8326150390625,10.59085322265625L13.8326150390625,14.73535322265625ZM15.7531150390625,4.04458322265625L12.0895150390625,0.38126722265625C11.8875150390625,0.17898182265625,11.5597150390625,0.17898182265625,11.3570150390625,0.38126722265625L7.6938850390625,4.04458322265625C7.4916050390625,4.24686322265625,7.4916050390625,4.57486322265625,7.6938850390625,4.77738322265625L11.3570150390625,8.44046322265625C11.5597150390625,8.64275322265625,11.8875150390625,8.64275322265625,12.0895150390625,8.44046322265625L15.7531150390625,4.77715322265625C15.9551150390625,4.57486322265625,15.9551150390625,4.24686322265625,15.7531150390625,4.04458322265625ZM11.7231150390625,7.34149322265625L8.7928550390625,4.41098322265625L11.7231150390625,1.48046322265625L14.6539150390625,4.41098322265625L11.7231150390625,7.34149322265625Z" fill="#5C7080" fill-opacity="1"/></g></g></svg>