<svg xmlns="http://www.w3.org/2000/svg" width="14" height="14" viewBox="0 0 14 14" fill=" #3682c9" data-icon="hfext:icon_log_14" data-icon-id="59ec3a58-f1d9-46ee-918c-9d7b570c7178"><path d="M0 0H14V14H0V0Z" fill="#489fe6"></path><path fill-rule="evenodd" clip-rule="evenodd" d="M2 9V4H1V10H4V9H2Z" fill="white"></path><path fill-rule="evenodd" clip-rule="evenodd" d="M5 6V8C5 8.45208 5.16085 8.65891 5.3103 8.77644C5.49806 8.92409 5.76721 9 6 9C6.40105 9 6.63342 8.9045 6.75314 8.80221C6.84398 8.7246 7 8.53454 7 8V6C7 5.64857 6.9102 5.40429 6.79428 5.26518C6.70509 5.15816 6.50952 5 6 5C5.49048 5 5.29491 5.15816 5.20572 5.26518C5.0898 5.40429 5 5.64857 5 6ZM4 6V8C4 9.5 5.17907 10 6 10C7.07394 10 8 9.5 8 8V6C8 5 7.5 4 6 4C4.5 4 4 5 4 6Z" fill="white"></path><path fill-rule="evenodd" clip-rule="evenodd" d="M9.52145 4.52145C9.89829 4.14461 10.4229 4 11 4C12.1333 4 13 4.6 13 5.5V6H12V5.5C12 5.4 11.8667 5 11 5C10.5771 5 10.3517 5.10539 10.2286 5.22855C10.1054 5.35171 10 5.57707 10 6V8C10 8.42293 10.1054 8.64829 10.2286 8.77145C10.3517 8.89461 10.5771 9 11 9C11.8667 9 12 8.6 12 8.5V8.04665C11.8245 8.00377 11.5274 8 11 8V7C11.0202 7 11.0403 6.99999 11.0605 6.99999C11.5075 6.99983 11.9353 6.99968 12.2463 7.07743C12.4208 7.12106 12.6239 7.20318 12.78 7.37876C12.945 7.56442 13 7.78869 13 8V8.5C13 9.4 12.1333 10 11 10C10.4229 10 9.89829 9.85539 9.52145 9.47855C9.14461 9.10171 9 8.57707 9 8V6C9 5.42293 9.14461 4.89829 9.52145 4.52145Z" fill="white"></path></svg>