<svg t="1648535939523" class="icon" viewBox="0 0 1024 1024" version="1.1" xmlns="http://www.w3.org/2000/svg" p-id="1594"><path d="M864 160a32 32 0 0 0-32-32H160a32 32 0 0 0-32 32v704a32 32 0 0 0 32 32h352v64H160a96 96 0 0 1-96-96V160a96 96 0 0 1 96-96h672a96 96 0 0 1 96 96v320h-64V160zM224 672v-64h96v64H224zM224 224h288v64H224V224z m288 256H224v-64h288v64z m224 32a224 224 0 1 1-224 224 224 224 0 0 1 224-224z m0 384a160 160 0 1 0-160-160 160 160 0 0 0 160 160z m0-256l96 96h-64v96h-64v-96h-64z" p-id="1595"></path></svg>