<!-- width="20" height="9"  -->
<svg viewBox="0 0 20 9"  xmlns="http://www.w3.org/2000/svg">
<path d="M6.08008 5.59375H4.78564C4.76416 5.83008 4.71761 6.03955 4.646 6.22217C4.57438 6.40479 4.47949 6.55697 4.36133 6.67871C4.23958 6.80404 4.09277 6.89893 3.9209 6.96338C3.74902 7.02783 3.55208 7.06006 3.33008 7.06006C3.14388 7.06006 2.97738 7.03499 2.83057 6.98486C2.68734 6.93115 2.56022 6.85417 2.44922 6.75391C2.3418 6.66081 2.2487 6.5498 2.16992 6.4209C2.09473 6.29199 2.03206 6.14876 1.98193 5.99121C1.91748 5.80143 1.86914 5.59196 1.83691 5.36279C1.80827 5.13363 1.79395 4.88835 1.79395 4.62695V3.54736C1.79395 3.3361 1.80469 3.13021 1.82617 2.92969C1.85124 2.72559 1.88704 2.53402 1.93359 2.35498C1.99447 2.15088 2.07145 1.96647 2.16455 1.80176C2.26123 1.63346 2.38118 1.4974 2.52441 1.39355C2.62826 1.30762 2.74642 1.24137 2.87891 1.19482C3.01497 1.14827 3.16715 1.125 3.33545 1.125C3.57536 1.125 3.78125 1.16081 3.95312 1.23242C4.125 1.30046 4.27002 1.40072 4.38818 1.5332C4.50277 1.66569 4.59229 1.82682 4.65674 2.0166C4.72477 2.2028 4.76953 2.41227 4.79102 2.64502H6.08008C6.04069 2.25472 5.95296 1.90023 5.81689 1.58154C5.68441 1.26286 5.50179 0.990723 5.26904 0.765137C5.03988 0.543132 4.76237 0.371257 4.43652 0.249512C4.11426 0.127767 3.74723 0.0668945 3.33545 0.0668945C3.03109 0.0668945 2.75 0.108073 2.49219 0.19043C2.23796 0.272786 2.00521 0.38737 1.79395 0.53418C1.57194 0.695312 1.375 0.890462 1.20312 1.11963C1.03483 1.34521 0.896973 1.59766 0.789551 1.87695C0.68929 2.1276 0.614095 2.39437 0.563965 2.67725C0.513835 2.96012 0.48877 3.25374 0.48877 3.55811V4.62695C0.48877 4.94564 0.513835 5.25179 0.563965 5.54541C0.617676 5.83903 0.696452 6.11117 0.800293 6.36182C0.904134 6.61605 1.03125 6.85059 1.18164 7.06543C1.33561 7.27669 1.51465 7.45752 1.71875 7.60791C1.93001 7.76904 2.16992 7.89437 2.43848 7.98389C2.71061 8.06982 3.00781 8.11279 3.33008 8.11279C3.72396 8.11279 4.08203 8.05371 4.4043 7.93555C4.73014 7.8138 5.01123 7.64193 5.24756 7.41992C5.48031 7.2015 5.66829 6.93831 5.81152 6.63037C5.95475 6.31885 6.04427 5.97331 6.08008 5.59375ZM8.79248 5.01904H10.1191C10.513 5.01904 10.8747 4.96175 11.2041 4.84717C11.5371 4.73258 11.8236 4.56966 12.0635 4.3584C12.3034 4.15072 12.4896 3.90186 12.6221 3.61182C12.7546 3.3182 12.8208 2.99056 12.8208 2.62891C12.8208 2.25293 12.7546 1.91455 12.6221 1.61377C12.4896 1.31299 12.3034 1.05697 12.0635 0.845703C11.8236 0.63444 11.5371 0.471517 11.2041 0.356934C10.8747 0.24235 10.513 0.183268 10.1191 0.179688H7.50342V8H8.79248V5.01904ZM8.79248 3.96631V1.23242H10.1191C10.3376 1.236 10.5327 1.27181 10.7046 1.33984C10.88 1.40788 11.0286 1.50456 11.1504 1.62988C11.2721 1.75521 11.3634 1.90381 11.4243 2.07568C11.4888 2.24398 11.521 2.43197 11.521 2.63965C11.521 2.82943 11.4888 3.00488 11.4243 3.16602C11.3634 3.32715 11.2721 3.4668 11.1504 3.58496C11.0286 3.70312 10.88 3.79622 10.7046 3.86426C10.5327 3.92871 10.3376 3.96273 10.1191 3.96631H8.79248ZM19.0996 0.179688H17.8267L17.8159 5.41113C17.8088 5.65462 17.7765 5.87842 17.7192 6.08252C17.6619 6.28304 17.5778 6.45671 17.4668 6.60352C17.3558 6.74674 17.2179 6.85775 17.0532 6.93652C16.8921 7.01172 16.7059 7.04932 16.4946 7.04932C16.2869 7.04932 16.1043 7.01172 15.9468 6.93652C15.7928 6.85775 15.6621 6.75033 15.5547 6.61426C15.4437 6.47103 15.3595 6.29736 15.3022 6.09326C15.245 5.88558 15.2145 5.6582 15.2109 5.41113L15.2002 0.179688H13.9272L13.9165 5.41113C13.9201 5.81576 13.9827 6.18457 14.1045 6.51758C14.2298 6.85059 14.4053 7.13525 14.6309 7.37158C14.8529 7.60791 15.1214 7.79053 15.4365 7.91943C15.7516 8.04476 16.1043 8.10742 16.4946 8.10742C16.8921 8.10742 17.2502 8.04297 17.5688 7.91406C17.8911 7.78516 18.1668 7.60254 18.396 7.36621C18.6216 7.12988 18.7952 6.84701 18.917 6.51758C19.0423 6.18457 19.105 5.81576 19.105 5.41113L19.0996 0.179688Z" />
</svg>
