<!-- width="20" height="9" -->
<svg viewBox="0 0 20 9" xmlns="http://www.w3.org/2000/svg">
<path d="M0.741211 8H2.71777C3.07585 8 3.41064 7.95703 3.72217 7.87109C4.03727 7.78516 4.32373 7.66162 4.58154 7.50049C4.81071 7.35368 5.01839 7.17643 5.20459 6.96875C5.39437 6.76107 5.5555 6.53011 5.68799 6.27588C5.82406 6.01449 5.9279 5.72624 5.99951 5.41113C6.07471 5.09245 6.1123 4.75586 6.1123 4.40137V3.78906C6.1123 3.42025 6.07292 3.07292 5.99414 2.74707C5.91536 2.42122 5.80436 2.12223 5.66113 1.8501C5.52148 1.5887 5.34782 1.35238 5.14014 1.14111C4.93604 0.92985 4.7015 0.754395 4.43652 0.614746C4.19303 0.478678 3.92269 0.373047 3.62549 0.297852C3.32829 0.219076 3.01139 0.179688 2.6748 0.179688H0.741211V8ZM2.04639 1.23242H2.6748C2.88249 1.236 3.07585 1.26107 3.25488 1.30762C3.43392 1.35059 3.59505 1.41325 3.73828 1.49561C3.93522 1.60661 4.10531 1.75163 4.24854 1.93066C4.39176 2.10612 4.50635 2.30306 4.59229 2.52148C4.66032 2.70052 4.71224 2.89567 4.74805 3.10693C4.78385 3.3182 4.80176 3.54199 4.80176 3.77832V4.40137C4.80176 4.64128 4.78385 4.86686 4.74805 5.07812C4.71224 5.28939 4.66032 5.48454 4.59229 5.66357C4.51351 5.87484 4.41146 6.06283 4.28613 6.22754C4.16439 6.38867 4.02474 6.52295 3.86719 6.63037C3.71322 6.73421 3.53955 6.81478 3.34619 6.87207C3.15641 6.92578 2.94694 6.95264 2.71777 6.95264H2.04639V1.23242ZM12.6489 7.03857L12.6382 4.04688H9.95264V5.05127H11.3706L11.3652 6.61426C11.3079 6.68945 11.231 6.7557 11.1343 6.81299C11.0376 6.8667 10.932 6.91146 10.8174 6.94727C10.6992 6.98307 10.5757 7.00993 10.4468 7.02783C10.3179 7.04215 10.1908 7.04932 10.0654 7.04932C9.85417 7.04574 9.66439 7.00993 9.49609 6.94189C9.33138 6.87386 9.18636 6.77718 9.06104 6.65186C8.96077 6.55518 8.87305 6.44417 8.79785 6.31885C8.72624 6.19352 8.66357 6.05924 8.60986 5.91602C8.54183 5.72624 8.48991 5.52035 8.4541 5.29834C8.42188 5.07633 8.40576 4.8418 8.40576 4.59473V3.58496C8.40576 3.3737 8.41829 3.16781 8.44336 2.96729C8.46842 2.76676 8.50781 2.57878 8.56152 2.40332C8.6224 2.2028 8.69938 2.02197 8.79248 1.86084C8.88916 1.69613 9.00195 1.55827 9.13086 1.44727C9.24186 1.35059 9.36719 1.27539 9.50684 1.22168C9.64648 1.16439 9.79867 1.13574 9.96338 1.13574C10.189 1.13574 10.3841 1.16797 10.5488 1.23242C10.7171 1.29688 10.8586 1.38997 10.9731 1.51172C11.0806 1.6263 11.1665 1.76774 11.231 1.93604C11.2954 2.10075 11.3438 2.28516 11.376 2.48926H12.6436C12.6077 2.11686 12.5236 1.78206 12.3911 1.48486C12.2586 1.18408 12.0778 0.92806 11.8486 0.716797C11.623 0.509115 11.3509 0.349772 11.0322 0.23877C10.7135 0.127767 10.3483 0.0722656 9.93652 0.0722656C9.63216 0.0722656 9.34928 0.115234 9.08789 0.201172C8.83008 0.287109 8.59375 0.408854 8.37891 0.566406C8.18197 0.716797 8.00651 0.894043 7.85254 1.09814C7.69857 1.30225 7.56608 1.52783 7.45508 1.7749C7.34049 2.0363 7.25277 2.32096 7.19189 2.62891C7.1346 2.93685 7.10417 3.25911 7.10059 3.5957V4.59473C7.10417 4.94206 7.13818 5.27327 7.20264 5.58838C7.26709 5.90348 7.36198 6.19173 7.4873 6.45312C7.59831 6.70378 7.73617 6.93115 7.90088 7.13525C8.06917 7.33936 8.25895 7.51302 8.47021 7.65625C8.68148 7.79948 8.91781 7.91048 9.1792 7.98926C9.44059 8.06803 9.72168 8.10742 10.0225 8.10742C10.3483 8.10742 10.6545 8.0734 10.9409 8.00537C11.2274 7.94092 11.4924 7.84961 11.7358 7.73145C11.9292 7.63835 12.1029 7.53271 12.2568 7.41455C12.4108 7.29281 12.5415 7.16748 12.6489 7.03857ZM16.5645 3.09619L15.0713 0.179688H13.562L15.791 4.05762L13.5029 8H15.0283L16.5859 5.03516L18.1489 8H19.6528L17.3701 4.05762L19.5991 0.179688H18.0845L16.5645 3.09619Z" />
</svg>
