<svg viewBox="0 0 14 14"  xmlns="http://www.w3.org/2000/svg">
<path d="M3.53906 6H3.09473L1.85938 3.28027V6H1.45898V2.55518H1.90576L3.146 5.25049V2.55518H3.53906V6ZM5.49707 2.48926C5.88281 2.48926 6.1766 2.64225 6.37842 2.94824C6.58187 3.2526 6.68359 3.69613 6.68359 4.27881C6.68359 4.85824 6.58268 5.30094 6.38086 5.60693C6.17904 5.91292 5.88444 6.06592 5.49707 6.06592C5.11296 6.06592 4.81917 5.91374 4.61572 5.60938C4.4139 5.30339 4.31299 4.85986 4.31299 4.27881C4.31299 3.69775 4.4139 3.25423 4.61572 2.94824C4.81755 2.64225 5.11133 2.48926 5.49707 2.48926ZM5.49707 5.71436C6.00488 5.71436 6.25879 5.23584 6.25879 4.27881C6.25879 3.32015 6.00488 2.84082 5.49707 2.84082C5.24967 2.84082 5.06087 2.96533 4.93066 3.21436C4.80208 3.46175 4.73779 3.81657 4.73779 4.27881C4.73779 4.74593 4.80208 5.10238 4.93066 5.34814C5.05924 5.59229 5.24805 5.71436 5.49707 5.71436ZM7.51611 2.55518H8.19482C8.64567 2.55518 9.007 2.70898 9.27881 3.0166C9.55062 3.32259 9.68652 3.74333 9.68652 4.27881C9.68652 4.82568 9.54818 5.24967 9.27148 5.55078C8.99642 5.85026 8.64323 6 8.21191 6H7.51611V2.55518ZM7.9165 5.65088H8.19971C8.52686 5.65088 8.78564 5.52962 8.97607 5.28711C9.1665 5.0446 9.26172 4.7085 9.26172 4.27881C9.26172 3.85238 9.16569 3.51709 8.97363 3.27295C8.7832 3.02718 8.52523 2.9043 8.19971 2.9043H7.9165V5.65088ZM12.4331 6H10.6338V2.55518H12.4185V2.9043H11.0342V3.97119H12.3647V4.32031H11.0342V5.65088H12.4331V6ZM1.625 8.55518H2.49902C2.82943 8.55518 3.09391 8.63818 3.29248 8.8042C3.49105 8.97021 3.59033 9.19889 3.59033 9.49023C3.59033 9.7832 3.49105 10.0176 3.29248 10.1934C3.09554 10.3675 2.83675 10.4546 2.51611 10.4546H2.02539V12H1.625V8.55518ZM2.02539 10.1055H2.45996C2.93034 10.1055 3.16553 9.90853 3.16553 9.51465C3.16553 9.33236 3.10124 9.18506 2.97266 9.07275C2.8457 8.96045 2.68132 8.9043 2.47949 8.9043H2.02539V10.1055ZM5.49707 8.48926C5.88281 8.48926 6.1766 8.64225 6.37842 8.94824C6.58187 9.2526 6.68359 9.69613 6.68359 10.2788C6.68359 10.8582 6.58268 11.3009 6.38086 11.6069C6.17904 11.9129 5.88444 12.0659 5.49707 12.0659C5.11296 12.0659 4.81917 11.9137 4.61572 11.6094C4.4139 11.3034 4.31299 10.8599 4.31299 10.2788C4.31299 9.69775 4.4139 9.25423 4.61572 8.94824C4.81755 8.64225 5.11133 8.48926 5.49707 8.48926ZM5.49707 11.7144C6.00488 11.7144 6.25879 11.2358 6.25879 10.2788C6.25879 9.32015 6.00488 8.84082 5.49707 8.84082C5.24967 8.84082 5.06087 8.96533 4.93066 9.21436C4.80208 9.46175 4.73779 9.81657 4.73779 10.2788C4.73779 10.7459 4.80208 11.1024 4.93066 11.3481C5.05924 11.5923 5.24805 11.7144 5.49707 11.7144ZM9.87207 12H9.37158L8.36084 10.4351H7.9165V12H7.51611V8.55518H8.49023C8.81738 8.55518 9.07536 8.63493 9.26416 8.79443C9.45459 8.95231 9.5498 9.17285 9.5498 9.45605C9.5498 9.66602 9.48063 9.85319 9.34229 10.0176C9.20394 10.1803 9.01351 10.291 8.771 10.3496L9.87207 12ZM7.9165 10.0859H8.42188C8.63346 10.0859 8.80518 10.029 8.93701 9.91504C9.06885 9.79948 9.13477 9.65462 9.13477 9.48047C9.13477 9.09635 8.90039 8.9043 8.43164 8.9043H7.9165V10.0859ZM12.7749 8.87988H11.7129V12H11.3149V8.87988H10.248V8.55518H12.7749V8.87988Z" />
<path d="M3.53906 6V6.1H3.63906V6H3.53906ZM3.09473 6L3.00368 6.04136L3.03032 6.1H3.09473V6ZM1.85938 3.28027L1.95042 3.23892L1.75937 3.28027H1.85938ZM1.85938 6V6.1H1.95938V6H1.85938ZM1.45898 6H1.35898V6.1H1.45898V6ZM1.45898 2.55518V2.45518H1.35898V2.55518H1.45898ZM1.90576 2.55518L1.99661 2.51337L1.96983 2.45518H1.90576V2.55518ZM3.146 5.25049L3.05515 5.29229L3.246 5.25049H3.146ZM3.146 2.55518V2.45518H3.046V2.55518H3.146ZM3.53906 2.55518H3.63906V2.45518H3.53906V2.55518ZM3.53906 5.9H3.09473V6.1H3.53906V5.9ZM3.18577 5.95864L1.95042 3.23892L1.76833 3.32163L3.00368 6.04136L3.18577 5.95864ZM1.75937 3.28027V6H1.95938V3.28027H1.75937ZM1.85938 5.9H1.45898V6.1H1.85938V5.9ZM1.55898 6V2.55518H1.35898V6H1.55898ZM1.45898 2.65518H1.90576V2.45518H1.45898V2.65518ZM1.81492 2.59698L3.05515 5.29229L3.23684 5.20869L1.99661 2.51337L1.81492 2.59698ZM3.246 5.25049V2.55518H3.046V5.25049H3.246ZM3.146 2.65518H3.53906V2.45518H3.146V2.65518ZM3.43906 2.55518V6H3.63906V2.55518H3.43906ZM6.37842 2.94824L6.29494 3.0033L6.29528 3.00381L6.37842 2.94824ZM6.38086 5.60693L6.29738 5.55187L6.38086 5.60693ZM4.61572 5.60938L4.53224 5.66444L4.53259 5.66495L4.61572 5.60938ZM4.93066 3.21436L4.84205 3.16802L4.84193 3.16824L4.93066 3.21436ZM4.93066 5.34814L4.84206 5.3945L4.84219 5.39474L4.93066 5.34814ZM5.49707 2.58926C5.85131 2.58926 6.11275 2.72708 6.29494 3.0033L6.4619 2.89318C6.24044 2.55742 5.91432 2.38926 5.49707 2.38926V2.58926ZM6.29528 3.00381C6.483 3.28464 6.58359 3.70518 6.58359 4.27881H6.78359C6.78359 3.68707 6.68074 3.22057 6.46155 2.89267L6.29528 3.00381ZM6.58359 4.27881C6.58359 4.84909 6.48384 5.26917 6.29738 5.55187L6.46434 5.66199C6.68152 5.33271 6.78359 4.86738 6.78359 4.27881H6.58359ZM6.29738 5.55187C6.11529 5.82795 5.85311 5.96592 5.49707 5.96592V6.16592C5.91577 6.16592 6.24279 5.99789 6.46434 5.66199L6.29738 5.55187ZM5.49707 5.96592C5.14438 5.96592 4.88269 5.82881 4.69886 5.5538L4.53259 5.66495C4.75566 5.99866 5.08153 6.16592 5.49707 6.16592V5.96592ZM4.6992 5.55432C4.51276 5.27165 4.41299 4.85079 4.41299 4.27881H4.21299C4.21299 4.86894 4.31504 5.33512 4.53225 5.66443L4.6992 5.55432ZM4.41299 4.27881C4.41299 3.70683 4.51276 3.28597 4.6992 3.0033L4.53225 2.89318C4.31504 3.2225 4.21299 3.68868 4.21299 4.27881H4.41299ZM4.6992 3.0033C4.88139 2.72708 5.14283 2.58926 5.49707 2.58926V2.38926C5.07982 2.38926 4.7537 2.55742 4.53225 2.89318L4.6992 3.0033ZM5.49707 5.81436C5.64035 5.81436 5.77038 5.78039 5.88352 5.70931C5.99631 5.63845 6.08669 5.53427 6.15669 5.40234C6.29513 5.14145 6.35879 4.7629 6.35879 4.27881H6.15879C6.15879 4.75174 6.0955 5.09097 5.98002 5.3086C5.92308 5.41592 5.85476 5.49119 5.77713 5.53996C5.69984 5.58851 5.6077 5.61436 5.49707 5.61436V5.81436ZM6.35879 4.27881C6.35879 3.79391 6.29513 3.41478 6.15673 3.15351C6.08674 3.02139 5.99638 2.91704 5.88358 2.84606C5.77043 2.77486 5.64038 2.74082 5.49707 2.74082V2.94082C5.60767 2.94082 5.69978 2.9667 5.77706 3.01533C5.8547 3.06418 5.92303 3.13958 5.97999 3.24713C6.0955 3.46518 6.15879 3.80505 6.15879 4.27881H6.35879ZM5.49707 2.74082C5.35571 2.74082 5.22714 2.77668 5.11487 2.85072C5.00327 2.92432 4.91313 3.03208 4.84205 3.16802L5.01928 3.26069C5.07841 3.14761 5.14777 3.0686 5.22498 3.01768C5.30151 2.96721 5.39103 2.94082 5.49707 2.94082V2.74082ZM4.84193 3.16824C4.7026 3.43632 4.63779 3.80983 4.63779 4.27881H4.83779C4.83779 3.82331 4.90157 3.48718 5.0194 3.26047L4.84193 3.16824ZM4.63779 4.27881C4.63779 4.7524 4.70252 5.12779 4.84206 5.3945L5.01927 5.30179C4.90165 5.07696 4.83779 4.73946 4.83779 4.27881H4.63779ZM4.84219 5.39474C4.91267 5.52858 5.00266 5.63453 5.11441 5.70678C5.2267 5.77938 5.35544 5.81436 5.49707 5.81436V5.61436C5.38967 5.61436 5.29951 5.58829 5.223 5.53883C5.14594 5.48901 5.07724 5.41185 5.01914 5.30155L4.84219 5.39474ZM7.51611 2.55518V2.45518H7.41611V2.55518H7.51611ZM9.27881 3.0166L9.20387 3.08282L9.20405 3.08301L9.27881 3.0166ZM9.27148 5.55078L9.19785 5.48312L9.19784 5.48314L9.27148 5.55078ZM7.51611 6H7.41611V6.1H7.51611V6ZM7.9165 5.65088H7.8165V5.75088H7.9165V5.65088ZM8.97607 5.28711L8.89742 5.22535L8.97607 5.28711ZM8.97363 3.27295L8.89458 3.3342L8.89504 3.33478L8.97363 3.27295ZM7.9165 2.9043V2.8043H7.8165V2.9043H7.9165ZM7.51611 2.65518H8.19482V2.45518H7.51611V2.65518ZM8.19482 2.65518C8.62016 2.65518 8.95304 2.79894 9.20387 3.08282L9.35375 2.95039C9.06096 2.61903 8.67118 2.45518 8.19482 2.45518V2.65518ZM9.20405 3.08301C9.45512 3.36566 9.58652 3.76009 9.58652 4.27881H9.78652C9.78652 3.72656 9.64612 3.27953 9.35357 2.95019L9.20405 3.08301ZM9.58652 4.27881C9.58652 4.80924 9.45254 5.20596 9.19785 5.48312L9.34512 5.61844C9.64381 5.29339 9.78652 4.84213 9.78652 4.27881H9.58652ZM9.19784 5.48314C8.94296 5.76063 8.61715 5.9 8.21191 5.9V6.1C8.66931 6.1 9.04987 5.93989 9.34513 5.61843L9.19784 5.48314ZM8.21191 5.9H7.51611V6.1H8.21191V5.9ZM7.61611 6V2.55518H7.41611V6H7.61611ZM7.9165 5.75088H8.19971V5.55088H7.9165V5.75088ZM8.19971 5.75088C8.55539 5.75088 8.84404 5.61718 9.05472 5.34887L8.89742 5.22535C8.72725 5.44207 8.49832 5.55088 8.19971 5.55088V5.75088ZM9.05472 5.34887C9.26352 5.08296 9.36172 4.72223 9.36172 4.27881H9.16172C9.16172 4.69476 9.06948 5.00623 8.89742 5.22535L9.05472 5.34887ZM9.36172 4.27881C9.36172 3.83821 9.26252 3.47844 9.05223 3.21112L8.89504 3.33478C9.06886 3.55574 9.16172 3.86654 9.16172 4.27881H9.36172ZM9.05268 3.2117C8.8423 2.94018 8.55446 2.8043 8.19971 2.8043V3.0043C8.49599 3.0043 8.72411 3.11418 8.89459 3.3342L9.05268 3.2117ZM8.19971 2.8043H7.9165V3.0043H8.19971V2.8043ZM7.8165 2.9043V5.65088H8.0165V2.9043H7.8165ZM12.4331 6V6.1H12.5331V6H12.4331ZM10.6338 6H10.5338V6.1H10.6338V6ZM10.6338 2.55518V2.45518H10.5338V2.55518H10.6338ZM12.4185 2.55518H12.5185V2.45518H12.4185V2.55518ZM12.4185 2.9043V3.0043H12.5185V2.9043H12.4185ZM11.0342 2.9043V2.8043H10.9342V2.9043H11.0342ZM11.0342 3.97119H10.9342V4.07119H11.0342V3.97119ZM12.3647 3.97119H12.4647V3.87119H12.3647V3.97119ZM12.3647 4.32031V4.42031H12.4647V4.32031H12.3647ZM11.0342 4.32031V4.22031H10.9342V4.32031H11.0342ZM11.0342 5.65088H10.9342V5.75088H11.0342V5.65088ZM12.4331 5.65088H12.5331V5.55088H12.4331V5.65088ZM12.4331 5.9H10.6338V6.1H12.4331V5.9ZM10.7338 6V2.55518H10.5338V6H10.7338ZM10.6338 2.65518H12.4185V2.45518H10.6338V2.65518ZM12.3185 2.55518V2.9043H12.5185V2.55518H12.3185ZM12.4185 2.8043H11.0342V3.0043H12.4185V2.8043ZM10.9342 2.9043V3.97119H11.1342V2.9043H10.9342ZM11.0342 4.07119H12.3647V3.87119H11.0342V4.07119ZM12.2647 3.97119V4.32031H12.4647V3.97119H12.2647ZM12.3647 4.22031H11.0342V4.42031H12.3647V4.22031ZM10.9342 4.32031V5.65088H11.1342V4.32031H10.9342ZM11.0342 5.75088H12.4331V5.55088H11.0342V5.75088ZM12.3331 5.65088V6H12.5331V5.65088H12.3331ZM1.625 8.55518V8.45518H1.525V8.55518H1.625ZM3.29248 10.1934L3.35872 10.2683L3.35876 10.2682L3.29248 10.1934ZM2.02539 10.4546V10.3546H1.92539V10.4546H2.02539ZM2.02539 12V12.1H2.12539V12H2.02539ZM1.625 12H1.525V12.1H1.625V12ZM2.02539 10.1055H1.92539V10.2055H2.02539V10.1055ZM2.97266 9.07275L2.9064 9.14766L2.90687 9.14807L2.97266 9.07275ZM2.02539 8.9043V8.8043H1.92539V8.9043H2.02539ZM1.625 8.65518H2.49902V8.45518H1.625V8.65518ZM2.49902 8.65518C2.81261 8.65518 3.05226 8.73371 3.22834 8.88092L3.35662 8.72748C3.13556 8.54266 2.84625 8.45518 2.49902 8.45518V8.65518ZM3.22834 8.88092C3.40115 9.0254 3.49033 9.22433 3.49033 9.49023H3.69033C3.69033 9.17346 3.58094 8.91503 3.35662 8.72748L3.22834 8.88092ZM3.49033 9.49023C3.49033 9.75793 3.40093 9.9638 3.2262 10.1185L3.35876 10.2682C3.58116 10.0714 3.69033 9.80848 3.69033 9.49023H3.49033ZM3.22624 10.1184C3.05138 10.2731 2.81795 10.3546 2.51611 10.3546V10.5546C2.85555 10.5546 3.1397 10.462 3.35872 10.2683L3.22624 10.1184ZM2.51611 10.3546H2.02539V10.5546H2.51611V10.3546ZM1.92539 10.4546V12H2.12539V10.4546H1.92539ZM2.02539 11.9H1.625V12.1H2.02539V11.9ZM1.725 12V8.55518H1.525V12H1.725ZM2.02539 10.2055H2.45996V10.0055H2.02539V10.2055ZM2.45996 10.2055C2.70666 10.2055 2.91032 10.1542 3.05334 10.0344C3.19975 9.91183 3.26553 9.73212 3.26553 9.51465H3.06553C3.06553 9.69105 3.01371 9.80676 2.92493 9.88109C2.83276 9.95827 2.68363 10.0055 2.45996 10.0055V10.2055ZM3.26553 9.51465C3.26553 9.30571 3.19038 9.13014 3.03844 8.99744L2.90687 9.14807C3.0121 9.23997 3.06553 9.35901 3.06553 9.51465H3.26553ZM3.03891 8.99785C2.89031 8.8664 2.70082 8.8043 2.47949 8.8043V9.0043C2.66181 9.0043 2.80109 9.0545 2.9064 9.14765L3.03891 8.99785ZM2.47949 8.8043H2.02539V9.0043H2.47949V8.8043ZM1.92539 8.9043V10.1055H2.12539V8.9043H1.92539ZM6.37842 8.94824L6.29494 9.0033L6.29528 9.00381L6.37842 8.94824ZM6.38086 11.6069L6.29738 11.5519L6.38086 11.6069ZM4.61572 11.6094L4.53224 11.6644L4.53259 11.6649L4.61572 11.6094ZM4.93066 9.21436L4.84205 9.16802L4.84193 9.16824L4.93066 9.21436ZM4.93066 11.3481L4.84206 11.3945L4.84219 11.3947L4.93066 11.3481ZM5.49707 8.58926C5.85131 8.58926 6.11275 8.72708 6.29494 9.0033L6.4619 8.89318C6.24044 8.55742 5.91432 8.38926 5.49707 8.38926V8.58926ZM6.29528 9.00381C6.483 9.28464 6.58359 9.70518 6.58359 10.2788H6.78359C6.78359 9.68707 6.68074 9.22057 6.46155 8.89267L6.29528 9.00381ZM6.58359 10.2788C6.58359 10.8491 6.48384 11.2692 6.29738 11.5519L6.46434 11.662C6.68152 11.3327 6.78359 10.8674 6.78359 10.2788H6.58359ZM6.29738 11.5519C6.11529 11.828 5.85311 11.9659 5.49707 11.9659V12.1659C5.91577 12.1659 6.24279 11.9979 6.46434 11.662L6.29738 11.5519ZM5.49707 11.9659C5.14438 11.9659 4.88269 11.8288 4.69886 11.5538L4.53259 11.6649C4.75566 11.9987 5.08153 12.1659 5.49707 12.1659V11.9659ZM4.6992 11.5543C4.51276 11.2717 4.41299 10.8508 4.41299 10.2788H4.21299C4.21299 10.8689 4.31504 11.3351 4.53225 11.6644L4.6992 11.5543ZM4.41299 10.2788C4.41299 9.70683 4.51276 9.28597 4.6992 9.0033L4.53225 8.89318C4.31504 9.2225 4.21299 9.68868 4.21299 10.2788H4.41299ZM4.6992 9.0033C4.88139 8.72708 5.14283 8.58926 5.49707 8.58926V8.38926C5.07982 8.38926 4.7537 8.55742 4.53225 8.89318L4.6992 9.0033ZM5.49707 11.8144C5.64035 11.8144 5.77038 11.7804 5.88352 11.7093C5.99631 11.6385 6.08669 11.5343 6.15669 11.4023C6.29513 11.1415 6.35879 10.7629 6.35879 10.2788H6.15879C6.15879 10.7517 6.0955 11.091 5.98002 11.3086C5.92308 11.4159 5.85476 11.4912 5.77713 11.54C5.69984 11.5885 5.6077 11.6144 5.49707 11.6144V11.8144ZM6.35879 10.2788C6.35879 9.79391 6.29513 9.41478 6.15673 9.15351C6.08674 9.02139 5.99638 8.91704 5.88358 8.84606C5.77043 8.77486 5.64038 8.74082 5.49707 8.74082V8.94082C5.60767 8.94082 5.69978 8.9667 5.77706 9.01533C5.8547 9.06419 5.92303 9.13958 5.97999 9.24713C6.0955 9.46518 6.15879 9.80505 6.15879 10.2788H6.35879ZM5.49707 8.74082C5.35571 8.74082 5.22714 8.77668 5.11487 8.85072C5.00327 8.92432 4.91313 9.03208 4.84205 9.16802L5.01928 9.26069C5.07841 9.14761 5.14777 9.0686 5.22498 9.01768C5.30151 8.96721 5.39103 8.94082 5.49707 8.94082V8.74082ZM4.84193 9.16824C4.7026 9.43632 4.63779 9.80983 4.63779 10.2788H4.83779C4.83779 9.82331 4.90157 9.48718 5.0194 9.26047L4.84193 9.16824ZM4.63779 10.2788C4.63779 10.7524 4.70252 11.1278 4.84206 11.3945L5.01927 11.3018C4.90165 11.077 4.83779 10.7395 4.83779 10.2788H4.63779ZM4.84219 11.3947C4.91267 11.5286 5.00266 11.6345 5.11441 11.7068C5.2267 11.7794 5.35544 11.8144 5.49707 11.8144V11.6144C5.38967 11.6144 5.29951 11.5883 5.223 11.5388C5.14594 11.489 5.07724 11.4119 5.01914 11.3015L4.84219 11.3947ZM9.87207 12V12.1H10.059L9.95526 11.9445L9.87207 12ZM9.37158 12L9.28758 12.0543L9.31712 12.1H9.37158V12ZM8.36084 10.4351L8.44484 10.3808L8.4153 10.3351H8.36084V10.4351ZM7.9165 10.4351V10.3351H7.8165V10.4351H7.9165ZM7.9165 12V12.1H8.0165V12H7.9165ZM7.51611 12H7.41611V12.1H7.51611V12ZM7.51611 8.55518V8.45518H7.41611V8.55518H7.51611ZM9.26416 8.79443L9.19962 8.87083L9.20034 8.87142L9.26416 8.79443ZM9.34229 10.0176L9.41848 10.0823L9.4188 10.082L9.34229 10.0176ZM8.771 10.3496L8.74751 10.2524L8.60836 10.286L8.68781 10.4051L8.771 10.3496ZM7.9165 10.0859H7.8165V10.1859H7.9165V10.0859ZM8.93701 9.91504L9.0024 9.9907L9.00293 9.99024L8.93701 9.91504ZM7.9165 8.9043V8.8043H7.8165V8.9043H7.9165ZM9.87207 11.9H9.37158V12.1H9.87207V11.9ZM9.45558 11.9457L8.44484 10.3808L8.27684 10.4893L9.28758 12.0543L9.45558 11.9457ZM8.36084 10.3351H7.9165V10.5351H8.36084V10.3351ZM7.8165 10.4351V12H8.0165V10.4351H7.8165ZM7.9165 11.9H7.51611V12.1H7.9165V11.9ZM7.61611 12V8.55518H7.41611V12H7.61611ZM7.51611 8.65518H8.49023V8.45518H7.51611V8.65518ZM8.49023 8.65518C8.80149 8.65518 9.03401 8.7309 9.19963 8.87082L9.3287 8.71805C9.11671 8.53895 8.83328 8.45518 8.49023 8.45518V8.65518ZM9.20034 8.87142C9.36437 9.00741 9.4498 9.19779 9.4498 9.45605H9.64981C9.64981 9.14792 9.54481 8.89721 9.32798 8.71745L9.20034 8.87142ZM9.4498 9.45605C9.4498 9.64186 9.38934 9.80637 9.26577 9.95319L9.4188 10.082C9.57193 9.90001 9.64981 9.69017 9.64981 9.45605H9.4498ZM9.26609 9.95281C9.14364 10.0969 8.97303 10.1979 8.74751 10.2524L8.79448 10.4468C9.05398 10.3841 9.26424 10.2638 9.41848 10.0823L9.26609 9.95281ZM8.68781 10.4051L9.78888 12.0555L9.95526 11.9445L8.85418 10.2941L8.68781 10.4051ZM7.9165 10.1859H8.42188V9.98594H7.9165V10.1859ZM8.42188 10.1859C8.6521 10.1859 8.84871 10.1235 9.0024 9.9907L8.87163 9.83938C8.76164 9.93442 8.61482 9.98594 8.42188 9.98594V10.1859ZM9.00293 9.99024C9.15626 9.85584 9.23477 9.68365 9.23477 9.48047H9.03477C9.03477 9.6256 8.98144 9.74312 8.8711 9.83984L9.00293 9.99024ZM9.23477 9.48047C9.23477 9.26716 9.16872 9.09092 9.02237 8.97099C8.87982 8.85418 8.67713 8.8043 8.43164 8.8043V9.0043C8.6549 9.0043 8.80377 9.05044 8.8956 9.12569C8.98362 9.19781 9.03477 9.30966 9.03477 9.48047H9.23477ZM8.43164 8.8043H7.9165V9.0043H8.43164V8.8043ZM7.8165 8.9043V10.0859H8.0165V8.9043H7.8165ZM12.7749 8.87988V8.97988H12.8749V8.87988H12.7749ZM11.7129 8.87988V8.77988H11.6129V8.87988H11.7129ZM11.7129 12V12.1H11.8129V12H11.7129ZM11.3149 12H11.2149V12.1H11.3149V12ZM11.3149 8.87988H11.4149V8.77988H11.3149V8.87988ZM10.248 8.87988H10.148V8.97988H10.248V8.87988ZM10.248 8.55518V8.45518H10.148V8.55518H10.248ZM12.7749 8.55518H12.8749V8.45518H12.7749V8.55518ZM12.7749 8.77988H11.7129V8.97988H12.7749V8.77988ZM11.6129 8.87988V12H11.8129V8.87988H11.6129ZM11.7129 11.9H11.3149V12.1H11.7129V11.9ZM11.4149 12V8.87988H11.2149V12H11.4149ZM11.3149 8.77988H10.248V8.97988H11.3149V8.77988ZM10.348 8.87988V8.55518H10.148V8.87988H10.348ZM10.248 8.65518H12.7749V8.45518H10.248V8.65518ZM12.6749 8.55518V8.87988H12.8749V8.55518H12.6749Z" />
</svg>
