<svg width="15" height="11" viewBox="0 0 15 11" fill="none" xmlns="http://www.w3.org/2000/svg">
<path fill-rule="evenodd" clip-rule="evenodd" d="M14.02 3C14.02 1.34 12.68 0 11.02 0C9.36002 0 8.02002 1.34 8.02002 3C8.02002 4.66 9.36002 6 11.02 6C11.23 6 11.43 5.98 11.62 5.94C11.1 7.76 10.14 9 9.02002 9C8.47002 9 8.02002 9.45 8.02002 10C8.02002 10.55 8.47002 11 9.02002 11C11.78 11 14.02 7.87 14.02 4C14.02 3.8 14 3.61 13.98 3.42C13.99 3.28 14.02 3.14 14.02 3ZM3.02002 0C1.36002 0 0.0200195 1.34 0.0200195 3C0.0200195 4.66 1.36002 6 3.02002 6C3.23002 6 3.43002 5.98 3.62002 5.94C3.10002 7.76 2.14002 9 1.02002 9C0.47002 9 0.0200195 9.45 0.0200195 10C0.0200195 10.55 0.47002 11 1.02002 11C3.78002 11 6.02002 7.87 6.02002 4C6.02002 3.8 6.00002 3.61 5.98002 3.42C5.99002 3.28 6.02002 3.14 6.02002 3C6.02002 1.34 4.67002 0 3.02002 0Z" fill="#2B95D6"/>
</svg>
