<svg xmlns="http://www.w3.org/2000/svg" xmlns:xlink="http://www.w3.org/1999/xlink" fill="none" version="1.1" width="16" height="16" viewBox="0 0 16 16"><g style="mix-blend-mode:passthrough"><g><g style="mix-blend-mode:passthrough"><g><g style="mix-blend-mode:passthrough"><path d="M2,12.4C2,12.73137,2.268629,13,2.6,13L7,13L7,10L2,10L2,12.4Z" fill="#738694" fill-opacity="1"/></g><g style="mix-blend-mode:passthrough"><path d="M12,13L13.4,13C13.73137,13,14,12.73137,14,12.4L14,10L12,10L12,13Z" fill="#738694" fill-opacity="1"/></g><g style="mix-blend-mode:passthrough"><rect x="2" y="7" width="3" height="2" rx="0" fill="#738694" fill-opacity="1"/></g><g style="mix-blend-mode:passthrough"><rect x="12" y="7" width="2" height="2" rx="0" fill="#738694" fill-opacity="1"/></g><g style="mix-blend-mode:passthrough"><path d="M2,3.6L2,6L4,6L4,3L2.6,3C2.268629,3,2,3.268629,2,3.6Z" fill="#738694" fill-opacity="1"/></g><g style="mix-blend-mode:passthrough"><path d="M10,6L14,6L14,3.6C14,3.268629,13.73137,3,13.4,3L10,3L10,6Z" fill="#738694" fill-opacity="1"/></g><g style="mix-blend-mode:passthrough"><rect x="8" y="10" width="3" height="3" rx="0" fill="#738694" fill-opacity="1"/></g><g style="mix-blend-mode:passthrough"><rect x="6" y="7" width="5" height="2" rx="0" fill="#738694" fill-opacity="1"/></g><g style="mix-blend-mode:passthrough"><rect x="5" y="3" width="4" height="3" rx="0" fill="#738694" fill-opacity="1"/></g></g></g></g></g></svg>