<svg xmlns="http://www.w3.org/2000/svg" xmlns:xlink="http://www.w3.org/1999/xlink" fill="none" version="1.1" width="16" height="16" viewBox="0 0 16 16"><g style="mix-blend-mode:passthrough"><g><g style="mix-blend-mode:passthrough"><path d="M4.4375,6.0769400000000005C4.08,6.0769400000000005,3.7875,6.30002,3.67375,6.60771L3.66562,6.60771L2,11.3385L2,3.769235C2,3.346156,2.365625,3,2.8125,3L5.25,3C5.4775,3,5.68063,3.0846158,5.8268699999999995,3.223078L7.20812,4.53847L12.5625,4.53847C13.0094,4.53847,13.375,4.88463,13.375,5.3077000000000005L13.375,6.0769400000000005L4.4375,6.0769400000000005ZM14.1875,6.84619C14.6344,6.84619,15,7.19235,15,7.61543C15,7.70004,14.9838,7.78466,14.9513,7.85389L13.3263,12.4693C13.2206,12.77699,12.92,13.0001,12.5625,13.0001L3.625,13.0001C3.17813,13.0001,2.8125,12.65391,2.8125,12.23083C2.8125,12.14622,2.82875,12.0616,2.86125,11.99237L4.48625,7.37696C4.59188,7.06927,4.8925,6.84619,5.25,6.84619L14.1875,6.84619Z" fill-rule="evenodd" fill="#5C7080" fill-opacity="1"/></g></g></g></svg>