<svg xmlns="http://www.w3.org/2000/svg" xmlns:xlink="http://www.w3.org/1999/xlink" fill="none" version="1.1" width="16" height="16" viewBox="0 0 16 16"><g style="mix-blend-mode:passthrough"><g><g style="mix-blend-mode:passthrough"><g><g style="mix-blend-mode:passthrough"><path d="M7.7,9.14L2.3,6.14C2.12,6.02,2,5.84,2,5.6C2,5.359999999999999,2.12,5.18,2.3,5.0600000000000005L7.7,2.06C7.82,2,7.88,2,8,2C8.120000000000001,2,8.18,2,8.3,2.06L13.7,5.0600000000000005C13.88,5.18,14,5.359999999999999,14,5.6C14,5.84,13.88,6.02,13.7,6.14L8.3,9.14C8.18,9.2,8.120000000000001,9.2,8,9.2C7.88,9.2,7.82,9.2,7.7,9.14ZM13.4,7.3999C13.28,7.3999,13.22,7.3999,13.1,7.4599L8,10.3399L2.9,7.4599C2.7800000000000002,7.3999,2.7199999999999998,7.3999,2.6,7.3999C2.24,7.3999,2,7.6399,2,7.9999C2,8.239899999999999,2.12,8.4199,2.3,8.5399L7.7,11.5399C7.82,11.5999,7.88,11.5999,8,11.5999C8.120000000000001,11.5999,8.18,11.5999,8.3,11.5399L13.7,8.5399C13.88,8.4199,14,8.239899999999999,14,7.9999C14,7.6399,13.76,7.3999,13.4,7.3999ZM13.4,9.800049999999999C13.28,9.800049999999999,13.22,9.800049999999999,13.1,9.860050000000001L8,12.74L2.9,9.92005C2.7800000000000002,9.800049999999999,2.7199999999999998,9.800049999999999,2.6,9.800049999999999C2.24,9.800049999999999,2,10.04005,2,10.40005C2,10.64005,2.12,10.82005,2.3,10.94005L7.7,13.94C7.82,14,7.88,14,8,14C8.120000000000001,14,8.18,14,8.3,13.94L13.7,10.94005C13.88,10.82005,14,10.64005,14,10.40005C14,10.04005,13.76,9.800049999999999,13.4,9.800049999999999Z" fill-rule="evenodd" fill="#738694" fill-opacity="1"/></g></g></g></g></g></svg>