<svg xmlns="http://www.w3.org/2000/svg" xmlns:xlink="http://www.w3.org/1999/xlink" fill="none" version="1.1" width="16" height="16" viewBox="0 0 16 16"><g style="mix-blend-mode:passthrough"><g><g style="mix-blend-mode:passthrough"><g><g style="mix-blend-mode:passthrough"><g><g style="mix-blend-mode:passthrough"><ellipse cx="5" cy="6" rx="2" ry="2" fill="#5C7080" fill-opacity="1"/></g><g style="mix-blend-mode:passthrough"><ellipse cx="9" cy="5" rx="3" ry="3" fill="#5C7080" fill-opacity="1"/><ellipse cx="9" cy="5" rx="3.2000000029802322" ry="3.2000000029802322" fill-opacity="0" stroke-opacity="1" stroke="#E1E8ED" stroke-width="0.4000000059604645" fill="none" stroke-dasharray=""/></g><g style="mix-blend-mode:passthrough"><path d="M9,12C9,11.60218,8.89851,11.21949,8.69552,10.85195C8.49253,10.48441,8.2035,10.159980000000001,7.82843,9.87868C7.45336,9.597375,7.02079,9.380602,6.53073,9.228362C6.04068,9.0761207,5.53043,9.000000272478,5,9.000000408718C4.46957,9.000000136239,3.95932,9.0761206,3.46927,9.228361C2.97921,9.380602,2.54665,9.597375,2.17157,9.87868C1.7965,10.159980000000001,1.50747,10.48441,1.304482,10.85195C1.101494,11.21949,1.000000317891,11.60218,1.000000317891,12L5,12L9,12Z" fill="#5C7080" fill-opacity="1"/></g><g style="mix-blend-mode:passthrough"><path d="M15,14C15,13.336960000000001,14.8478,12.69915,14.5433,12.08658C14.2388,11.47401,13.8052,10.93331,13.2426,10.46447C12.68003,9.995625,12.03119,9.634337,11.2961,9.380603C10.56102,9.126868,9.79565,9.000000454131,9,9.000000681196C8.20435,9.000000227065,7.43898,9.126868,6.7039,9.380602C5.96882,9.634337,5.31997,9.995625,4.75736,10.46447C4.19475,10.93331,3.761205,11.47401,3.456723,12.08658C3.152241,12.69915,3.000000476837,13.336960000000001,3.000000476837,14L9,14L15,14Z" fill="#5C7080" fill-opacity="1"/><path d="M15.4,14.4L2.6,14.4L2.6,14Q2.600001,12.91151,3.0985316,11.90854Q3.5927160000000002,10.91432,4.50129,10.15718Q5.40149,9.407005,6.57339,9.00249392Q7.73944,8.6,9,8.600001Q10.260570000000001,8.6,11.42661,9.00249407Q12.59851,9.407007,13.4987,10.15718Q14.4073,10.91432,14.9015,11.90854Q15.4,12.9115,15.4,14L15.4,14.4ZM14.5433,12.08658C14.8478,12.69915,15,13.336960000000001,15,14L3,14Q3.000000499189,13.00544,3.456723,12.08658Q3.913446,11.16773,4.75736,10.46447Q5.6012699999999995,9.761205,6.7039,9.380602Q7.80653,9,9,9Q10.19347,9.000000342727,11.2961,9.380603C12.03119,9.634337,12.68003,9.995625,13.2426,10.46447Q14.0866,11.16773,14.5433,12.08658Z" fill-rule="evenodd" fill="#E1E8ED" fill-opacity="1"/></g></g></g></g></g></g></g></svg>