<svg xmlns="http://www.w3.org/2000/svg" xmlns:xlink="http://www.w3.org/1999/xlink" fill="none" version="1.1" width="16" height="16" viewBox="0 0 16 16"><g style="mix-blend-mode:passthrough"><g><g style="mix-blend-mode:passthrough"><g></g></g><g style="mix-blend-mode:passthrough"><g><g style="mix-blend-mode:passthrough"><ellipse cx="8" cy="5" rx="3" ry="3" fill="#5C7080" fill-opacity="1"/></g><g style="mix-blend-mode:passthrough"><path d="M14,14C14,13.336960000000001,13.8478,12.69915,13.5433,12.08658C13.2388,11.47401,12.8052,10.93331,12.2426,10.46447C11.68003,9.995625,11.03119,9.634337,10.2961,9.380603C9.56102,9.126868,8.79565,9.000000454131,8,9.000000681196C7.20435,9.000000227065,6.43898,9.126868,5.7039,9.380602C4.96882,9.634337,4.31997,9.995625,3.7573600000000003,10.46447C3.19475,10.93331,2.761205,11.47401,2.456723,12.08658C2.152241,12.69915,2.000000476837,13.336960000000001,2.000000476837,14L8,14L14,14Z" fill="#5C7080" fill-opacity="1"/></g></g></g></g></g></svg>