<svg width="429" height="133" viewBox="0 0 429 133" fill="none" xmlns="http://www.w3.org/2000/svg">
<g opacity="0.7">
<rect x="25" y="28" width="275" height="76" rx="12" fill="#E27FE4" fill-opacity="0.5"/>
<rect x="190" y="12" width="206" height="73" rx="12" fill="#97D8ED" fill-opacity="0.7"/>
<path d="M374 124L353 89H374V124Z" fill="#97D8ED" fill-opacity="0.7"/>
<path d="M43 124L61 108H43V124Z" fill="#E27FE4" fill-opacity="0.5"/>
<path d="M345.54 63.76C353.482 63.76 359.92 57.3219 359.92 49.38C359.92 41.4381 353.482 35 345.54 35C337.598 35 331.16 41.4381 331.16 49.38C331.16 57.3219 337.598 63.76 345.54 63.76Z" fill="#2541CC"/>
<path d="M305.82 58.64C310.691 58.64 314.64 54.6912 314.64 49.82C314.64 44.9488 310.691 41 305.82 41C300.949 41 297 44.9488 297 49.82C297 54.6912 300.949 58.64 305.82 58.64Z" fill="#2541CC"/>
<path d="M275 56C278.314 56 281 53.3137 281 50C281 46.6863 278.314 44 275 44C271.686 44 269 46.6863 269 50C269 53.3137 271.686 56 275 56Z" fill="#2541CC"/>
<path d="M52 56H103" stroke="#2541CC" stroke-width="2"/>
<path d="M52 67H103" stroke="#2541CC" stroke-width="2"/>
<path d="M52 79H128" stroke="#2541CC" stroke-width="2"/>
</g>
</svg>
