<svg width="477" height="114" viewBox="0 0 477 114" opacity="0.85" fill="none" xmlns="http://www.w3.org/2000/svg">
<g clip-path="url(#clip0_427_102)">
<path d="M171.946 114.206C185.171 114.206 195.892 103.415 195.892 90.103C195.892 76.7913 185.171 66 171.946 66C158.721 66 148 76.7913 148 90.103C148 103.415 158.721 114.206 171.946 114.206Z" fill="#2D72D2"/>
<path d="M242.193 28.5592C249.48 28.5592 255.386 22.6137 255.386 15.2796C255.386 7.94547 249.48 2 242.193 2C234.907 2 229 7.94547 229 15.2796C229 22.6137 234.907 28.5592 242.193 28.5592Z" fill="#D8B0F1"/>
<path d="M364 33C368.971 33 373 28.7467 373 23.5C373 18.2533 368.971 14 364 14C359.029 14 355 18.2533 355 23.5C355 28.7467 359.029 33 364 33Z" fill="#6197E5"/>
<path d="M452.5 104C461.06 104 468 96.8366 468 88C468 79.1634 461.06 72 452.5 72C443.94 72 437 79.1634 437 88C437 96.8366 443.94 104 452.5 104Z" fill="#6197E5"/>
<path d="M467 20C472.523 20 477 15.5228 477 10C477 4.47715 472.523 0 467 0C461.477 0 457 4.47715 457 10C457 15.5228 461.477 20 467 20Z" fill="#6197E5"/>
<path d="M364 23L414.621 47.152L452 88" stroke="#6197E5" stroke-width="3" stroke-miterlimit="10"/>
<path d="M415 48L467 10" stroke="#6197E5" stroke-width="3" stroke-miterlimit="10"/>
<path d="M40.197 71.6179C45.8654 71.6179 50.4605 66.9927 50.4605 61.2872C50.4605 55.5817 45.8654 50.9565 40.197 50.9565C34.5287 50.9565 29.9336 55.5817 29.9336 61.2872C29.9336 66.9927 34.5287 71.6179 40.197 71.6179Z" fill="#6197E5"/>
<path d="M80.4563 74.2446C83.787 74.2446 86.4871 71.5268 86.4871 68.1743C86.4871 64.8218 83.787 62.104 80.4563 62.104C77.1256 62.104 74.4255 64.8218 74.4255 68.1743C74.4255 71.5268 77.1256 74.2446 80.4563 74.2446Z" fill="#6197E5"/>
<path d="M15.865 22.6613C21.5334 22.6613 26.1285 18.0361 26.1285 12.3307C26.1285 6.6252 21.5334 2 15.865 2C10.1967 2 5.60156 6.6252 5.60156 12.3307C5.60156 18.0361 10.1967 22.6613 15.865 22.6613Z" fill="#6197E5"/>
<path d="M6.4582 92.3662C10.025 92.3662 12.9164 89.4559 12.9164 85.8657C12.9164 82.2756 10.025 79.3652 6.4582 79.3652C2.89143 79.3652 0 82.2756 0 85.8657C0 89.4559 2.89143 92.3662 6.4582 92.3662Z" fill="#6197E5"/>
<path d="M80.4564 68.1742L40.1972 61.2871L15.865 12.3306" stroke="#6197E5" stroke-width="2" stroke-miterlimit="10"/>
<path d="M40.1972 61.2871L6.45825 85.8658" stroke="#6197E5" stroke-width="2" stroke-miterlimit="10"/>
<path d="M415 64C423.837 64 431 56.8366 431 48C431 39.1634 423.837 32 415 32C406.163 32 399 39.1634 399 48C399 56.8366 406.163 64 415 64Z" fill="#2D72D2"/>
</g>
<defs>
<clipPath id="clip0_427_102">
<rect width="477" height="114" fill="white"/>
</clipPath>
</defs>
</svg>
